<?xml version="1.0" encoding="utf-8"?>
<!-- Generated by IcoMoon.io -->
<!DOCTYPE svg PUBLIC "-//W3C//DTD SVG 1.1//EN" "http://www.w3.org/Graphics/SVG/1.1/DTD/svg11.dtd">
<svg version="1.1" xmlns="http://www.w3.org/2000/svg" xmlns:xlink="http://www.w3.org/1999/xlink" width="1024" height="1024" viewBox="0 0 1024 1024">
<g id="icomoon-ignore">
</g>
<path fill="#fff" d="M385.536 542.752c-5.696 8.224-12.64 28.832-20.864 33.888-8.224 5.024-17.504 8.544-27.808 10.496-10.336 1.984-21.024 2.848-32.064 2.528v48.864h78.944v193.472h63.712v-319.872h-50.688c-1.792 12.192-5.536 22.4-11.232 30.624zM736 256h64c17.696 0 32-14.336 32-32v-192c0-17.664-14.304-32-32-32h-64c-17.696 0-32 14.336-32 32v192c0 17.664 14.304 32 32 32zM224 256h64c17.664 0 32-14.336 32-32v-192c0-17.664-14.336-32-32-32h-64c-17.664 0-32 14.336-32 32v192c0 17.664 14.336 32 32 32zM960 128h-64v160c0 17.664-14.304 32-32 32h-192c-17.696 0-32-14.336-32-32v-160h-256v160c0 17.664-14.336 32-32 32h-192c-17.664 0-32-14.336-32-32v-160h-64c-35.328 0-64 28.672-64 64v768c0 35.328 28.672 64 64 64h896c35.328 0 64-28.672 64-64v-768c0-35.328-28.672-64-64-64zM960 928c0 17.696-14.304 32-32 32h-832c-17.664 0-32-14.304-32-32v-512c0-17.664 14.336-32 32-32h832c17.696 0 32 14.336 32 32v512zM511.52 575.424h158.976c-29.952 36.864-54.048 74.4-72.48 118.56-18.4 44.192-20.416 90.176-23.968 137.984h68.192c0.288-21.312-6.24-44.32-1.632-68.992 4.672-24.672 11.264-49.024 19.744-73.12 8.544-24.064 19.136-46.752 31.872-68.064 12.672-21.344 27.296-39.328 43.744-53.952v-55.744h-224.48v63.328z" stroke="white"></path>
</svg>
