<?xml version="1.0" encoding="utf-8"?>
<!-- Generated by IcoMoon.io -->
<!DOCTYPE svg PUBLIC "-//W3C//DTD SVG 1.1//EN" "http://www.w3.org/Graphics/SVG/1.1/DTD/svg11.dtd">
<svg version="1.1" xmlns="http://www.w3.org/2000/svg" xmlns:xlink="http://www.w3.org/1999/xlink" width="512" height="512" viewBox="0 0 512 512">
<g id="icomoon-ignore">
</g>
<path fill="#fff" stroke="white"  d="M256 512c141.385 0 256-114.615 256-256s-114.615-256-256-256-256 114.615-256 256 114.615 256 256 256zM256 48c114.875 0 208 93.125 208 208s-93.125 208-208 208-208-93.125-208-208 93.125-208 208-208zM256 299.38c57.975 0 113.115-15.403 160-42.46-7.287 89.219-76.564 159.080-160 159.080-83.434 0-152.711-69.936-160-159.152 46.885 27.056 102.025 42.532 160 42.532zM128 176c0-26.51 14.327-48 32-48s32 21.49 32 48c0 26.51-14.327 48-32 48s-32-21.49-32-48zM320 176c0-26.51 14.327-48 32-48s32 21.49 32 48c0 26.51-14.327 48-32 48s-32-21.49-32-48z"></path>
</svg>
