<svg xmlns="http://www.w3.org/2000/svg" viewBox="0 0 480.13 480.13"><defs><style>.cls-1{isolation:isolate;}.cls-2{fill:#f3f6f2;}.cls-3{fill:#231f20;opacity:0.5;mix-blend-mode:overlay;}</style></defs><title>bg</title><g class="cls-1"><g id="圖層_1" data-name="圖層 1"><rect class="cls-2" y="1.22" width="480.13" height="480.13" transform="translate(481.35 0) rotate(90)"/><path class="cls-3" d="M476.25,466.73c1.27,0.3,2.57.53,3.88,0.72V464.9a42.8,42.8,0,0,1-4.43-.92,43.45,43.45,0,0,0-6.62-14.86,43.46,43.46,0,0,0,6.62-14.86,42.83,42.83,0,0,1,4.43-.92v-2.56c-1.31.19-2.6,0.43-3.88,0.72a41.79,41.79,0,0,0-1-18.88,45.77,45.77,0,0,0,4.83,1v-2.52a41.64,41.64,0,0,1-5.72-1.29,43.64,43.64,0,0,0-6.85-12.49,43.63,43.63,0,0,0,6.85-12.49,42.49,42.49,0,0,1,5.72-1.29V381a46.68,46.68,0,0,0-4.83,1,41.79,41.79,0,0,0,1-18.88c1.27,0.3,2.57.53,3.88,0.72v-2.55c-1.5-.24-3-0.54-4.43-0.92a43.46,43.46,0,0,0-6.62-14.86,43.53,43.53,0,0,0,6.62-14.86,42.88,42.88,0,0,1,4.43-.92v-2.56c-1.31.2-2.6,0.43-3.88,0.72a41.79,41.79,0,0,0-1-18.88,46.83,46.83,0,0,0,4.83,1v-2.52a40.92,40.92,0,0,1-5.72-1.29,43.6,43.6,0,0,0-6.85-12.48,43.62,43.62,0,0,0,6.85-12.48,41.78,41.78,0,0,1,5.72-1.29V277.4a45.64,45.64,0,0,0-4.83,1,41.81,41.81,0,0,0,1-18.89c1.27,0.3,2.57.53,3.88,0.73v-2.55a45.18,45.18,0,0,1-4.43-.92,43.49,43.49,0,0,0-6.62-14.86A43.46,43.46,0,0,0,475.7,227a42.8,42.8,0,0,1,4.43-.92v-2.56c-1.31.2-2.6,0.43-3.88,0.72a41.77,41.77,0,0,0-1-18.89,45.68,45.68,0,0,0,4.83,1v-2.52a41.07,41.07,0,0,1-5.73-1.29,43.67,43.67,0,0,0-6.85-12.48,43.59,43.59,0,0,0,6.85-12.48,41.68,41.68,0,0,1,5.73-1.29v-2.52a46.88,46.88,0,0,0-4.83,1,41.79,41.79,0,0,0,1-18.89c1.27,0.3,2.57.53,3.88,0.73V154a43,43,0,0,1-4.43-.92,43.47,43.47,0,0,0-6.62-14.85,43.53,43.53,0,0,0,6.62-14.86,42.82,42.82,0,0,1,4.43-.92v-2.56c-1.31.2-2.6,0.43-3.88,0.72a41.79,41.79,0,0,0-1-18.88,45.62,45.62,0,0,0,4.83,1v-2.52a42.33,42.33,0,0,1-5.72-1.29,43.58,43.58,0,0,0-6.85-12.49A43.63,43.63,0,0,0,474.41,74a42.33,42.33,0,0,1,5.72-1.29V70.16a46.75,46.75,0,0,0-4.83,1,41.79,41.79,0,0,0,1-18.88c1.27,0.3,2.57.53,3.88,0.72V50.42a45.09,45.09,0,0,1-4.43-.92,43.44,43.44,0,0,0-6.62-14.86,43.42,43.42,0,0,0,6.62-14.85,42.89,42.89,0,0,1,4.43-.92V16.31c-1.31.2-2.6,0.43-3.88,0.72a43.65,43.65,0,0,0,.66-7.28,43.45,43.45,0,0,0-.86-8.53h-2.57a41.24,41.24,0,0,1,.9,8.53,41.15,41.15,0,0,1-.79,8,43.54,43.54,0,0,0-13.85,7.16,43.56,43.56,0,0,0-13.86-7.16A40.62,40.62,0,0,1,446,1.23h-2.58a43.45,43.45,0,0,0-.86,8.53,43.46,43.46,0,0,0,.66,7.28,41.79,41.79,0,0,0-17.48-.51,43.41,43.41,0,0,0,.58-6.76,43.67,43.67,0,0,0-.86-8.53h-2.58a40.89,40.89,0,0,1,.91,8.53,41,41,0,0,1-.69,7.31A43.47,43.47,0,0,0,407.92,24a43.45,43.45,0,0,0-15.18-6.9,41,41,0,0,1-.69-7.31A40.89,40.89,0,0,1,393,1.23h-2.58a43.48,43.48,0,0,0-.86,8.53,43.41,43.41,0,0,0,.58,6.76,41.75,41.75,0,0,0-17.47.51,43.47,43.47,0,0,0,.66-7.28,43.5,43.5,0,0,0-.86-8.53h-2.58A40.63,40.63,0,0,1,370,17.72a43.64,43.64,0,0,0-13.86,7.16,43.54,43.54,0,0,0-13.86-7.16,40.62,40.62,0,0,1,.12-16.49H339.8a43.46,43.46,0,0,0-.86,8.53A43.41,43.41,0,0,0,339.6,17a41.8,41.8,0,0,0-17.48-.51,43.48,43.48,0,0,0,.58-6.76,43.67,43.67,0,0,0-.86-8.53h-2.59a40.89,40.89,0,0,1,.91,8.53,41.36,41.36,0,0,1-.69,7.31A43.43,43.43,0,0,0,304.3,24a43.4,43.4,0,0,0-15.18-6.9,40.91,40.91,0,0,1-.69-7.31,40.89,40.89,0,0,1,.91-8.53h-2.58a43.53,43.53,0,0,0-.86,8.53,44,44,0,0,0,.58,6.76A41.76,41.76,0,0,0,269,17a43.41,43.41,0,0,0,.66-7.28,43.5,43.5,0,0,0-.86-8.53h-2.58a40.73,40.73,0,0,1,.12,16.49,43.47,43.47,0,0,0-13.86,7.16,43.55,43.55,0,0,0-13.86-7.16,40.64,40.64,0,0,1,.12-16.49h-2.58a43.45,43.45,0,0,0-.86,8.53A43.43,43.43,0,0,0,236,17a41.78,41.78,0,0,0-17.47-.51,43.7,43.7,0,0,0,.58-6.76,43.67,43.67,0,0,0-.86-8.53h-2.59a40.89,40.89,0,0,1,.91,8.53,41.35,41.35,0,0,1-.69,7.31A43.44,43.44,0,0,0,200.69,24a43.47,43.47,0,0,0-15.18-6.9,41,41,0,0,1-.69-7.31,40.89,40.89,0,0,1,.91-8.53h-2.58a43.51,43.51,0,0,0-.86,8.53,44,44,0,0,0,.58,6.76,41.78,41.78,0,0,0-17.47.51A43.69,43.69,0,0,0,166,9.76a43.48,43.48,0,0,0-.86-8.53h-2.57a41.2,41.2,0,0,1,.9,8.53,41.17,41.17,0,0,1-.79,8,43.6,43.6,0,0,0-13.86,7.16A43.56,43.56,0,0,0,135,17.72a41.17,41.17,0,0,1-.79-8,41.08,41.08,0,0,1,.9-8.53h-2.58a43.46,43.46,0,0,0-.86,8.53,43.72,43.72,0,0,0,.66,7.28,41.75,41.75,0,0,0-17.47-.51,43.44,43.44,0,0,0,.58-6.76,43.66,43.66,0,0,0-.86-8.53H112a41,41,0,0,1,.91,8.53,41.35,41.35,0,0,1-.69,7.31A43.36,43.36,0,0,0,97.07,24a43.4,43.4,0,0,0-15.18-6.9,41,41,0,0,1-.69-7.31,40.89,40.89,0,0,1,.91-8.53H79.52a43.51,43.51,0,0,0-.86,8.53,43.45,43.45,0,0,0,.58,6.76A41.78,41.78,0,0,0,61.77,17a43.23,43.23,0,0,0,.66-7.28,43.46,43.46,0,0,0-.86-8.53H59a40.68,40.68,0,0,1,.12,16.49,43.54,43.54,0,0,0-13.85,7.16A43.55,43.55,0,0,0,31.4,17.72a41.15,41.15,0,0,1-.79-8,41.08,41.08,0,0,1,.91-8.53H28.94a43.48,43.48,0,0,0-.86,8.53A43.44,43.44,0,0,0,28.74,17a43.68,43.68,0,0,0-10-1.2,43.67,43.67,0,0,0-7.47.69,44,44,0,0,0,.58-6.76A43.48,43.48,0,0,0,11,1.23H8.41a40.89,40.89,0,0,1,.91,8.53,41.2,41.2,0,0,1-.69,7.31A43.44,43.44,0,0,0,0,20.14v2.81a41.68,41.68,0,0,1,8-3.12A40.91,40.91,0,0,1,2.43,32.51C1.67,31.55.83,30.65,0,29.76v3.82c0.29,0.36.59,0.7,0.87,1.07C0.59,35,.29,35.35,0,35.71v3.82c0.83-.89,1.67-1.79,2.43-2.75A41,41,0,0,1,8,49.46a41.68,41.68,0,0,1-8-3.12v2.81a43.48,43.48,0,0,0,8.63,3.08,40.92,40.92,0,0,1,.69,7.3,41,41,0,0,1-1.7,11.65A43.9,43.9,0,0,0,0,74v2.8A41,41,0,0,1,6.63,74,41.14,41.14,0,0,1,.82,84.47C0.56,84.17.27,83.89,0,83.6v5.7c0.27-.3.56-0.57,0.83-0.87a41.2,41.2,0,0,1,5.8,10.43A40.92,40.92,0,0,1,0,96.14v2.8a43.58,43.58,0,0,0,7.61,2.8,41,41,0,0,1,1.7,11.64,41.22,41.22,0,0,1-.69,7.31A43.41,43.41,0,0,0,0,123.76v2.81a41.68,41.68,0,0,1,8-3.12,41,41,0,0,1-5.59,12.68c-0.76-1-1.59-1.85-2.43-2.75v3.81c0.29,0.36.59,0.7,0.87,1.07C0.59,138.62.29,139,0,139.33v3.82c0.83-.89,1.67-1.79,2.43-2.75A40.92,40.92,0,0,1,8,153.07,41.37,41.37,0,0,1,0,150v2.81a43.46,43.46,0,0,0,8.63,3.08,41.16,41.16,0,0,1,.69,7.31A40.93,40.93,0,0,1,7.61,174.8,43.56,43.56,0,0,0,0,177.6v2.8a40.3,40.3,0,0,1,6.63-2.73,41.15,41.15,0,0,1-5.8,10.42c-0.26-.3-0.56-0.57-0.82-0.86v5.7c0.27-.29.56-0.56,0.82-0.86a41.18,41.18,0,0,1,5.8,10.43A41,41,0,0,1,0,199.75v2.8a43.56,43.56,0,0,0,7.61,2.8A41,41,0,0,1,9.32,217a41,41,0,0,1-.69,7.3A43.48,43.48,0,0,0,0,227.38v2.81a41.68,41.68,0,0,1,8-3.12,40.92,40.92,0,0,1-5.59,12.68C1.67,238.79.83,237.9,0,237v3.82c0.29,0.36.59,0.7,0.86,1.06-0.28.36-.58,0.71-0.86,1.06v3.82c0.83-.89,1.67-1.79,2.43-2.75A41,41,0,0,1,8,256.69a41.37,41.37,0,0,1-8-3.12v2.81a43.09,43.09,0,0,0,8.63,3.07,41.26,41.26,0,0,1,.69,7.32,41,41,0,0,1-1.7,11.64A43.63,43.63,0,0,0,0,281.21V284a40.57,40.57,0,0,1,6.63-2.74,41.1,41.1,0,0,1-5.8,10.43c-0.26-.29-0.55-0.57-0.82-0.86v5.71c0.27-.3.56-0.57,0.83-0.87a41.1,41.1,0,0,1,5.8,10.43A41,41,0,0,1,0,303.38v2.8A43.9,43.9,0,0,0,7.61,309a41,41,0,0,1,1.7,11.65,41.16,41.16,0,0,1-.69,7.31A43.43,43.43,0,0,0,0,331v2.81a41.72,41.72,0,0,1,8-3.12,40.92,40.92,0,0,1-5.59,12.68c-0.76-1-1.59-1.85-2.42-2.75v3.82c0.29,0.35.59,0.7,0.87,1.06-0.28.36-.58,0.71-0.87,1.06v3.82c0.83-.89,1.67-1.79,2.42-2.75A41,41,0,0,1,8,360.32a41.65,41.65,0,0,1-8-3.12V360a43.44,43.44,0,0,0,8.63,3.08,41.15,41.15,0,0,1,.69,7.31A41,41,0,0,1,7.61,382,43.58,43.58,0,0,0,0,384.83v2.8a40.57,40.57,0,0,1,6.63-2.74,41.19,41.19,0,0,1-5.8,10.43C0.56,395,.27,394.76,0,394.47v5.7c0.27-.29.56-0.56,0.82-0.86a41,41,0,0,1,5.8,10.43A41,41,0,0,1,0,407v2.8a43.61,43.61,0,0,0,7.61,2.8,41,41,0,0,1,1.71,11.65,41.1,41.1,0,0,1-.69,7.3A43.51,43.51,0,0,0,0,434.62v2.81a41.65,41.65,0,0,1,8-3.12A40.92,40.92,0,0,1,2.43,447c-0.76-1-1.59-1.86-2.43-2.75v3.82c0.29,0.36.59,0.7,0.87,1.07-0.28.36-.58,0.71-0.87,1.06V454c0.83-.89,1.67-1.79,2.43-2.75A40.92,40.92,0,0,1,8,463.94a41.61,41.61,0,0,1-8-3.12v2.81a43.48,43.48,0,0,0,8.63,3.07,41.11,41.11,0,0,1,.69,7.3,41.15,41.15,0,0,1-.66,7.35h2.57a43.55,43.55,0,0,0,.63-7.35,43.39,43.39,0,0,0-.58-6.76,43.69,43.69,0,0,0,7.47.69,43.67,43.67,0,0,0,10-1.2,42,42,0,0,0,0,14.62h2.57A40.63,40.63,0,0,1,31.4,466a43.57,43.57,0,0,0,13.86-7.16A43.55,43.55,0,0,0,59.11,466a40.69,40.69,0,0,1,.12,15.3H61.8a42.09,42.09,0,0,0,0-14.62,41.75,41.75,0,0,0,17.47.51,41.58,41.58,0,0,0,0,14.11h2.57a40.07,40.07,0,0,1,0-14.65,43.38,43.38,0,0,0,15.18-6.9,43.46,43.46,0,0,0,15.18,6.9,40.12,40.12,0,0,1,0,14.65h2.57a41.57,41.57,0,0,0,0-14.11,41.74,41.74,0,0,0,17.47-.51,42,42,0,0,0,0,14.62h2.57A40.64,40.64,0,0,1,135,466a43.58,43.58,0,0,0,13.86-7.16A43.58,43.58,0,0,0,162.73,466a40.63,40.63,0,0,1,.12,15.3h2.57a42,42,0,0,0,0-14.62,41.77,41.77,0,0,0,17.47.51,41.72,41.72,0,0,0,0,14.11h2.57a40.07,40.07,0,0,1,0-14.65,43.45,43.45,0,0,0,15.18-6.9,43.46,43.46,0,0,0,15.18,6.9,40.12,40.12,0,0,1,0,14.65h2.57a41.74,41.74,0,0,0,0-14.11,41.75,41.75,0,0,0,17.47-.51,42.16,42.16,0,0,0,0,14.62h2.57a40.69,40.69,0,0,1,.12-15.3,43.56,43.56,0,0,0,13.86-7.16A43.57,43.57,0,0,0,266.35,466a40.7,40.7,0,0,1,.12,15.3H269a42,42,0,0,0,0-14.62,41.74,41.74,0,0,0,17.47.51,41.66,41.66,0,0,0,0,14.11h2.57a40,40,0,0,1,0-14.65,43.47,43.47,0,0,0,15.18-6.9,43.44,43.44,0,0,0,15.18,6.9,40.18,40.18,0,0,1,0,14.65h2.57a41.59,41.59,0,0,0,0-14.11,41.77,41.77,0,0,0,17.47-.51,42,42,0,0,0,0,14.62h2.57a40.67,40.67,0,0,1,.12-15.3,43.55,43.55,0,0,0,13.86-7.16A43.56,43.56,0,0,0,370,466a40.69,40.69,0,0,1,.12,15.3h2.57a42,42,0,0,0,0-14.62,41.73,41.73,0,0,0,17.47.51,41.73,41.73,0,0,0,0,14.11h2.57a40.05,40.05,0,0,1,0-14.64,43.49,43.49,0,0,0,15.18-6.91,43.4,43.4,0,0,0,15.18,6.9,40.08,40.08,0,0,1,0,14.65h2.57a41.65,41.65,0,0,0,0-14.11,41.77,41.77,0,0,0,17.47-.51,42.11,42.11,0,0,0,0,14.62h2.57a40.67,40.67,0,0,1,.12-15.3,43.59,43.59,0,0,0,13.86-7.16A43.54,43.54,0,0,0,473.59,466a40.62,40.62,0,0,1,.12,15.3h2.57A42,42,0,0,0,476.25,466.73Zm-16.51-11.06a41.29,41.29,0,0,1-6.2-6.55,41.26,41.26,0,0,1,6.2-6.55,41.43,41.43,0,0,1,6.2,6.55A41.46,41.46,0,0,1,459.74,455.68ZM452,447a41,41,0,0,1-5.38-11.88A41,41,0,0,1,457.71,441,43.75,43.75,0,0,0,452,447Zm15.51,0a43.87,43.87,0,0,0-5.73-6,41.17,41.17,0,0,1,11.11-5.88A41,41,0,0,1,467.49,447Zm5-35.18a40.85,40.85,0,0,1,1.14,20.39,43.52,43.52,0,0,0-13.86,7.16,43.58,43.58,0,0,0-13.86-7.16A40.87,40.87,0,0,1,447,411.81,43.6,43.6,0,0,0,459.74,405,43.58,43.58,0,0,0,472.45,411.81ZM407.92,441.6a41.4,41.4,0,0,1,7.42,7.52,41.42,41.42,0,0,1-7.42,7.52,41.42,41.42,0,0,1-7.42-7.52A41.4,41.4,0,0,1,407.92,441.6Zm-9,5.39a41,41,0,0,1-5.59-12.68A41,41,0,0,1,405.82,440,44.15,44.15,0,0,0,398.94,447ZM410,440a40.9,40.9,0,0,1,12.47-5.71A41.05,41.05,0,0,1,416.91,447,44.06,44.06,0,0,0,410,440Zm-2.11-1.58a43.41,43.41,0,0,0-15.18-6.9,40.05,40.05,0,0,1,1-19A43.47,43.47,0,0,0,407.92,406a43.38,43.38,0,0,0,14.17,6.64,40.07,40.07,0,0,1,1,19A43.41,43.41,0,0,0,407.92,438.45Zm-51.81,4.12a41.32,41.32,0,0,1,6.2,6.55,41.34,41.34,0,0,1-6.2,6.55,41.4,41.4,0,0,1-6.2-6.55A41.38,41.38,0,0,1,356.12,442.57ZM348.36,447A41,41,0,0,1,343,435.12,41,41,0,0,1,354.09,441,44.21,44.21,0,0,0,348.36,447Zm9.78-6a41,41,0,0,1,11.12-5.88A41,41,0,0,1,363.87,447,44.14,44.14,0,0,0,358.14,441Zm-2-1.64a43.54,43.54,0,0,0-13.86-7.16,40.87,40.87,0,0,1,1.14-20.39A43.48,43.48,0,0,0,356.12,405a43.48,43.48,0,0,0,12.72,6.78A40.87,40.87,0,0,1,370,432.2,43.55,43.55,0,0,0,356.12,439.37ZM304.3,441.6a41.38,41.38,0,0,1,7.42,7.52,41.4,41.4,0,0,1-7.42,7.52,41.42,41.42,0,0,1-7.42-7.52A41.4,41.4,0,0,1,304.3,441.6Zm-9,5.39a40.92,40.92,0,0,1-5.59-12.68A40.94,40.94,0,0,1,302.2,440,44.12,44.12,0,0,0,295.32,447Zm11.09-7a41.16,41.16,0,0,1,12.47-5.71A40.94,40.94,0,0,1,313.28,447,43.89,43.89,0,0,0,306.41,440Zm-2.11-1.58a43.48,43.48,0,0,0-15.18-6.9,40,40,0,0,1,1-19A43.5,43.5,0,0,0,304.3,406a43.48,43.48,0,0,0,14.16,6.64,40.1,40.1,0,0,1,1,19A43.46,43.46,0,0,0,304.3,438.45Zm-51.81,4.12a41.33,41.33,0,0,1,6.2,6.55,41.36,41.36,0,0,1-6.2,6.55,41.45,41.45,0,0,1-6.2-6.55A41.43,41.43,0,0,1,252.5,442.57ZM244.74,447a40.82,40.82,0,0,1-5.38-11.87A41,41,0,0,1,250.47,441,44.05,44.05,0,0,0,244.74,447Zm9.78-6a41,41,0,0,1,11.12-5.88A41,41,0,0,1,260.25,447,44,44,0,0,0,254.52,441Zm-2-1.64a43.54,43.54,0,0,0-13.86-7.16,40.89,40.89,0,0,1,1.14-20.39A43.6,43.6,0,0,0,252.5,405a43.49,43.49,0,0,0,12.72,6.78,40.89,40.89,0,0,1,1.14,20.39A43.55,43.55,0,0,0,252.5,439.37Zm-51.81,2.24a41.54,41.54,0,0,1,7.42,7.52,41.55,41.55,0,0,1-7.42,7.52,41.41,41.41,0,0,1-7.42-7.52A41.4,41.4,0,0,1,200.68,441.6Zm-9,5.4a40.94,40.94,0,0,1-5.59-12.69A41.12,41.12,0,0,1,198.58,440,44,44,0,0,0,191.71,447Zm11.08-7a40.92,40.92,0,0,1,12.47-5.71A40.92,40.92,0,0,1,209.67,447,44.13,44.13,0,0,0,202.79,440Zm-2.11-1.58a43.46,43.46,0,0,0-15.18-6.9,40,40,0,0,1,1-19,43.41,43.41,0,0,0,14.16-6.64,43.42,43.42,0,0,0,14.17,6.64,40.11,40.11,0,0,1,1,19A43.47,43.47,0,0,0,200.68,438.45Zm-51.81,4.12a41.47,41.47,0,0,1,6.2,6.55,41.73,41.73,0,0,1-6.2,6.56,41.61,41.61,0,0,1-6.2-6.56A41.35,41.35,0,0,1,148.87,442.57ZM141.11,447a41,41,0,0,1-5.38-11.88A41.05,41.05,0,0,1,146.85,441,43.8,43.8,0,0,0,141.11,447Zm9.78-6A41,41,0,0,1,162,435.12,41,41,0,0,1,156.63,447,43.9,43.9,0,0,0,150.9,441Zm-2-1.64A43.57,43.57,0,0,0,135,432.2a40.85,40.85,0,0,1,1.14-20.38A43.63,43.63,0,0,0,148.87,405a43.63,43.63,0,0,0,12.72,6.78,40.84,40.84,0,0,1,1.14,20.38A43.57,43.57,0,0,0,148.87,439.37ZM97.06,441.6a41.48,41.48,0,0,1,7.42,7.52,41.5,41.5,0,0,1-7.42,7.52,41.41,41.41,0,0,1-7.42-7.52A41.39,41.39,0,0,1,97.06,441.6Zm-9,5.4a41,41,0,0,1-5.59-12.69A40.9,40.9,0,0,1,95,440,44.15,44.15,0,0,0,88.08,447Zm11.09-7a40.9,40.9,0,0,1,12.47-5.71A41,41,0,0,1,106,447,44.05,44.05,0,0,0,99.17,440Zm-2.11-1.58a43.46,43.46,0,0,0-15.18-6.9,40,40,0,0,1,1-19A43.48,43.48,0,0,0,97.06,406a43.5,43.5,0,0,0,14.17,6.64,40.11,40.11,0,0,1,1,19A43.47,43.47,0,0,0,97.06,438.45ZM80.12,413.26A41.24,41.24,0,0,0,79.24,431a41.75,41.75,0,0,0-17.47.51,41.81,41.81,0,0,0-1-18.88A42.5,42.5,0,0,0,80.12,413.26Zm-41-17.94a41.08,41.08,0,0,1-5.43-9.41,41.14,41.14,0,0,1,9.56,5.31A44.05,44.05,0,0,0,39.1,395.33Zm17.73-9.41a41.06,41.06,0,0,1-5.42,9.41,43.81,43.81,0,0,0-4.13-4.1A41.15,41.15,0,0,1,56.83,385.92ZM45.26,392.8a41.54,41.54,0,0,1,4.55,4.51,41.49,41.49,0,0,1-4.55,4.51,41.68,41.68,0,0,1-4.55-4.51A41.74,41.74,0,0,1,45.26,392.8Zm-2,10.59a41.12,41.12,0,0,1-9.55,5.31,41.1,41.1,0,0,1,5.42-9.4A44.51,44.51,0,0,0,43.23,403.4Zm8.18-4.09a41,41,0,0,1,5.42,9.4,41.09,41.09,0,0,1-9.55-5.31A43.92,43.92,0,0,0,51.41,399.3Zm1.67-2a43.56,43.56,0,0,0,6.85-12.49,40.49,40.49,0,0,1,21-.69A43.57,43.57,0,0,0,88,397.31a43.58,43.58,0,0,0-7.1,13.18,40.49,40.49,0,0,1-21-.7A43.64,43.64,0,0,0,53.08,397.31Zm26.17-33.69a41.26,41.26,0,0,0,.87,17.74,42.5,42.5,0,0,0-19.3.63,41.77,41.77,0,0,0,1-18.88A41.58,41.58,0,0,0,79.24,363.62Zm1.95,6.77a41.15,41.15,0,0,1,.69-7.31,43.44,43.44,0,0,0,15.18-6.91,43.48,43.48,0,0,0,15.18,6.91,40,40,0,0,1-1,19,43.5,43.5,0,0,0-14.17,6.64A43.5,43.5,0,0,0,82.9,382,41,41,0,0,1,81.19,370.39Zm-38-33a43.82,43.82,0,0,0-5.73,6,41,41,0,0,1-5.38-11.87A41,41,0,0,1,43.23,337.39Zm4,0a41.12,41.12,0,0,1,11.11-5.88A41,41,0,0,1,53,343.37,44.09,44.09,0,0,0,47.28,337.38Zm-2,1.58a41.14,41.14,0,0,1,6.19,6.55,41.49,41.49,0,0,1-6.19,6.55,41.57,41.57,0,0,1-6.19-6.55A41.23,41.23,0,0,1,45.26,339Zm-2,14.67a41,41,0,0,1-11.11,5.88,41,41,0,0,1,5.38-11.87A44.09,44.09,0,0,0,43.23,353.63Zm9.78-6a40.91,40.91,0,0,1,5.38,11.87,41,41,0,0,1-11.11-5.88A44.29,44.29,0,0,0,53,347.64Zm1.59-2.13a43.49,43.49,0,0,0,6.62-14.86A40.09,40.09,0,0,1,79.71,330a43.43,43.43,0,0,0,6.78,15.49A43.45,43.45,0,0,0,79.71,361a40.14,40.14,0,0,1-18.49-.63A43.42,43.42,0,0,0,54.6,345.51Zm25.51-35.86a41.35,41.35,0,0,0-.87,17.74,41.79,41.79,0,0,0-17.47.51,43.65,43.65,0,0,0,.66-7.28A43.38,43.38,0,0,0,60.81,309,42.5,42.5,0,0,0,80.12,309.64Zm1.08,11A40.94,40.94,0,0,1,82.9,309a43.49,43.49,0,0,0,14.17-6.64A43.47,43.47,0,0,0,111.23,309a40.09,40.09,0,0,1,1,19,43.47,43.47,0,0,0-15.18,6.9,43.43,43.43,0,0,0-15.18-6.9A41.16,41.16,0,0,1,81.19,320.62ZM39.1,291.71a41.14,41.14,0,0,1-5.42-9.41,41.09,41.09,0,0,1,9.55,5.31A44.23,44.23,0,0,0,39.1,291.71Zm17.73-9.41a41,41,0,0,1-5.42,9.4,44.49,44.49,0,0,0-4.13-4.09A41.07,41.07,0,0,1,56.83,282.3Zm-11.58,6.88a41.24,41.24,0,0,1,4.55,4.51,41.25,41.25,0,0,1-4.55,4.51,41.41,41.41,0,0,1-4.54-4.51A41.4,41.4,0,0,1,45.26,289.18Zm-2,10.59a41.15,41.15,0,0,1-9.55,5.31,41.12,41.12,0,0,1,5.42-9.4A43.45,43.45,0,0,0,43.23,299.77Zm8.18-4.09a41.37,41.37,0,0,1,5.42,9.4,41.15,41.15,0,0,1-9.55-5.31A43.69,43.69,0,0,0,51.41,295.68Zm1.67-2a43.61,43.61,0,0,0,6.85-12.48,40.43,40.43,0,0,1,21-.7A43.58,43.58,0,0,0,88,293.7a43.6,43.6,0,0,0-7.1,13.18,40.49,40.49,0,0,1-21-.7A43.61,43.61,0,0,0,53.08,293.7ZM79.24,260a41.37,41.37,0,0,0,.87,17.75,42.5,42.5,0,0,0-19.3.63,41.71,41.71,0,0,0,1-18.89A41.76,41.76,0,0,0,79.24,260Zm1.95,6.77a41.07,41.07,0,0,1,.69-7.32,43.46,43.46,0,0,0,15.18-6.9,43.43,43.43,0,0,0,15.18,6.9,40.11,40.11,0,0,1-1,19,43.48,43.48,0,0,0-14.17,6.64,43.5,43.5,0,0,0-14.17-6.64A40.94,40.94,0,0,1,81.19,266.77Zm-38-33a43.92,43.92,0,0,0-5.73,6,40.92,40.92,0,0,1-5.39-11.87A41,41,0,0,1,43.23,233.77Zm4.05,0a41,41,0,0,1,11.11-5.88A40.92,40.92,0,0,1,53,239.75,43.8,43.8,0,0,0,47.28,233.77Zm-2,1.57a41.52,41.52,0,0,1,6.19,6.55,41.49,41.49,0,0,1-6.19,6.55,41.57,41.57,0,0,1-6.19-6.55A41.61,41.61,0,0,1,45.26,235.34Zm-2,14.67a41,41,0,0,1-11.11,5.88A40.86,40.86,0,0,1,37.51,244,43.68,43.68,0,0,0,43.23,250ZM53,244a41,41,0,0,1,5.38,11.87A41,41,0,0,1,47.28,250,43.8,43.8,0,0,0,53,244Zm1.6-2.13A43.49,43.49,0,0,0,61.22,227a40.08,40.08,0,0,1,18.49-.64,43.4,43.4,0,0,0,6.78,15.49,43.52,43.52,0,0,0-6.78,15.49,40.14,40.14,0,0,1-18.49-.63A43.49,43.49,0,0,0,54.6,241.88ZM80.12,206a41.29,41.29,0,0,0-.88,17.75,41.78,41.78,0,0,0-17.47.51,41.77,41.77,0,0,0-1-18.89A42.35,42.35,0,0,0,80.12,206Zm1.07,11a41,41,0,0,1,1.71-11.66,43.4,43.4,0,0,0,14.17-6.64,43.48,43.48,0,0,0,14.16,6.64,40.1,40.1,0,0,1,1,19,43.45,43.45,0,0,0-15.18,6.9,43.47,43.47,0,0,0-15.18-6.9A40.92,40.92,0,0,1,81.19,217ZM39.11,188.09a41.13,41.13,0,0,1-5.43-9.4A41.25,41.25,0,0,1,43.23,184,44.21,44.21,0,0,0,39.11,188.09Zm17.72-9.4a41.17,41.17,0,0,1-5.42,9.4A43.68,43.68,0,0,0,47.28,184,41,41,0,0,1,56.83,178.69Zm-11.58,6.88a42,42,0,0,1,4.55,4.51,41.24,41.24,0,0,1-4.55,4.51,41.2,41.2,0,0,1-4.54-4.51A42,42,0,0,1,45.26,185.57Zm-2,10.58a41.09,41.09,0,0,1-9.55,5.31,41.22,41.22,0,0,1,5.43-9.4A43.69,43.69,0,0,0,43.23,196.15Zm8.17-4.09a41,41,0,0,1,5.42,9.4,41,41,0,0,1-9.55-5.31A43.92,43.92,0,0,0,51.41,192.06Zm1.67-2a43.59,43.59,0,0,0,6.85-12.48,40.45,40.45,0,0,1,21-.7A43.56,43.56,0,0,0,88,190.07a43.67,43.67,0,0,0-7.11,13.18,40.5,40.5,0,0,1-21-.69A43.61,43.61,0,0,0,53.07,190.07Zm26.17-33.69a41.31,41.31,0,0,0,.88,17.75,42.52,42.52,0,0,0-19.31.63,41.73,41.73,0,0,0,1-18.89A41.58,41.58,0,0,0,79.24,156.38Zm1.95,6.77a41,41,0,0,1,.69-7.31,43.48,43.48,0,0,0,15.18-6.91,43.45,43.45,0,0,0,15.18,6.91,41.35,41.35,0,0,1,.69,7.31,40.93,40.93,0,0,1-1.71,11.65,43.47,43.47,0,0,0-14.16,6.64A43.47,43.47,0,0,0,82.9,174.8,41,41,0,0,1,81.19,163.15Zm-38-33a43.79,43.79,0,0,0-5.73,6,41,41,0,0,1-5.39-11.87A41,41,0,0,1,43.23,130.14Zm4.05,0a41.07,41.07,0,0,1,11.11-5.88A41,41,0,0,1,53,136.13,44.22,44.22,0,0,0,47.28,130.14Zm-2,1.57a41.45,41.45,0,0,1,6.19,6.55,41.61,41.61,0,0,1-6.19,6.55,41.59,41.59,0,0,1-6.19-6.55A41.43,41.43,0,0,1,45.26,131.71Zm-2,14.67a41,41,0,0,1-11.11,5.88,41,41,0,0,1,5.39-11.87A44,44,0,0,0,43.23,146.38Zm9.78-6a41,41,0,0,1,5.38,11.87,41,41,0,0,1-11.11-5.88A44.07,44.07,0,0,0,53,140.39Zm1.59-2.13a43.45,43.45,0,0,0,6.62-14.86,40.09,40.09,0,0,1,18.49-.64,43.47,43.47,0,0,0,6.79,15.49,43.45,43.45,0,0,0-6.79,15.49,40.09,40.09,0,0,1-18.49-.64A43.39,43.39,0,0,0,54.6,138.26ZM80.12,102.4a41.33,41.33,0,0,0-.87,17.74,41.78,41.78,0,0,0-17.47.51,41.7,41.7,0,0,0-1-18.88A42.43,42.43,0,0,0,80.12,102.4Zm1.08,11a41,41,0,0,1,1.71-11.64,43.43,43.43,0,0,0,14.17-6.64,43.38,43.38,0,0,0,14.17,6.64,40.14,40.14,0,0,1,1,19,43.44,43.44,0,0,0-15.18,6.9,43.47,43.47,0,0,0-15.18-6.9A41,41,0,0,1,81.19,113.37Zm-38-33a44.27,44.27,0,0,0-4.13,4.1,41.14,41.14,0,0,1-5.42-9.41A41.08,41.08,0,0,1,43.23,80.37Zm4.05,0a41,41,0,0,1,9.55-5.31,41.11,41.11,0,0,1-5.42,9.4A44.49,44.49,0,0,0,47.28,80.37Zm-2,1.57a41.31,41.31,0,0,1,4.55,4.51A41.31,41.31,0,0,1,45.26,91a41.68,41.68,0,0,1-4.55-4.51A41.68,41.68,0,0,1,45.26,81.94Zm-2,10.59a41.07,41.07,0,0,1-9.56,5.31,41.16,41.16,0,0,1,5.43-9.41A44,44,0,0,0,43.23,92.53Zm8.18-4.1a41.15,41.15,0,0,1,5.42,9.41,41.13,41.13,0,0,1-9.55-5.31A44.26,44.26,0,0,0,51.41,88.43Zm1.67-2A43.63,43.63,0,0,0,59.92,74a40.49,40.49,0,0,1,21-.69A43.52,43.52,0,0,0,88,86.45a43.57,43.57,0,0,0-7.1,13.18,40.49,40.49,0,0,1-21-.69A43.63,43.63,0,0,0,53.08,86.45ZM79.24,52.76a41.35,41.35,0,0,0,.87,17.74,42.5,42.5,0,0,0-19.3.63,41.75,41.75,0,0,0,1-18.88,43.41,43.41,0,0,0,10,1.2A43.27,43.27,0,0,0,79.24,52.76Zm1.95,6.76a40.92,40.92,0,0,1,.69-7.3,43.48,43.48,0,0,0,15.18-6.91,43.46,43.46,0,0,0,15.18,6.91,40.09,40.09,0,0,1-1,19,43.47,43.47,0,0,0-14.16,6.64A43.51,43.51,0,0,0,82.9,71.17,41,41,0,0,1,81.19,59.52ZM97.07,42.16a41.38,41.38,0,0,1-7.42-7.52,41.41,41.41,0,0,1,7.42-7.52,41.56,41.56,0,0,1,7.42,7.52A41.53,41.53,0,0,1,97.07,42.16Zm9-5.39a40.89,40.89,0,0,1,5.59,12.69,41,41,0,0,1-12.46-5.72A44,44,0,0,0,106,36.77ZM95,43.74a41,41,0,0,1-12.47,5.72,41,41,0,0,1,5.6-12.69A43.89,43.89,0,0,0,95,43.74Zm53.91-2.54a41.55,41.55,0,0,1-6.2-6.55,41.36,41.36,0,0,1,6.2-6.55,41.39,41.39,0,0,1,6.2,6.55A41.58,41.58,0,0,1,148.87,41.19Zm7.76-4.42A40.94,40.94,0,0,1,162,48.64a41,41,0,0,1-11.12-5.88A43.9,43.9,0,0,0,156.63,36.77Zm-9.78,6a41,41,0,0,1-11.12,5.88,41,41,0,0,1,5.39-11.87A43.74,43.74,0,0,0,146.85,42.76Zm2,1.64a43.49,43.49,0,0,0,13.86,7.16,40.86,40.86,0,0,1-1.14,20.39,43.62,43.62,0,0,0-12.72,6.78,43.6,43.6,0,0,0-12.72-6.78A40.82,40.82,0,0,1,135,51.56,43.49,43.49,0,0,0,148.87,44.4Zm51.81-2.24a41.44,41.44,0,0,1-7.42-7.52,41.48,41.48,0,0,1,7.42-7.52,41.46,41.46,0,0,1,7.42,7.52A41.43,41.43,0,0,1,200.68,42.16Zm9-5.39a40.94,40.94,0,0,1,5.59,12.69,41,41,0,0,1-12.46-5.72A44.21,44.21,0,0,0,209.67,36.77Zm-11.09,7a40.87,40.87,0,0,1-12.46,5.71,41,41,0,0,1,5.6-12.68A44,44,0,0,0,198.58,43.74Zm2.11,1.58a43.46,43.46,0,0,0,15.18,6.91,40.09,40.09,0,0,1-1,19,43.47,43.47,0,0,0-14.16,6.64,43.5,43.5,0,0,0-14.17-6.64,40,40,0,0,1-1-19A43.39,43.39,0,0,0,200.69,45.31Zm51.81-4.12a41.54,41.54,0,0,1-6.2-6.55,41.38,41.38,0,0,1,6.2-6.55,41.56,41.56,0,0,1,6.19,6.55A41.72,41.72,0,0,1,252.5,41.19Zm7.75-4.42a40.92,40.92,0,0,1,5.38,11.87,41.06,41.06,0,0,1-11.11-5.88A44.23,44.23,0,0,0,260.25,36.77Zm-9.78,6a41,41,0,0,1-11.11,5.88,41,41,0,0,1,5.39-11.87A43.69,43.69,0,0,0,250.47,42.76Zm2,1.64a43.45,43.45,0,0,0,13.86,7.16,40.93,40.93,0,0,1-1.14,20.39,43.6,43.6,0,0,0-12.72,6.78A43.45,43.45,0,0,0,239.78,72a40.88,40.88,0,0,1-1.14-20.39A43.53,43.53,0,0,0,252.5,44.4Zm51.81-2.24a41.44,41.44,0,0,1-7.42-7.52,41.48,41.48,0,0,1,7.42-7.52,41.48,41.48,0,0,1,7.42,7.52A41.44,41.44,0,0,1,304.3,42.16Zm9-5.39a40.91,40.91,0,0,1,5.59,12.68,41,41,0,0,1-12.46-5.71A43.92,43.92,0,0,0,313.28,36.77Zm-11.09,7a41,41,0,0,1-12.47,5.72,41,41,0,0,1,5.6-12.69A43.88,43.88,0,0,0,302.2,43.74Zm2.11,1.58a43.37,43.37,0,0,0,15.18,6.9,40.1,40.1,0,0,1-1,19,43.49,43.49,0,0,0-14.16,6.64,43.49,43.49,0,0,0-14.17-6.64,40,40,0,0,1-1-19A43.49,43.49,0,0,0,304.3,45.31Zm51.81-4.12a41.52,41.52,0,0,1-6.2-6.55,41.36,41.36,0,0,1,6.2-6.55,41.45,41.45,0,0,1,6.2,6.55A41.61,41.61,0,0,1,356.12,41.19Zm7.75-4.42a41,41,0,0,1,5.39,11.87,41,41,0,0,1-11.12-5.88A44.26,44.26,0,0,0,363.87,36.77Zm-9.78,6A41,41,0,0,1,343,48.64a41.06,41.06,0,0,1,5.39-11.87A44,44,0,0,0,354.09,42.76Zm2,1.64A43.46,43.46,0,0,0,370,51.56a40.88,40.88,0,0,1-1.14,20.39,43.58,43.58,0,0,0-12.72,6.78,43.6,43.6,0,0,0-12.72-6.78,40.85,40.85,0,0,1-1.14-20.39A43.45,43.45,0,0,0,356.12,44.4Zm51.81-2.24a41.39,41.39,0,0,1-7.42-7.52,41.42,41.42,0,0,1,7.42-7.52,41.42,41.42,0,0,1,7.42,7.52A41.39,41.39,0,0,1,407.92,42.16Zm9-5.39a41,41,0,0,1,5.59,12.69A41,41,0,0,1,410,43.74,43.72,43.72,0,0,0,416.9,36.77Zm-11.08,7a41.06,41.06,0,0,1-12.47,5.72,41,41,0,0,1,5.6-12.69A43.64,43.64,0,0,0,405.82,43.74Zm2.11,1.58a43.56,43.56,0,0,0,15.18,6.9,40.05,40.05,0,0,1-1,19,43.49,43.49,0,0,0-14.17,6.64,43.48,43.48,0,0,0-14.17-6.64,40.05,40.05,0,0,1-1-19A43.47,43.47,0,0,0,407.92,45.32ZM424.87,70.5a41.25,41.25,0,0,0,.87-17.74,41.58,41.58,0,0,0,17.47-.51,41.81,41.81,0,0,0,1,18.88A42.52,42.52,0,0,0,424.87,70.5Zm27,15.95a43.57,43.57,0,0,0-6.85,12.49,40.5,40.5,0,0,1-21,.69A43.66,43.66,0,0,0,417,86.45a43.71,43.71,0,0,0,7.1-13.18,40.49,40.49,0,0,1,21,.69A43.63,43.63,0,0,0,451.91,86.45Zm-3.76-11.39a41.12,41.12,0,0,1,9.56,5.31,44.09,44.09,0,0,0-4.13,4.1A41.07,41.07,0,0,1,448.16,75.06Zm5.42,13.38a44,44,0,0,0,4.13,4.1,41.12,41.12,0,0,1-9.56,5.31A41.14,41.14,0,0,1,453.58,88.43Zm-27.84,31.71a41.24,41.24,0,0,0-.87-17.74,42.44,42.44,0,0,0,19.3-.63,41.78,41.78,0,0,0-1,18.88A41.79,41.79,0,0,0,425.74,120.14Zm-1.95-6.77a41,41,0,0,1-.69,7.31,43.48,43.48,0,0,0-15.18,6.9,43.37,43.37,0,0,0-15.18-6.9,40.06,40.06,0,0,1,1-19,43.48,43.48,0,0,0,14.17-6.64,43.49,43.49,0,0,0,14.17,6.64A41,41,0,0,1,423.8,113.37Zm26.59,24.89a43.43,43.43,0,0,0-6.62,14.85,40.1,40.1,0,0,1-18.49.64,43.4,43.4,0,0,0-6.78-15.49,43.42,43.42,0,0,0,6.78-15.49,40.1,40.1,0,0,1,18.49.64A43.46,43.46,0,0,0,450.39,138.26Zm-3.79-14a41.17,41.17,0,0,1,11.11,5.88,44.11,44.11,0,0,0-5.73,6A40.91,40.91,0,0,1,446.6,124.26ZM452,140.39a44.09,44.09,0,0,0,5.73,6,41.15,41.15,0,0,1-11.11,5.88A40.93,40.93,0,0,1,452,140.39Zm-27.11,33.74a41.29,41.29,0,0,0,.87-17.75,41.6,41.6,0,0,0,17.48-.51,41.79,41.79,0,0,0,1,18.89A42.52,42.52,0,0,0,424.87,174.13Zm-1.07-11a40.93,40.93,0,0,1-1.71,11.65,43.48,43.48,0,0,0-14.16,6.64,43.48,43.48,0,0,0-14.16-6.64,40.06,40.06,0,0,1-1-19,43.45,43.45,0,0,0,15.18-6.9,43.56,43.56,0,0,0,15.18,6.9A41,41,0,0,1,423.8,163.15Zm28.12,26.93a43.6,43.6,0,0,0-6.85,12.48,40.52,40.52,0,0,1-21,.69,43.61,43.61,0,0,0-7.1-13.18,43.56,43.56,0,0,0,7.1-13.18,40.47,40.47,0,0,1,21,.7A43.58,43.58,0,0,0,451.92,190.07Zm-3.76-11.39a41.08,41.08,0,0,1,9.56,5.31,44.52,44.52,0,0,0-4.13,4.09A41.11,41.11,0,0,1,448.16,178.69Zm5.43,13.37a44,44,0,0,0,4.13,4.09,41.09,41.09,0,0,1-9.56,5.31A41.29,41.29,0,0,1,453.58,192.06Zm-27.84,31.71a41.27,41.27,0,0,0-.87-17.75,42.35,42.35,0,0,0,19.31-.63,41.83,41.83,0,0,0-1,18.89A41.79,41.79,0,0,0,425.74,223.76ZM423.8,217a40.92,40.92,0,0,1-.69,7.3,43.47,43.47,0,0,0-15.18,6.9,43.39,43.39,0,0,0-15.18-6.9,40.06,40.06,0,0,1,1-19,43.48,43.48,0,0,0,14.16-6.64,43.49,43.49,0,0,0,14.16,6.64A41,41,0,0,1,423.8,217Zm26.59,24.88a43.49,43.49,0,0,0-6.62,14.86,40.15,40.15,0,0,1-18.49.63,43.44,43.44,0,0,0-6.78-15.49,43.42,43.42,0,0,0,6.78-15.49,40.09,40.09,0,0,1,18.49.64A43.46,43.46,0,0,0,450.39,241.88Zm-3.79-14a41,41,0,0,1,11.11,5.88,43.8,43.8,0,0,0-5.73,6A41,41,0,0,1,446.6,227.88ZM452,244a43.82,43.82,0,0,0,5.73,6,41,41,0,0,1-11.11,5.88A40.9,40.9,0,0,1,452,244Zm-27.11,33.73a41.28,41.28,0,0,0,.87-17.75,41.78,41.78,0,0,0,17.48-.51,41.8,41.8,0,0,0,1,18.89A42.51,42.51,0,0,0,424.87,277.75Zm-1.07-11a41,41,0,0,1-1.7,11.64,43.51,43.51,0,0,0-14.17,6.64,43.39,43.39,0,0,0-14.17-6.64,40.07,40.07,0,0,1-1-19,43.52,43.52,0,0,0,15.18-6.9,43.46,43.46,0,0,0,15.18,6.9A41.23,41.23,0,0,1,423.8,266.77Zm28.12,26.92a43.67,43.67,0,0,0-6.85,12.48,40.5,40.5,0,0,1-21,.7A43.68,43.68,0,0,0,417,293.7a43.61,43.61,0,0,0,7.1-13.18,40.49,40.49,0,0,1,21,.69A43.58,43.58,0,0,0,451.91,293.7Zm-3.76-11.39a41.09,41.09,0,0,1,9.55,5.31,44,44,0,0,0-4.13,4.1A41.08,41.08,0,0,1,448.16,282.3Zm5.42,13.38a43.69,43.69,0,0,0,4.13,4.09,40.93,40.93,0,0,1-9.55,5.31A41.2,41.2,0,0,1,453.58,295.68Zm-27.84,31.71a41.25,41.25,0,0,0-.87-17.74,42.52,42.52,0,0,0,19.31-.63,41.75,41.75,0,0,0-1,18.88A41.8,41.8,0,0,0,425.74,327.39Zm-1.95-6.76a41,41,0,0,1-.69,7.31,43.47,43.47,0,0,0-15.18,6.9,43.37,43.37,0,0,0-15.18-6.9,40.07,40.07,0,0,1,1-19,43.47,43.47,0,0,0,14.17-6.64A43.47,43.47,0,0,0,422.09,309,41,41,0,0,1,423.8,320.62Zm26.59,24.89a43.39,43.39,0,0,0-6.62,14.86,40.15,40.15,0,0,1-18.49.63,43.4,43.4,0,0,0-6.78-15.49A43.39,43.39,0,0,0,425.28,330a40.1,40.1,0,0,1,18.49.64A43.46,43.46,0,0,0,450.39,345.51Zm-3.79-14a41.12,41.12,0,0,1,11.11,5.88,44.09,44.09,0,0,0-5.73,6A40.92,40.92,0,0,1,446.6,331.51ZM452,347.63a44.09,44.09,0,0,0,5.73,6,41,41,0,0,1-11.11,5.88A40.93,40.93,0,0,1,452,347.63Zm-27.11,33.73a41.26,41.26,0,0,0,.87-17.74,41.59,41.59,0,0,0,17.48-.51,41.78,41.78,0,0,0,1,18.88A42.51,42.51,0,0,0,424.87,381.37Zm-1.07-11a41,41,0,0,1-1.7,11.64,43.51,43.51,0,0,0-14.17,6.64A43.38,43.38,0,0,0,393.76,382a40.06,40.06,0,0,1-1-19,43.45,43.45,0,0,0,15.18-6.9,43.56,43.56,0,0,0,15.18,6.9A41,41,0,0,1,423.8,370.39Zm28.12,26.92a43.64,43.64,0,0,0-6.85,12.49,40.5,40.5,0,0,1-21,.7,43.71,43.71,0,0,0-7.1-13.18,43.55,43.55,0,0,0,7.1-13.18,40.5,40.5,0,0,1,21,.69A43.63,43.63,0,0,0,451.91,397.31Zm-3.76-11.39a41.14,41.14,0,0,1,9.56,5.31,44,44,0,0,0-4.13,4.1A41.13,41.13,0,0,1,448.16,385.92Zm5.42,13.38a44.51,44.51,0,0,0,4.13,4.09,41,41,0,0,1-9.55,5.31A41.1,41.1,0,0,1,453.58,399.3Zm-363.89-4a41,41,0,0,1-5.8-10.43A41,41,0,0,1,95,390.25,44,44,0,0,0,89.69,395.33Zm20.56-10.43a41,41,0,0,1-5.8,10.43,44.31,44.31,0,0,0-5.27-5.08A41,41,0,0,1,110.24,384.9Zm-13.18,6.93a41.67,41.67,0,0,1,5.77,5.48,41.4,41.4,0,0,1-5.77,5.48,41.42,41.42,0,0,1-5.77-5.48A41.69,41.69,0,0,1,97.06,391.83ZM95,404.37a41,41,0,0,1-11.07,5.36,41.1,41.1,0,0,1,5.8-10.43A43.91,43.91,0,0,0,95,404.37Zm9.48-5.07a41,41,0,0,1,5.8,10.43,41,41,0,0,1-11.07-5.36A44,44,0,0,0,104.44,399.3Zm1.67-2a43.61,43.61,0,0,0,7.1-13.18,40.47,40.47,0,0,1,21,.69A43.58,43.58,0,0,0,141,397.31a43.54,43.54,0,0,0-6.85,12.49,40.48,40.48,0,0,1-21,.7A43.62,43.62,0,0,0,106.11,397.31Zm7.9-15.95a41.26,41.26,0,0,0,.87-17.74,41.56,41.56,0,0,0,17.47-.51,41.78,41.78,0,0,0,1,18.88A42.48,42.48,0,0,0,114,381.37Zm20.21-11a41.37,41.37,0,0,1,.79-8,43.45,43.45,0,0,0,13.86-7.16,43.46,43.46,0,0,0,13.86,7.16,40.85,40.85,0,0,1-1.14,20.39,43.59,43.59,0,0,0-12.72,6.78,43.59,43.59,0,0,0-12.72-6.78A41,41,0,0,1,134.22,370.39Zm-46.14-27a41,41,0,0,1-5.59-12.68A40.92,40.92,0,0,1,95,336.41,44.2,44.2,0,0,0,88.09,343.37Zm23.55-12.68A40.87,40.87,0,0,1,106,343.37a44.18,44.18,0,0,0-6.87-7A40.91,40.91,0,0,1,111.64,330.69ZM97.06,338a41.4,41.4,0,0,1,7.42,7.52A41.4,41.4,0,0,1,97.06,353a41.45,41.45,0,0,1-7.42-7.52A41.46,41.46,0,0,1,97.06,338ZM95,354.6a41,41,0,0,1-12.47,5.72,41.05,41.05,0,0,1,5.59-12.69A43.85,43.85,0,0,0,95,354.6Zm11.08-7a40.94,40.94,0,0,1,5.59,12.69,41,41,0,0,1-12.46-5.72A43.84,43.84,0,0,0,106,347.63Zm1.59-2.13A43.43,43.43,0,0,0,114.42,330a40.07,40.07,0,0,1,18.48.64,43.51,43.51,0,0,0,6.62,14.86,43.5,43.5,0,0,0-6.62,14.86,40.13,40.13,0,0,1-18.48.63A43.44,43.44,0,0,0,107.63,345.51Zm7.25-18.12a41.26,41.26,0,0,0-.87-17.74,42.48,42.48,0,0,0,19.3-.63,41.87,41.87,0,0,0-1,18.88A41.77,41.77,0,0,0,114.88,327.39Zm19.34-6.76a40.94,40.94,0,0,1,1.93-12.43,43.63,43.63,0,0,0,12.72-6.78,43.61,43.61,0,0,0,12.72,6.78,40.85,40.85,0,0,1,1.14,20.39,43.57,43.57,0,0,0-13.86,7.16A43.56,43.56,0,0,0,135,328.58,41.35,41.35,0,0,1,134.22,320.62ZM89.69,291.71a41.2,41.2,0,0,1-5.8-10.43A41,41,0,0,1,95,286.64,44,44,0,0,0,89.69,291.71Zm20.56-10.43a41.14,41.14,0,0,1-5.8,10.43,43.8,43.8,0,0,0-5.27-5.08A41,41,0,0,1,110.24,281.28Zm-13.18,6.93a41.4,41.4,0,0,1,5.77,5.48,41.36,41.36,0,0,1-5.77,5.48,41.38,41.38,0,0,1-5.77-5.48A41.42,41.42,0,0,1,97.07,288.21ZM95,300.75a41,41,0,0,1-11.07,5.35,41.1,41.1,0,0,1,5.8-10.43A44.08,44.08,0,0,0,95,300.75Zm9.49-5.08a41.11,41.11,0,0,1,5.8,10.43,41,41,0,0,1-11.07-5.35A44.27,44.27,0,0,0,104.44,295.68Zm1.67-2a43.62,43.62,0,0,0,7.1-13.18,40.45,40.45,0,0,1,21,.69A43.65,43.65,0,0,0,141,293.7a43.61,43.61,0,0,0-6.85,12.48,40.49,40.49,0,0,1-21,.7A43.64,43.64,0,0,0,106.11,293.7Zm7.9-15.95a41.28,41.28,0,0,0,.87-17.75,41.74,41.74,0,0,0,17.47-.51,41.89,41.89,0,0,0,1,18.89A42.48,42.48,0,0,0,114,277.75Zm20.21-11a41.26,41.26,0,0,1,.79-8,43.44,43.44,0,0,0,13.86-7.16,43.58,43.58,0,0,0,13.86,7.16,40.86,40.86,0,0,1-1.14,20.39A43.5,43.5,0,0,0,148.87,286a43.51,43.51,0,0,0-12.72-6.78A41,41,0,0,1,134.22,266.77Zm-46.14-27a40.93,40.93,0,0,1-5.6-12.68A41,41,0,0,1,95,232.78,44.16,44.16,0,0,0,88.09,239.75Zm23.55-12.68A40.82,40.82,0,0,1,106,239.75a44.11,44.11,0,0,0-6.87-7A41.13,41.13,0,0,1,111.64,227.07Zm-14.57,7.29a41.53,41.53,0,0,1,7.42,7.52,41.53,41.53,0,0,1-7.42,7.52,41.39,41.39,0,0,1-7.42-7.52A41.39,41.39,0,0,1,97.07,234.36ZM95,251a41,41,0,0,1-12.46,5.71A40.89,40.89,0,0,1,88.09,244,44.16,44.16,0,0,0,95,251Zm4.22,0a44.1,44.1,0,0,0,6.87-7,41.05,41.05,0,0,1,5.59,12.68A40.89,40.89,0,0,1,99.17,251Zm8.47-9.1a43.43,43.43,0,0,0,6.78-15.49,40.07,40.07,0,0,1,18.48.64,43.46,43.46,0,0,0,6.62,14.86,43.49,43.49,0,0,0-6.62,14.86,40.13,40.13,0,0,1-18.49.63A43.48,43.48,0,0,0,107.64,241.88Zm7.25-18.12A41.28,41.28,0,0,0,114,206a42.41,42.41,0,0,0,19.3-.62,41.81,41.81,0,0,0-1,18.88A41.77,41.77,0,0,0,114.88,223.76ZM134.22,217a41,41,0,0,1,1.93-12.43,43.58,43.58,0,0,0,12.72-6.78,43.59,43.59,0,0,0,12.72,6.78A40.87,40.87,0,0,1,162.73,225a43.6,43.6,0,0,0-13.86,7.16A43.59,43.59,0,0,0,135,225,41.12,41.12,0,0,1,134.22,217ZM89.69,188.09a41.15,41.15,0,0,1-5.8-10.42A41,41,0,0,1,95,183,44.21,44.21,0,0,0,89.69,188.09Zm20.55-10.42a41.14,41.14,0,0,1-5.8,10.42A44.05,44.05,0,0,0,99.17,183,41,41,0,0,1,110.24,177.66Zm-13.18,6.93a41.86,41.86,0,0,1,5.77,5.48,41.35,41.35,0,0,1-5.77,5.48,41,41,0,0,1-5.77-5.48A41.5,41.5,0,0,1,97.07,184.59ZM95,197.13a41,41,0,0,1-11.07,5.36,41,41,0,0,1,5.8-10.43A43.76,43.76,0,0,0,95,197.13Zm9.48-5.07a41.17,41.17,0,0,1,5.8,10.43,41,41,0,0,1-11.07-5.36A43.89,43.89,0,0,0,104.44,192.06Zm1.67-2a43.58,43.58,0,0,0,7.1-13.18,40.5,40.5,0,0,1,21,.69,43.56,43.56,0,0,0,6.85,12.48,43.62,43.62,0,0,0-6.85,12.48,40.49,40.49,0,0,1-21,.69A43.69,43.69,0,0,0,106.11,190.07Zm7.9-15.94a41.3,41.3,0,0,0,.87-17.75,41.56,41.56,0,0,0,17.47-.51,41.85,41.85,0,0,0,1,18.89A42.5,42.5,0,0,0,114,174.13Zm20.21-11a41.18,41.18,0,0,1,.79-8A43.47,43.47,0,0,0,148.87,148a43.51,43.51,0,0,0,13.86,7.16,40.85,40.85,0,0,1-1.14,20.4,43.63,43.63,0,0,0-12.72,6.78,43.59,43.59,0,0,0-12.72-6.78A40.93,40.93,0,0,1,134.22,163.15Zm-46.14-27a40.92,40.92,0,0,1-5.59-12.68A40.91,40.91,0,0,1,95,129.16,43.9,43.9,0,0,0,88.09,136.13Zm23.55-12.68A41,41,0,0,1,106,136.13a44.4,44.4,0,0,0-6.87-7A40.88,40.88,0,0,1,111.64,123.45Zm-14.57,7.29a41.53,41.53,0,0,1,7.42,7.52,41.52,41.52,0,0,1-7.42,7.52,41.38,41.38,0,0,1-7.42-7.52A41.39,41.39,0,0,1,97.07,130.74ZM95,147.36a40.87,40.87,0,0,1-12.46,5.71,41,41,0,0,1,5.59-12.68A44,44,0,0,0,95,147.36Zm11.09-7a41,41,0,0,1,5.59,12.68,40.88,40.88,0,0,1-12.46-5.71A44,44,0,0,0,106,140.39Zm1.59-2.13a43.46,43.46,0,0,0,6.78-15.49,40.08,40.08,0,0,1,18.49.64,43.46,43.46,0,0,0,6.62,14.86,43.39,43.39,0,0,0-6.62,14.86,40.15,40.15,0,0,1-18.49.63A43.44,43.44,0,0,0,107.64,138.26Zm7.25-18.12A41.24,41.24,0,0,0,114,102.4a42.48,42.48,0,0,0,19.3-.63,41.86,41.86,0,0,0-1,18.88A41.75,41.75,0,0,0,114.88,120.14Zm19.34-6.77A41,41,0,0,1,136.15,101a43.6,43.6,0,0,0,12.72-6.78A43.58,43.58,0,0,0,161.6,101a40.86,40.86,0,0,1,1.13,20.38,43.6,43.6,0,0,0-13.86,7.16A43.56,43.56,0,0,0,135,121.34,41.19,41.19,0,0,1,134.22,113.37ZM89.69,84.47A41.26,41.26,0,0,1,83.89,74,41,41,0,0,1,95,79.39,44,44,0,0,0,89.69,84.47ZM110.24,74a41.13,41.13,0,0,1-5.8,10.43,43.78,43.78,0,0,0-5.27-5.08A41,41,0,0,1,110.24,74ZM97.07,81a41.28,41.28,0,0,1,5.77,5.48,41.29,41.29,0,0,1-5.77,5.48,41.57,41.57,0,0,1-5.77-5.48A41.56,41.56,0,0,1,97.07,81ZM95,93.51a41,41,0,0,1-11.07,5.36,41.07,41.07,0,0,1,5.8-10.43A43.76,43.76,0,0,0,95,93.51Zm9.49-5.08a41.15,41.15,0,0,1,5.8,10.43,41,41,0,0,1-11.08-5.36A44.27,44.27,0,0,0,104.44,88.43Zm1.66-2a43.63,43.63,0,0,0,7.11-13.18,40.47,40.47,0,0,1,21,.69A43.59,43.59,0,0,0,141,86.45a43.64,43.64,0,0,0-6.85,12.49,40.46,40.46,0,0,1-21,.69A43.63,43.63,0,0,0,106.11,86.45Zm309.2,2a41.2,41.2,0,0,1,5.8,10.43A41,41,0,0,1,410,93.51,43.63,43.63,0,0,0,415.31,88.43ZM394.74,98.87a41.22,41.22,0,0,1,5.8-10.43,44,44,0,0,0,5.27,5.08A41,41,0,0,1,394.74,98.87Zm13.18-6.93a41.45,41.45,0,0,1-5.77-5.48A41.45,41.45,0,0,1,407.92,81a41.42,41.42,0,0,1,5.77,5.48A41.42,41.42,0,0,1,407.92,91.93ZM410,79.39A41,41,0,0,1,421.11,74a41.2,41.2,0,0,1-5.8,10.43A44,44,0,0,0,410,79.39Zm-9.48,5.08A41.23,41.23,0,0,1,394.74,74a41,41,0,0,1,11.08,5.36A44,44,0,0,0,400.55,84.47Zm-1.67,2a43.57,43.57,0,0,0-7.1,13.18,40.47,40.47,0,0,1-21-.69,43.62,43.62,0,0,0-6.85-12.49A43.62,43.62,0,0,0,370.79,74a40.54,40.54,0,0,1,21-.7A43.54,43.54,0,0,0,398.88,86.45Zm-7.9,16a41.35,41.35,0,0,0-.87,17.74,41.75,41.75,0,0,0-17.47.51,41.71,41.71,0,0,0-1-18.88A42.41,42.41,0,0,0,391,102.4Zm-20.21,11a41.17,41.17,0,0,1-.79,8,43.55,43.55,0,0,0-13.86,7.16,43.54,43.54,0,0,0-13.86-7.16,40.88,40.88,0,0,1,1.14-20.39,43.49,43.49,0,0,0,12.72-6.78,43.49,43.49,0,0,0,12.72,6.78A41,41,0,0,1,370.76,113.37Zm46.14,27a40.92,40.92,0,0,1,5.59,12.68A40.89,40.89,0,0,1,410,147.36,43.72,43.72,0,0,0,416.9,140.39Zm-23.55,12.68a40.91,40.91,0,0,1,5.59-12.68,43.72,43.72,0,0,0,6.87,7A40.9,40.9,0,0,1,393.36,153.07Zm14.57-7.29a41.46,41.46,0,0,1-7.42-7.52,41.48,41.48,0,0,1,7.42-7.52,41.4,41.4,0,0,1,7.42,7.52A41.39,41.39,0,0,1,407.92,145.78ZM410,129.16a40.89,40.89,0,0,1,12.46-5.71,40.88,40.88,0,0,1-5.59,12.68A43.91,43.91,0,0,0,410,129.16Zm-11.09,7a40.86,40.86,0,0,1-5.59-12.68,40.94,40.94,0,0,1,12.46,5.71A43.92,43.92,0,0,0,398.95,136.13Zm-1.59,2.13a43.48,43.48,0,0,0-6.79,15.49,40.07,40.07,0,0,1-18.48-.64,43.49,43.49,0,0,0-6.62-14.85,43.55,43.55,0,0,0,6.62-14.86,40.07,40.07,0,0,1,18.48-.64A43.47,43.47,0,0,0,397.35,138.26Zm-7.25,18.12a41.31,41.31,0,0,0,.88,17.75,42.5,42.5,0,0,0-19.3.63,41.75,41.75,0,0,0,1-18.89A41.68,41.68,0,0,0,390.1,156.38Zm-19.34,6.76a40.92,40.92,0,0,1-1.93,12.43,43.59,43.59,0,0,0-12.72,6.78,43.59,43.59,0,0,0-12.72-6.78,40.86,40.86,0,0,1-1.14-20.4A43.45,43.45,0,0,0,356.12,148,43.55,43.55,0,0,0,370,155.18,41.16,41.16,0,0,1,370.76,163.15Zm44.54,28.91a41.11,41.11,0,0,1,5.8,10.43A41.15,41.15,0,0,1,410,197.13,44.15,44.15,0,0,0,415.3,192.06Zm-20.55,10.43a41,41,0,0,1,5.8-10.43,44.1,44.1,0,0,0,5.27,5.08A41,41,0,0,1,394.75,202.49Zm13.18-6.93a41.43,41.43,0,0,1-5.77-5.48,41.65,41.65,0,0,1,5.77-5.48,41.62,41.62,0,0,1,5.77,5.48A41.4,41.4,0,0,1,407.92,195.56ZM410,183a41,41,0,0,1,11.07-5.35,41.08,41.08,0,0,1-5.8,10.42A44.08,44.08,0,0,0,410,183Zm-9.48,5.07a41,41,0,0,1-5.8-10.43A41,41,0,0,1,405.82,183,44,44,0,0,0,400.55,188.09Zm-1.67,2a43.63,43.63,0,0,0-7.11,13.18,40.57,40.57,0,0,1-21-.7,43.66,43.66,0,0,0-6.85-12.48,43.59,43.59,0,0,0,6.85-12.48,40.44,40.44,0,0,1,21-.7A43.6,43.6,0,0,0,398.88,190.07ZM391,206a41.32,41.32,0,0,0-.88,17.74,41.76,41.76,0,0,0-17.47.51,41.77,41.77,0,0,0-1-18.89A42.42,42.42,0,0,0,391,206Zm-20.21,11a41.1,41.1,0,0,1-.79,8,43.56,43.56,0,0,0-13.86,7.16A43.55,43.55,0,0,0,342.26,225a40.84,40.84,0,0,1,1.14-20.39,43.57,43.57,0,0,0,12.72-6.78,43.57,43.57,0,0,0,12.72,6.78A41,41,0,0,1,370.76,217Zm46.14,27a41,41,0,0,1,5.59,12.68A41,41,0,0,1,410,251,44.16,44.16,0,0,0,416.9,244ZM393.36,256.7A40.92,40.92,0,0,1,398.95,244a43.92,43.92,0,0,0,6.87,7A41.1,41.1,0,0,1,393.36,256.7Zm14.57-7.29a41.47,41.47,0,0,1-7.42-7.52,41.48,41.48,0,0,1,7.42-7.52,41.46,41.46,0,0,1,7.42,7.52A41.45,41.45,0,0,1,407.92,249.4ZM410,232.78a40.9,40.9,0,0,1,12.46-5.71,40.88,40.88,0,0,1-5.59,12.68A44.16,44.16,0,0,0,410,232.78Zm-11.09,7a40.92,40.92,0,0,1-5.59-12.68,40.93,40.93,0,0,1,12.46,5.71A44.09,44.09,0,0,0,398.95,239.75Zm-1.6,2.13a43.5,43.5,0,0,0-6.78,15.49,40.22,40.22,0,0,1-18.49-.64,43.49,43.49,0,0,0-6.62-14.86A43.45,43.45,0,0,0,372.09,227a40.06,40.06,0,0,1,18.48-.64A43.39,43.39,0,0,0,397.35,241.88ZM390.1,260a41.36,41.36,0,0,0,.87,17.74,44,44,0,0,0-8.34-.82,43.46,43.46,0,0,0-11,1.45,41.73,41.73,0,0,0,1-18.89A41.74,41.74,0,0,0,390.1,260Zm-19.34,6.77a41,41,0,0,1-1.93,12.42A43.61,43.61,0,0,0,356.12,286a43.5,43.5,0,0,0-12.72-6.78,40.89,40.89,0,0,1-1.14-20.39,43.54,43.54,0,0,0,13.86-7.16A43.55,43.55,0,0,0,370,258.8,41.24,41.24,0,0,1,370.76,266.77Zm44.54,28.91a41.11,41.11,0,0,1,5.8,10.43A40.93,40.93,0,0,1,410,300.75,43.92,43.92,0,0,0,415.31,295.68Zm-20.56,10.43a41.19,41.19,0,0,1,5.8-10.43,43.8,43.8,0,0,0,5.27,5.08A41,41,0,0,1,394.74,306.11Zm13.18-6.93a41.71,41.71,0,0,1-5.77-5.48,41.44,41.44,0,0,1,5.77-5.48,41.4,41.4,0,0,1,5.77,5.48A41.68,41.68,0,0,1,407.92,299.18ZM410,286.64a41,41,0,0,1,11.07-5.36,41.2,41.2,0,0,1-5.8,10.43A44,44,0,0,0,410,286.64Zm-9.49,5.08a41.24,41.24,0,0,1-5.8-10.43,41,41,0,0,1,11.08,5.36A43.85,43.85,0,0,0,400.55,291.71Zm-1.67,2a43.51,43.51,0,0,0-7.1,13.18,40.55,40.55,0,0,1-21-.7,43.66,43.66,0,0,0-6.85-12.48,43.57,43.57,0,0,0,6.85-12.49,40.46,40.46,0,0,1,21-.69A43.58,43.58,0,0,0,398.88,293.7ZM391,309.64a41.36,41.36,0,0,0-.87,17.74,41.77,41.77,0,0,0-17.47.51,41.71,41.71,0,0,0-1-18.88A42.48,42.48,0,0,0,391,309.64Zm-20.21,11a41.15,41.15,0,0,1-.79,8,43.56,43.56,0,0,0-13.86,7.16,43.55,43.55,0,0,0-13.86-7.16,40.87,40.87,0,0,1,1.14-20.39,43.58,43.58,0,0,0,12.72-6.78,43.58,43.58,0,0,0,12.72,6.78A41,41,0,0,1,370.76,320.62Zm46.14,27a40.9,40.9,0,0,1,5.59,12.69A41,41,0,0,1,410,354.6,43.75,43.75,0,0,0,416.9,347.63Zm-23.55,12.69a41,41,0,0,1,5.59-12.69,43.66,43.66,0,0,0,6.87,7A41,41,0,0,1,393.35,360.32ZM407.92,353a41.4,41.4,0,0,1-7.42-7.52,41.4,41.4,0,0,1,7.42-7.52,41.4,41.4,0,0,1,7.42,7.52A41.4,41.4,0,0,1,407.92,353ZM410,336.41a40.91,40.91,0,0,1,12.46-5.71,40.88,40.88,0,0,1-5.59,12.68A43.92,43.92,0,0,0,410,336.41Zm-11.09,7a40.92,40.92,0,0,1-5.59-12.68,41,41,0,0,1,12.47,5.71A43.83,43.83,0,0,0,398.95,343.37Zm-1.59,2.13A43.47,43.47,0,0,0,390.57,361a40.21,40.21,0,0,1-18.48-.64,43.47,43.47,0,0,0-6.62-14.86,43.55,43.55,0,0,0,6.62-14.86,40.07,40.07,0,0,1,18.48-.64A43.47,43.47,0,0,0,397.35,345.51Zm-7.25,18.12a41.34,41.34,0,0,0,.87,17.74,42.48,42.48,0,0,0-19.3.63,41.71,41.71,0,0,0,1-18.88A41.68,41.68,0,0,0,390.1,363.63Zm-19.34,6.76a40.94,40.94,0,0,1-1.93,12.42,43.6,43.6,0,0,0-12.72,6.78,43.6,43.6,0,0,0-12.72-6.78,40.87,40.87,0,0,1-1.14-20.39,43.45,43.45,0,0,0,13.86-7.16A43.55,43.55,0,0,0,370,362.43,41.16,41.16,0,0,1,370.76,370.39ZM356.12,392.8a41.73,41.73,0,0,1,4.55,4.51,41.66,41.66,0,0,1-4.55,4.52,41.27,41.27,0,0,1-4.55-4.52A41.33,41.33,0,0,1,356.12,392.8ZM350,395.33a41,41,0,0,1-5.43-9.41,41.14,41.14,0,0,1,9.56,5.31A44.12,44.12,0,0,0,350,395.33Zm8.18-4.1a41.1,41.1,0,0,1,9.56-5.31,41.23,41.23,0,0,1-5.43,9.41A44.42,44.42,0,0,0,358.14,391.23Zm-53.84.6a41.55,41.55,0,0,1,5.77,5.48,41.28,41.28,0,0,1-5.77,5.48,41.29,41.29,0,0,1-5.77-5.48A41.56,41.56,0,0,1,304.3,391.83Zm-7.38,3.5a41.21,41.21,0,0,1-5.8-10.43,41,41,0,0,1,11.08,5.36A44.14,44.14,0,0,0,296.92,395.33Zm9.49-5.08a41.15,41.15,0,0,1,11.07-5.36,41,41,0,0,1-5.8,10.43A44.11,44.11,0,0,0,306.41,390.25Zm-2.11-1.58A43.51,43.51,0,0,0,290.14,382a40,40,0,0,1-1-19,43.49,43.49,0,0,0,15.18-6.91,43.34,43.34,0,0,0,15.18,6.9,41.45,41.45,0,0,1,.69,7.31,41,41,0,0,1-1.7,11.64A43.48,43.48,0,0,0,304.3,388.68ZM252.5,392.8a41.31,41.31,0,0,1,4.55,4.51,41.26,41.26,0,0,1-4.55,4.51,41.67,41.67,0,0,1-4.55-4.51A41.73,41.73,0,0,1,252.5,392.8Zm-6.15,2.53a41,41,0,0,1-5.42-9.41,41.13,41.13,0,0,1,9.55,5.31A44.09,44.09,0,0,0,246.34,395.33Zm8.18-4.1a41.12,41.12,0,0,1,9.56-5.31,41.23,41.23,0,0,1-5.43,9.41A44.34,44.34,0,0,0,254.52,391.23Zm-2-1.64a43.6,43.6,0,0,0-12.72-6.78,40.89,40.89,0,0,1-1.14-20.39,43.55,43.55,0,0,0,13.86-7.16,43.56,43.56,0,0,0,13.86,7.16,40.89,40.89,0,0,1-1.14,20.39A43.58,43.58,0,0,0,252.5,389.59Zm-51.81,2.24a41.65,41.65,0,0,1,5.77,5.48,41.38,41.38,0,0,1-5.77,5.48,41.42,41.42,0,0,1-5.77-5.48A41.69,41.69,0,0,1,200.68,391.83Zm-7.38,3.5a41,41,0,0,1-5.8-10.43,41.1,41.1,0,0,1,11.07,5.36A44.12,44.12,0,0,0,193.31,395.33Zm9.48-5.08a41,41,0,0,1,11.08-5.36,41.05,41.05,0,0,1-5.8,10.43A44,44,0,0,0,202.79,390.25Zm-2.11-1.58A43.5,43.5,0,0,0,186.52,382a40.07,40.07,0,0,1-1-19,43.35,43.35,0,0,0,15.18-6.9,43.48,43.48,0,0,0,15.18,6.91,40,40,0,0,1-1,19A43.5,43.5,0,0,0,200.68,388.68Zm-17.82-25.05a41.35,41.35,0,0,0,.87,17.74,42.5,42.5,0,0,0-19.3.63,41.77,41.77,0,0,0,1-18.88A41.58,41.58,0,0,0,182.87,363.62Zm-41.75-20.25a41,41,0,0,1-5.39-11.87,41,41,0,0,1,11.12,5.88A44.14,44.14,0,0,0,141.12,343.37ZM162,331.5a40.9,40.9,0,0,1-5.38,11.87,44.25,44.25,0,0,0-5.73-6A41,41,0,0,1,162,331.5ZM148.87,339a41.39,41.39,0,0,1,6.2,6.55,41.59,41.59,0,0,1-6.2,6.55,41.58,41.58,0,0,1-6.2-6.55A41.38,41.38,0,0,1,148.87,339Zm-2,14.67a41,41,0,0,1-11.12,5.88,41,41,0,0,1,5.39-11.87A43.9,43.9,0,0,0,146.85,353.63Zm9.78-6A40.93,40.93,0,0,1,162,359.51a41,41,0,0,1-11.11-5.88A44,44,0,0,0,156.63,347.63Zm1.59-2.13a43.49,43.49,0,0,0,6.62-14.86,40.87,40.87,0,0,1,10.55-1.42,41.29,41.29,0,0,1,7.94.79,43.43,43.43,0,0,0,6.78,15.49A43.44,43.44,0,0,0,183.33,361a40.16,40.16,0,0,1-18.49-.63A43.45,43.45,0,0,0,158.22,345.51Zm25.52-35.86a41.31,41.31,0,0,0-.87,17.74,41.79,41.79,0,0,0-17.47.51,41.77,41.77,0,0,0-1-18.88A42.51,42.51,0,0,0,183.74,309.64Zm1.07,11A41,41,0,0,1,186.52,309a43.5,43.5,0,0,0,14.17-6.64A43.37,43.37,0,0,0,214.85,309a40.08,40.08,0,0,1,1,19,43.47,43.47,0,0,0-15.18,6.9,43.43,43.43,0,0,0-15.18-6.9A41.16,41.16,0,0,1,184.81,320.62Zm-42.1-28.91a41.15,41.15,0,0,1-5.43-9.41,40.94,40.94,0,0,1,9.56,5.31A44,44,0,0,0,142.72,291.71Zm17.74-9.41a41.16,41.16,0,0,1-5.43,9.41,44,44,0,0,0-4.13-4.1A40.92,40.92,0,0,1,160.46,282.3Zm-11.58,6.88a41.74,41.74,0,0,1,4.55,4.52,41.28,41.28,0,0,1-4.55,4.51,41.65,41.65,0,0,1-4.55-4.51A42.11,42.11,0,0,1,148.87,289.18Zm-2,10.6a41.12,41.12,0,0,1-9.56,5.31,41.07,41.07,0,0,1,5.42-9.41A43.86,43.86,0,0,0,146.85,299.78Zm8.18-4.1a41.16,41.16,0,0,1,5.43,9.41,41.06,41.06,0,0,1-9.56-5.31A44,44,0,0,0,155,295.68Zm1.67-2a43.59,43.59,0,0,0,6.85-12.49,40.49,40.49,0,0,1,21-.69,43.57,43.57,0,0,0,7.1,13.18,43.74,43.74,0,0,0-7.1,13.18,40.5,40.5,0,0,1-21-.7A43.63,43.63,0,0,0,156.7,293.7ZM182.87,260a41.31,41.31,0,0,0,.87,17.75,42.5,42.5,0,0,0-19.3.63,41.79,41.79,0,0,0,1-18.89A41.77,41.77,0,0,0,182.87,260Zm1.95,6.77a41.07,41.07,0,0,1,.69-7.32,43.39,43.39,0,0,0,15.18-6.9,43.36,43.36,0,0,0,15.18,6.9,40.11,40.11,0,0,1-1,19,43.46,43.46,0,0,0-14.17,6.64,43.5,43.5,0,0,0-14.17-6.64A40.94,40.94,0,0,1,184.81,266.77Zm-43.7-27a40.9,40.9,0,0,1-5.39-11.87,41,41,0,0,1,11.12,5.88A43.85,43.85,0,0,0,141.12,239.75ZM162,227.88a40.89,40.89,0,0,1-5.38,11.87,44.25,44.25,0,0,0-5.73-6A41,41,0,0,1,162,227.88Zm-13.14,7.45a41.49,41.49,0,0,1,6.2,6.55,41.31,41.31,0,0,1-6.2,6.55,41.49,41.49,0,0,1-6.2-6.55A41.66,41.66,0,0,1,148.87,235.33Zm-2,14.67a41.16,41.16,0,0,1-11.11,5.88A40.9,40.9,0,0,1,141.12,244,44,44,0,0,0,146.85,250Zm9.78-6A41,41,0,0,1,162,255.89,41,41,0,0,1,150.9,250,44.11,44.11,0,0,0,156.63,244Zm1.6-2.13A43.49,43.49,0,0,0,164.84,227a40.08,40.08,0,0,1,18.49-.64,43.47,43.47,0,0,0,6.79,15.49,43.44,43.44,0,0,0-6.78,15.49,40.16,40.16,0,0,1-18.49-.63A43.53,43.53,0,0,0,158.22,241.88ZM183.74,206a41.3,41.3,0,0,0-.88,17.75,41.79,41.79,0,0,0-17.47.51,41.75,41.75,0,0,0-1-18.89A42.36,42.36,0,0,0,183.74,206Zm1.07,11a41,41,0,0,1,1.71-11.66,43.48,43.48,0,0,0,14.17-6.64,43.48,43.48,0,0,0,14.16,6.64,40.1,40.1,0,0,1,1,19,43.43,43.43,0,0,0-15.18,6.9,43.47,43.47,0,0,0-15.18-6.9A40.92,40.92,0,0,1,184.81,217Zm-42.09-28.91a41,41,0,0,1-5.43-9.4,41.11,41.11,0,0,1,9.56,5.31A43.79,43.79,0,0,0,142.72,188.09Zm17.73-9.4a41.11,41.11,0,0,1-5.43,9.4A44,44,0,0,0,150.9,184,41.07,41.07,0,0,1,160.45,178.69Zm-11.58,6.88a41,41,0,0,1,4.55,4.51,41.46,41.46,0,0,1-4.55,4.51,41.62,41.62,0,0,1-4.55-4.51A41.19,41.19,0,0,1,148.87,185.57Zm-2,10.59a41.11,41.11,0,0,1-9.56,5.31,41.07,41.07,0,0,1,5.43-9.41A44.1,44.1,0,0,0,146.85,196.16Zm8.18-4.1a41.15,41.15,0,0,1,5.43,9.41,41.13,41.13,0,0,1-9.56-5.31A43.84,43.84,0,0,0,155,192.06Zm1.67-2a43.51,43.51,0,0,0,6.85-12.48,40.53,40.53,0,0,1,21-.69,43.45,43.45,0,0,0,7.1,13.18,43.56,43.56,0,0,0-7.1,13.18,40.53,40.53,0,0,1-21-.69A43.62,43.62,0,0,0,156.69,190.07Zm26.17-33.69a44,44,0,0,0-.58,6.77,43.48,43.48,0,0,0,1.45,11,42.53,42.53,0,0,0-19.31.63,41.77,41.77,0,0,0,1-18.89A41.58,41.58,0,0,0,182.87,156.38Zm1.95,6.77a41.06,41.06,0,0,1,.69-7.31,43.39,43.39,0,0,0,15.18-6.9,43.45,43.45,0,0,0,15.18,6.91,41.35,41.35,0,0,1,.69,7.31,40.93,40.93,0,0,1-1.71,11.65,43.47,43.47,0,0,0-14.16,6.64,43.47,43.47,0,0,0-14.17-6.64A41,41,0,0,1,184.81,163.15Zm-43.7-27a41,41,0,0,1-5.39-11.87,41,41,0,0,1,11.12,5.88A44.1,44.1,0,0,0,141.12,136.13ZM162,124.26a40.94,40.94,0,0,1-5.39,11.87,44,44,0,0,0-5.73-6A41,41,0,0,1,162,124.26Zm-13.14,7.45a41.39,41.39,0,0,1,6.2,6.55,41.55,41.55,0,0,1-6.2,6.55,41.52,41.52,0,0,1-6.2-6.55A41.36,41.36,0,0,1,148.87,131.71Zm-2,14.67a41.05,41.05,0,0,1-11.12,5.88,40.93,40.93,0,0,1,5.39-11.87A43.73,43.73,0,0,0,146.85,146.38Zm9.78-6A41,41,0,0,1,162,152.26a41,41,0,0,1-11.12-5.88A43.89,43.89,0,0,0,156.63,140.39Zm1.59-2.13a43.49,43.49,0,0,0,6.62-14.86,40.11,40.11,0,0,1,18.49-.64,43.43,43.43,0,0,0,6.78,15.49,43.41,43.41,0,0,0-6.78,15.49,40.18,40.18,0,0,1-18.49-.63A43.42,43.42,0,0,0,158.22,138.26Zm25.52-35.87a41.3,41.3,0,0,0-.87,17.74,41.79,41.79,0,0,0-17.48.51,41.76,41.76,0,0,0-1-18.88A42.41,42.41,0,0,0,183.74,102.4Zm1.08,11a41,41,0,0,1,1.71-11.64,43.52,43.52,0,0,0,14.17-6.64,43.38,43.38,0,0,0,14.17,6.64,40.15,40.15,0,0,1,1,19,43.44,43.44,0,0,0-15.18,6.9,43.47,43.47,0,0,0-15.18-6.9A41,41,0,0,1,184.81,113.37Zm15.87-21.44a41.84,41.84,0,0,1-5.77-5.48A41.56,41.56,0,0,1,200.68,81a41.52,41.52,0,0,1,5.77,5.48A41.81,41.81,0,0,1,200.68,91.93Zm7.38-3.5a41.14,41.14,0,0,1,5.8,10.43,41,41,0,0,1-11.07-5.36A43.76,43.76,0,0,0,208.06,88.43Zm-9.49,5.08a41.16,41.16,0,0,1-11.07,5.36,41,41,0,0,1,5.8-10.43A44.08,44.08,0,0,0,198.58,93.51ZM252.5,91a41.49,41.49,0,0,1-4.55-4.51,41.49,41.49,0,0,1,4.55-4.51A41.45,41.45,0,0,1,257,86.45,41.45,41.45,0,0,1,252.5,91Zm6.15-2.53a41.06,41.06,0,0,1,5.42,9.41,41.17,41.17,0,0,1-9.56-5.31A43.8,43.8,0,0,0,258.65,88.43Zm-8.18,4.1a41.12,41.12,0,0,1-9.55,5.31,41.05,41.05,0,0,1,5.42-9.41A44.05,44.05,0,0,0,250.47,92.53Zm2,1.64a43.4,43.4,0,0,0,12.72,6.78,40.92,40.92,0,0,1,1.14,20.39,43.56,43.56,0,0,0-13.86,7.16,43.55,43.55,0,0,0-13.86-7.16,40.89,40.89,0,0,1,1.14-20.39A43.58,43.58,0,0,0,252.5,94.17Zm51.81-2.24a41.58,41.58,0,0,1-5.77-5.48A41.3,41.3,0,0,1,304.3,81a41.3,41.3,0,0,1,5.77,5.48A41.58,41.58,0,0,1,304.3,91.93Zm7.38-3.5a41,41,0,0,1,5.8,10.43,41.12,41.12,0,0,1-11.07-5.36A44.23,44.23,0,0,0,311.68,88.43Zm-9.49,5.08a41,41,0,0,1-11.07,5.36,41.22,41.22,0,0,1,5.8-10.43A43.93,43.93,0,0,0,302.2,93.51Zm2.11,1.58a43.47,43.47,0,0,0,14.17,6.64,40.14,40.14,0,0,1,1,19,43.43,43.43,0,0,0-15.18,6.9,43.48,43.48,0,0,0-15.18-6.9,40,40,0,0,1,1-19A43.44,43.44,0,0,0,304.3,95.08Zm17.82,25.06a41.18,41.18,0,0,0-.87-17.74,42.43,42.43,0,0,0,19.31-.62,41.68,41.68,0,0,0-1,18.88A41.8,41.8,0,0,0,322.12,120.14Zm36,26.24a44.25,44.25,0,0,0,5.73-6,40.94,40.94,0,0,1,5.38,11.87A41.07,41.07,0,0,1,358.14,146.38Zm-4.05,0A41,41,0,0,1,343,152.26a40.93,40.93,0,0,1,5.38-11.87A44,44,0,0,0,354.09,146.38Zm2-1.57a41.52,41.52,0,0,1-6.2-6.55,41.36,41.36,0,0,1,6.2-6.55,41.45,41.45,0,0,1,6.2,6.55A41.61,41.61,0,0,1,356.12,144.81Zm2-14.67a41,41,0,0,1,11.11-5.88,40.92,40.92,0,0,1-5.38,11.87A44.25,44.25,0,0,0,358.14,130.14Zm-9.78,6A40.94,40.94,0,0,1,343,124.26a41,41,0,0,1,11.11,5.88A44.21,44.21,0,0,0,348.36,136.13Zm-1.59,2.13a43.37,43.37,0,0,0-6.62,14.86,40.18,40.18,0,0,1-18.49.63,43.44,43.44,0,0,0-6.78-15.49,43.42,43.42,0,0,0,6.78-15.49,41.32,41.32,0,0,1,7.94-.79,40.87,40.87,0,0,1,10.55,1.42A43.45,43.45,0,0,0,346.77,138.26Zm-25.52,35.87a41.21,41.21,0,0,0,.87-17.75,41.6,41.6,0,0,0,17.48-.51,41.73,41.73,0,0,0,1,18.89A42.52,42.52,0,0,0,321.25,174.13Zm-1.08-11a40.91,40.91,0,0,1-1.71,11.65,43.46,43.46,0,0,0-14.16,6.64,43.48,43.48,0,0,0-14.17-6.64,40,40,0,0,1-1-19,43.49,43.49,0,0,0,15.18-6.91,43.35,43.35,0,0,0,15.18,6.9A41.44,41.44,0,0,1,320.17,163.15Zm38,33a43.79,43.79,0,0,0,4.13-4.09,41.27,41.27,0,0,1,5.43,9.4A40.92,40.92,0,0,1,358.14,196.15Zm-4,0a41.08,41.08,0,0,1-9.56,5.31,41.24,41.24,0,0,1,5.43-9.41A44.12,44.12,0,0,0,354.09,196.16Zm2-1.57a41.23,41.23,0,0,1-4.55-4.51,41.19,41.19,0,0,1,4.55-4.51,41.58,41.58,0,0,1,4.55,4.51A41.62,41.62,0,0,1,356.12,194.58Zm2-10.59a41.07,41.07,0,0,1,9.56-5.31,41.08,41.08,0,0,1-5.43,9.4A44.87,44.87,0,0,0,358.14,184ZM350,188.09a41.2,41.2,0,0,1-5.43-9.4,41.09,41.09,0,0,1,9.56,5.31A44.25,44.25,0,0,0,350,188.09Zm-1.67,2a43.66,43.66,0,0,0-6.85,12.48,40.52,40.52,0,0,1-21,.69,43.66,43.66,0,0,0-7.1-13.18,43.55,43.55,0,0,0,7.1-13.18,40.52,40.52,0,0,1,21,.69A43.54,43.54,0,0,0,348.3,190.07Zm-26.17,33.69a41.24,41.24,0,0,0-.88-17.75,42.35,42.35,0,0,0,19.31-.63,41.77,41.77,0,0,0-1,18.89A41.79,41.79,0,0,0,322.12,223.76Zm-2-6.76a41.08,41.08,0,0,1-.69,7.3,43.44,43.44,0,0,0-15.18,6.9,43.48,43.48,0,0,0-15.18-6.9,40,40,0,0,1,1-19,43.4,43.4,0,0,0,14.17-6.64,43.48,43.48,0,0,0,14.16,6.64A40.94,40.94,0,0,1,320.17,217Zm38,33a44,44,0,0,0,5.73-6,40.86,40.86,0,0,1,5.38,11.87A41.06,41.06,0,0,1,358.14,250Zm-4.05,0A41.14,41.14,0,0,1,343,255.89,41,41,0,0,1,348.36,244,44.21,44.21,0,0,0,354.09,250Zm2-1.57a41.3,41.3,0,0,1-6.2-6.55,41.47,41.47,0,0,1,6.2-6.55,41.77,41.77,0,0,1,6.2,6.55A41.59,41.59,0,0,1,356.12,248.44Zm2-14.67a41,41,0,0,1,11.12-5.88,41,41,0,0,1-5.39,11.87A43.86,43.86,0,0,0,358.14,233.77Zm-9.78,6A41,41,0,0,1,343,227.88a41,41,0,0,1,11.12,5.88A44.21,44.21,0,0,0,348.36,239.75Zm-1.59,2.13a43.49,43.49,0,0,0-6.62,14.86,40.16,40.16,0,0,1-18.49.63,43.45,43.45,0,0,0-6.78-15.49,43.43,43.43,0,0,0,6.78-15.49,40.09,40.09,0,0,1,18.49.64A43.46,43.46,0,0,0,346.77,241.88Zm-25.52,35.86a41.23,41.23,0,0,0,.87-17.75,41.78,41.78,0,0,0,17.48-.51,41.72,41.72,0,0,0,1,18.89A42.51,42.51,0,0,0,321.25,277.75Zm-1.08-11a41,41,0,0,1-1.7,11.64,43.48,43.48,0,0,0-14.17,6.64,43.51,43.51,0,0,0-14.17-6.64,40,40,0,0,1-1-19,43.47,43.47,0,0,0,15.18-6.9,43.42,43.42,0,0,0,15.18,6.9A41.29,41.29,0,0,1,320.17,266.77Zm38,33a43.9,43.9,0,0,0,4.13-4.1,41.14,41.14,0,0,1,5.42,9.4A41.15,41.15,0,0,1,358.14,299.78Zm-4.05,0a41.11,41.11,0,0,1-9.56,5.31,41.15,41.15,0,0,1,5.42-9.41A44.12,44.12,0,0,0,354.09,299.78Zm2-1.57a41.23,41.23,0,0,1-4.55-4.51,41.23,41.23,0,0,1,4.55-4.51,41.62,41.62,0,0,1,4.55,4.51A41.62,41.62,0,0,1,356.12,298.21Zm2-10.59a41.14,41.14,0,0,1,9.56-5.31,41,41,0,0,1-5.43,9.41A43.81,43.81,0,0,0,358.14,287.61Zm-8.18,4.1a41,41,0,0,1-5.43-9.41,41,41,0,0,1,9.56,5.31A44,44,0,0,0,350,291.71Zm-1.67,2a43.66,43.66,0,0,0-6.85,12.48,40.5,40.5,0,0,1-21,.7,43.64,43.64,0,0,0-7.1-13.18,43.63,43.63,0,0,0,7.1-13.18,40.49,40.49,0,0,1,21,.69A43.53,43.53,0,0,0,348.29,293.7Zm-26.17,33.69a41.17,41.17,0,0,0-.87-17.74,42.52,42.52,0,0,0,19.31-.63,41.69,41.69,0,0,0-1,18.88A41.81,41.81,0,0,0,322.12,327.39Zm-1.95-6.76a41.36,41.36,0,0,1-.69,7.31,43.42,43.42,0,0,0-15.18,6.9,43.48,43.48,0,0,0-15.18-6.9,40,40,0,0,1,1-19,43.5,43.5,0,0,0,14.17-6.64A43.37,43.37,0,0,0,318.47,309,41.07,41.07,0,0,1,320.17,320.62Zm38,33a44.25,44.25,0,0,0,5.73-6,40.93,40.93,0,0,1,5.38,11.87A41.06,41.06,0,0,1,358.14,353.63Zm-4.05,0A41,41,0,0,1,343,359.51a41,41,0,0,1,5.38-11.87A44,44,0,0,0,354.09,353.63Zm2-1.57a41.5,41.5,0,0,1-6.2-6.55,41.36,41.36,0,0,1,6.2-6.55,41.45,41.45,0,0,1,6.2,6.55A41.6,41.6,0,0,1,356.12,352.05Zm2-14.67a41,41,0,0,1,11.11-5.88,40.92,40.92,0,0,1-5.38,11.87A44.25,44.25,0,0,0,358.14,337.38Zm-9.78,6A40.94,40.94,0,0,1,343,331.5a41,41,0,0,1,11.11,5.88A44.21,44.21,0,0,0,348.36,343.37Zm-1.59,2.13a43.46,43.46,0,0,0-6.62,14.86,40.15,40.15,0,0,1-18.49.63,43.4,43.4,0,0,0-6.78-15.49A43.39,43.39,0,0,0,321.66,330a41.29,41.29,0,0,1,7.94-.79,40.85,40.85,0,0,1,10.55,1.42A43.49,43.49,0,0,0,346.77,345.51Zm-155.06-2.13a40.92,40.92,0,0,1-5.59-12.68,41.12,41.12,0,0,1,12.46,5.71A44.27,44.27,0,0,0,191.71,343.37Zm23.55-12.68a41,41,0,0,1-5.59,12.68,44.28,44.28,0,0,0-6.87-7A40.91,40.91,0,0,1,215.26,330.69ZM200.68,338a41.44,41.44,0,0,1,7.42,7.52,41.44,41.44,0,0,1-7.42,7.52,41.46,41.46,0,0,1-7.42-7.52A41.47,41.47,0,0,1,200.68,338Zm-2.11,16.62a40.91,40.91,0,0,1-12.46,5.71,41,41,0,0,1,5.59-12.68A44.12,44.12,0,0,0,198.58,354.6Zm11.09-7a41,41,0,0,1,5.59,12.69,41,41,0,0,1-12.46-5.72A43.93,43.93,0,0,0,209.66,347.63Zm1.59-2.13A43.42,43.42,0,0,0,218,330a40.1,40.1,0,0,1,18.49.64,43.49,43.49,0,0,0,6.62,14.86,43.42,43.42,0,0,0-6.62,14.86A40.15,40.15,0,0,1,218,361,43.44,43.44,0,0,0,211.26,345.51Zm7.25-18.12a44,44,0,0,0,.58-6.76,43.4,43.4,0,0,0-1.45-11,42.52,42.52,0,0,0,19.31-.63,41.74,41.74,0,0,0-1,18.88A41.79,41.79,0,0,0,218.51,327.39Zm19.35-6.76a41.06,41.06,0,0,1,1.93-12.43,43.48,43.48,0,0,0,12.72-6.78,43.6,43.6,0,0,0,12.72,6.78,40.89,40.89,0,0,1,1.14,20.39,43.57,43.57,0,0,0-13.86,7.16,43.56,43.56,0,0,0-13.86-7.16A41.12,41.12,0,0,1,237.85,320.62Zm-39.27-34a44.31,44.31,0,0,0-5.27,5.08,41.1,41.1,0,0,1-5.8-10.43A41,41,0,0,1,198.58,286.64Zm4.22,0a41,41,0,0,1,11.07-5.36,41,41,0,0,1-5.8,10.43A44.13,44.13,0,0,0,202.79,286.64Zm-2.11,1.58a41.64,41.64,0,0,1,5.77,5.48,41.61,41.61,0,0,1-5.77,5.48,41.51,41.51,0,0,1-5.77-5.48A41.55,41.55,0,0,1,200.68,288.21Zm-2.11,12.54a41,41,0,0,1-11.07,5.36,41.1,41.1,0,0,1,5.8-10.43A43.72,43.72,0,0,0,198.58,300.75Zm9.49-5.07a41,41,0,0,1,5.8,10.43,41,41,0,0,1-11.07-5.35A44.08,44.08,0,0,0,208.06,295.68Zm1.67-2a43.62,43.62,0,0,0,7.1-13.18,40.48,40.48,0,0,1,21,.69,43.59,43.59,0,0,0,6.85,12.49,43.67,43.67,0,0,0-6.85,12.48,40.49,40.49,0,0,1-21,.7A43.7,43.7,0,0,0,209.73,293.7Zm7.9-15.95A41.22,41.22,0,0,0,218.5,260a41.77,41.77,0,0,0,17.48-.51,41.79,41.79,0,0,0,1,18.89A42.5,42.5,0,0,0,217.63,277.75Zm20.22-11a41.21,41.21,0,0,1,.79-8,43.53,43.53,0,0,0,13.86-7.16,43.56,43.56,0,0,0,13.86,7.16,40.93,40.93,0,0,1-1.14,20.39A43.58,43.58,0,0,0,252.5,286a43.58,43.58,0,0,0-12.72-6.78A40.94,40.94,0,0,1,237.85,266.77Zm-39.27-34a43.81,43.81,0,0,0-6.87,7,41,41,0,0,1-5.6-12.69A41,41,0,0,1,198.58,232.79Zm4.22,0a41.13,41.13,0,0,1,12.46-5.71,40.92,40.92,0,0,1-5.59,12.68A44.3,44.3,0,0,0,202.79,232.78Zm-2.11,1.58a41.44,41.44,0,0,1,7.42,7.52,41.44,41.44,0,0,1-7.42,7.52,41.45,41.45,0,0,1-7.42-7.52A41.45,41.45,0,0,1,200.68,234.36ZM198.58,251a40.89,40.89,0,0,1-12.46,5.71A40.84,40.84,0,0,1,191.71,244,44,44,0,0,0,198.58,251Zm11.09-7a41,41,0,0,1,5.59,12.68A40.89,40.89,0,0,1,202.79,251,44.08,44.08,0,0,0,209.66,244Zm1.6-2.13A43.48,43.48,0,0,0,218,226.39a40.08,40.08,0,0,1,18.49.64,43.49,43.49,0,0,0,6.62,14.86,43.53,43.53,0,0,0-6.62,14.86,40.15,40.15,0,0,1-18.49.63A43.44,43.44,0,0,0,211.26,241.88Zm7.25-18.12a41.24,41.24,0,0,0-.87-17.75,42.35,42.35,0,0,0,19.31-.63,41.82,41.82,0,0,0-1,18.89A41.78,41.78,0,0,0,218.51,223.76ZM237.85,217a41,41,0,0,1,1.93-12.43,43.64,43.64,0,0,0,12.71-6.78,43.57,43.57,0,0,0,12.72,6.78A40.91,40.91,0,0,1,266.36,225a43.56,43.56,0,0,0-13.86,7.16A43.56,43.56,0,0,0,238.64,225,41.1,41.1,0,0,1,237.85,217Zm-39.27-34a44.18,44.18,0,0,0-5.27,5.07,41,41,0,0,1-5.8-10.42A40.93,40.93,0,0,1,198.58,183Zm4.22,0a41,41,0,0,1,11.07-5.35,41.16,41.16,0,0,1-5.8,10.42A44,44,0,0,0,202.79,183Zm-2.11,1.58a41.61,41.61,0,0,1,5.77,5.48,41.11,41.11,0,0,1-5.77,5.48,41.11,41.11,0,0,1-5.77-5.48A41.62,41.62,0,0,1,200.68,184.59Zm-2.11,12.53a41,41,0,0,1-11.07,5.36,41,41,0,0,1,5.8-10.43A44.22,44.22,0,0,0,198.58,197.13Zm9.48-5.07a41.12,41.12,0,0,1,5.8,10.43,41,41,0,0,1-11.07-5.36A43.9,43.9,0,0,0,208.06,192.06Zm1.67-2a43.54,43.54,0,0,0,7.1-13.18,40.46,40.46,0,0,1,21,.7,43.66,43.66,0,0,0,6.85,12.48,43.74,43.74,0,0,0-6.85,12.48,40.51,40.51,0,0,1-21,.69A43.65,43.65,0,0,0,209.73,190.07Zm7.9-15.94a41.26,41.26,0,0,0,.87-17.75,41.58,41.58,0,0,0,17.47-.51,41.78,41.78,0,0,0,1,18.89A42.52,42.52,0,0,0,217.63,174.13Zm20.22-11a41.16,41.16,0,0,1,.79-8A43.55,43.55,0,0,0,252.5,148a43.47,43.47,0,0,0,13.86,7.16,40.93,40.93,0,0,1-1.14,20.4,43.59,43.59,0,0,0-12.72,6.78,43.53,43.53,0,0,0-12.71-6.78A41,41,0,0,1,237.85,163.15Zm-39.27-34a44.16,44.16,0,0,0-6.87,7,40.87,40.87,0,0,1-5.59-12.68A41.09,41.09,0,0,1,198.58,129.16Zm4.22,0a40.86,40.86,0,0,1,12.46-5.71,41,41,0,0,1-5.59,12.68A44.09,44.09,0,0,0,202.79,129.16Zm-2.11,1.58a41.44,41.44,0,0,1,7.42,7.52,41.57,41.57,0,0,1-7.42,7.52,41.58,41.58,0,0,1-7.42-7.52A41.46,41.46,0,0,1,200.68,130.74Zm-2.11,16.62a41.09,41.09,0,0,1-12.46,5.71,40.91,40.91,0,0,1,5.59-12.68A44,44,0,0,0,198.58,147.36Zm11.09-7a41,41,0,0,1,5.59,12.68,40.88,40.88,0,0,1-12.46-5.71A44.09,44.09,0,0,0,209.66,140.39Zm1.6-2.13A43.42,43.42,0,0,0,218,122.77a40.1,40.1,0,0,1,18.49.64,43.46,43.46,0,0,0,6.62,14.86,43.4,43.4,0,0,0-6.62,14.85,40.1,40.1,0,0,1-18.49.64A43.4,43.4,0,0,0,211.26,138.26Zm95.15,9.1a44,44,0,0,0,6.87-7,41,41,0,0,1,5.59,12.68A41,41,0,0,1,306.41,147.36Zm-4.22,0a40.9,40.9,0,0,1-12.46,5.71,41,41,0,0,1,5.59-12.68A43.88,43.88,0,0,0,302.2,147.36Zm2.11-1.58a41.66,41.66,0,0,1-7.42-7.52,41.54,41.54,0,0,1,7.42-7.52,41.39,41.39,0,0,1,7.42,7.52A41.51,41.51,0,0,1,304.3,145.78Zm2.11-16.62a41.12,41.12,0,0,1,12.46-5.71,41,41,0,0,1-5.59,12.68A44.21,44.21,0,0,0,306.41,129.16Zm-11.08,7a40.92,40.92,0,0,1-5.59-12.68,40.92,40.92,0,0,1,12.47,5.71A43.9,43.9,0,0,0,295.33,136.13Zm-1.59,2.13a43.41,43.41,0,0,0-6.78,15.49,40.15,40.15,0,0,1-18.49-.63,43.47,43.47,0,0,0-6.62-14.86,43.55,43.55,0,0,0,6.62-14.86,40.08,40.08,0,0,1,18.49-.64A43.44,43.44,0,0,0,293.73,138.26Zm-43.26,8.12a41,41,0,0,1-11.11,5.88,41,41,0,0,1,5.38-11.87A43.82,43.82,0,0,0,250.47,146.38Zm-4.17-8.12a41.38,41.38,0,0,1,6.2-6.55,41.47,41.47,0,0,1,6.19,6.55,41.63,41.63,0,0,1-6.19,6.55A41.54,41.54,0,0,1,246.3,138.26Zm8.22,8.12a44.21,44.21,0,0,0,5.73-6,40.92,40.92,0,0,1,5.38,11.87A41.07,41.07,0,0,1,254.52,146.38Zm5.73-10.25a44.21,44.21,0,0,0-5.73-6,41,41,0,0,1,11.11-5.88A41,41,0,0,1,260.25,136.13Zm-15.51,0a41,41,0,0,1-5.38-11.87,41,41,0,0,1,11.11,5.88A44.08,44.08,0,0,0,244.74,136.13Zm41.74,20.25a44.08,44.08,0,0,0-.58,6.77,43.49,43.49,0,0,0,1.45,11,42.5,42.5,0,0,0-19.3.63,41.73,41.73,0,0,0,1-18.89A41.57,41.57,0,0,0,286.48,156.38Zm25.2,35.68a41.15,41.15,0,0,1,5.8,10.43,41,41,0,0,1-11.07-5.36A43.72,43.72,0,0,0,311.68,192.06Zm-20.55,10.43a41,41,0,0,1,5.8-10.43,43.73,43.73,0,0,0,5.27,5.07A41,41,0,0,1,291.13,202.49Zm13.18-6.93a41.24,41.24,0,0,1-5.77-5.48,41.75,41.75,0,0,1,5.77-5.48,41.78,41.78,0,0,1,5.77,5.48A41.27,41.27,0,0,1,304.3,195.55ZM306.41,183a41,41,0,0,1,11.07-5.35,41,41,0,0,1-5.8,10.42A44,44,0,0,0,306.41,183Zm-9.48,5.07a41,41,0,0,1-5.8-10.43A41.16,41.16,0,0,1,302.2,183,44,44,0,0,0,296.93,188.09Zm-1.67,2a43.59,43.59,0,0,0-7.1,13.18,40.49,40.49,0,0,1-21-.69,43.67,43.67,0,0,0-6.85-12.48,43.58,43.58,0,0,0,6.85-12.48,40.45,40.45,0,0,1,21-.7A43.48,43.48,0,0,0,295.26,190.07Zm-48.92-2a41.13,41.13,0,0,1-5.43-9.4,41,41,0,0,1,9.55,5.31A44,44,0,0,0,246.35,188.09Zm17.73-9.4a41.08,41.08,0,0,1-5.42,9.4,44.81,44.81,0,0,0-4.13-4.09A41.12,41.12,0,0,1,264.07,178.69Zm-11.58,6.88a42,42,0,0,1,4.55,4.51,41.62,41.62,0,0,1-4.55,4.51,41.67,41.67,0,0,1-4.55-4.51A42.06,42.06,0,0,1,252.5,185.57Zm-2,10.58a41.07,41.07,0,0,1-9.55,5.31,41.23,41.23,0,0,1,5.43-9.4A43.29,43.29,0,0,0,250.47,196.15Zm8.18-4.09a41.27,41.27,0,0,1,5.42,9.4,41,41,0,0,1-9.55-5.31A43.74,43.74,0,0,0,258.65,192.06Zm28.71,14a41.31,41.31,0,0,0-.88,17.75,41.76,41.76,0,0,0-17.47.51,41.77,41.77,0,0,0-1-18.89A42.33,42.33,0,0,0,287.36,206Zm25.92,38a41,41,0,0,1,5.59,12.68A40.88,40.88,0,0,1,306.41,251,44,44,0,0,0,313.28,244Zm-23.55,12.68A40.89,40.89,0,0,1,295.33,244a43.87,43.87,0,0,0,6.87,7A40.9,40.9,0,0,1,289.73,256.69Zm14.57-7.29a41.44,41.44,0,0,1-7.42-7.52,41.44,41.44,0,0,1,7.42-7.52,41.39,41.39,0,0,1,7.42,7.52A41.39,41.39,0,0,1,304.3,249.4Zm2.11-16.62a41,41,0,0,1,12.46-5.72,40.82,40.82,0,0,1-5.59,12.68A44,44,0,0,0,306.41,232.79Zm-11.09,7a40.92,40.92,0,0,1-5.6-12.68,41,41,0,0,1,12.47,5.71A44.07,44.07,0,0,0,295.33,239.75Zm-1.59,2.13a43.45,43.45,0,0,0-6.78,15.49,40.13,40.13,0,0,1-18.49-.63,43.54,43.54,0,0,0-6.62-14.86A43.45,43.45,0,0,0,268.47,227a40.06,40.06,0,0,1,18.48-.64A43.45,43.45,0,0,0,293.73,241.88Zm-49-2.13a41,41,0,0,1-5.39-11.87,41.07,41.07,0,0,1,11.11,5.88A43.93,43.93,0,0,0,244.74,239.75Zm20.89-11.87a40.9,40.9,0,0,1-5.38,11.87,43.8,43.8,0,0,0-5.73-6A41.06,41.06,0,0,1,265.64,227.88Zm-13.14,7.45a41.65,41.65,0,0,1,6.19,6.55,41.44,41.44,0,0,1-6.19,6.55,41.43,41.43,0,0,1-6.2-6.55A41.64,41.64,0,0,1,252.5,235.34Zm-2,14.67a41,41,0,0,1-11.11,5.88A41,41,0,0,1,244.74,244,43.81,43.81,0,0,0,250.47,250Zm9.78-6a41,41,0,0,1,5.38,11.87A41.06,41.06,0,0,1,254.52,250,43.94,43.94,0,0,0,260.25,244Zm26.23,16a41.31,41.31,0,0,0,.87,17.75,42.48,42.48,0,0,0-19.3.63,41.72,41.72,0,0,0,1-18.89A41.76,41.76,0,0,0,286.48,260Zm25.2,35.68a41.09,41.09,0,0,1,5.8,10.43,41.09,41.09,0,0,1-11.07-5.35A44.22,44.22,0,0,0,311.68,295.68Zm-20.56,10.43a41.19,41.19,0,0,1,5.8-10.43,44.24,44.24,0,0,0,5.27,5.08A40.92,40.92,0,0,1,291.12,306.11Zm13.18-6.93a41.25,41.25,0,0,1-5.77-5.48,41.29,41.29,0,0,1,5.77-5.48,41.28,41.28,0,0,1,5.77,5.48A41.25,41.25,0,0,1,304.3,299.17Zm2.11-12.54a41,41,0,0,1,11.07-5.35,41.09,41.09,0,0,1-5.8,10.43A43.78,43.78,0,0,0,306.41,286.64Zm-9.48,5.08a41.24,41.24,0,0,1-5.8-10.43,41,41,0,0,1,11.08,5.36A43.81,43.81,0,0,0,296.93,291.71Zm-1.67,2a43.65,43.65,0,0,0-7.1,13.18,40.48,40.48,0,0,1-21-.7,43.66,43.66,0,0,0-6.85-12.48,43.57,43.57,0,0,0,6.85-12.49,40.47,40.47,0,0,1,21-.69A43.52,43.52,0,0,0,295.26,293.7Zm-48.91-2a40.92,40.92,0,0,1-5.42-9.4,41.08,41.08,0,0,1,9.55,5.31A44.77,44.77,0,0,0,246.34,291.71Zm17.73-9.4a41.07,41.07,0,0,1-5.43,9.41,43.75,43.75,0,0,0-4.13-4.1A41.12,41.12,0,0,1,264.08,282.3Zm-11.58,6.88A41.6,41.6,0,0,1,257,293.7a41.6,41.6,0,0,1-4.55,4.51A41.21,41.21,0,0,1,248,293.7,41.21,41.21,0,0,1,252.5,289.18Zm-2,10.59a41.14,41.14,0,0,1-9.55,5.31,41.2,41.2,0,0,1,5.42-9.4A44.31,44.31,0,0,0,250.47,299.78Zm8.18-4.1a41.15,41.15,0,0,1,5.42,9.41,41.29,41.29,0,0,1-9.56-5.31A43.84,43.84,0,0,0,258.65,295.68Zm28.71,14a43.53,43.53,0,0,0-1.45,11,44,44,0,0,0,.58,6.76,41.77,41.77,0,0,0-17.47.51,41.69,41.69,0,0,0-1-18.88A42.49,42.49,0,0,0,287.36,309.64ZM252.5,339a41.38,41.38,0,0,1,6.2,6.55,41.52,41.52,0,0,1-6.2,6.55,41.51,41.51,0,0,1-6.19-6.55A41.36,41.36,0,0,1,252.5,339Zm-7.75,4.42a41,41,0,0,1-5.38-11.87,41.07,41.07,0,0,1,11.11,5.88A44.2,44.2,0,0,0,244.74,343.37Zm9.78-6a41.12,41.12,0,0,1,11.11-5.88,41,41,0,0,1-5.39,11.87A44.09,44.09,0,0,0,254.52,337.38Zm-9.78,10.25a44,44,0,0,0,5.73,6,41,41,0,0,1-11.11,5.88A41,41,0,0,1,244.74,347.63Zm9.78,6a43.85,43.85,0,0,0,5.73-6,41,41,0,0,1,5.39,11.87A41,41,0,0,1,254.52,353.63Zm7.32-8.12a43.46,43.46,0,0,0,6.62-14.86,40.07,40.07,0,0,1,18.48-.64,43.48,43.48,0,0,0,6.79,15.49A43.5,43.5,0,0,0,286.95,361a40.12,40.12,0,0,1-18.48-.63A43.42,43.42,0,0,0,261.84,345.51Zm44.57-9.1a41.13,41.13,0,0,1,12.46-5.71,40.93,40.93,0,0,1-5.59,12.68A44.11,44.11,0,0,0,306.41,336.41Zm5.31,9.1A41.45,41.45,0,0,1,304.3,353a41.45,41.45,0,0,1-7.42-7.52A41.46,41.46,0,0,1,304.3,338,41.46,41.46,0,0,1,311.72,345.51Zm-16.4-2.13a40.92,40.92,0,0,1-5.59-12.68,41,41,0,0,1,12.47,5.71A44,44,0,0,0,295.33,343.37Zm0,4.26a43.64,43.64,0,0,0,6.87,7,41.06,41.06,0,0,1-12.47,5.72A41,41,0,0,1,295.33,347.63Zm11.08,7a44,44,0,0,0,6.87-7,41,41,0,0,1,5.59,12.68A40.92,40.92,0,0,1,306.41,354.6ZM287.36,102.4a41.34,41.34,0,0,0-.87,17.74,41.76,41.76,0,0,0-17.47.51,41.68,41.68,0,0,0-1-18.88A42.48,42.48,0,0,0,287.36,102.4ZM218.5,120.14a41.19,41.19,0,0,0-.87-17.74,42.43,42.43,0,0,0,19.3-.63,41.78,41.78,0,0,0-1,18.88A41.79,41.79,0,0,0,218.5,120.14Zm-0.87,261.23a41.36,41.36,0,0,0,.87-17.74,41.58,41.58,0,0,0,17.47-.51,41.77,41.77,0,0,0,1,18.88A42.5,42.5,0,0,0,217.63,381.37Zm68.85-17.74a44.09,44.09,0,0,0-.58,6.77,43.63,43.63,0,0,0,1.45,11,42.48,42.48,0,0,0-19.3.63,41.7,41.7,0,0,0,1-18.88A41.56,41.56,0,0,0,286.48,363.62Zm34.77,17.74a41.17,41.17,0,0,0,.87-17.74,41.6,41.6,0,0,0,17.48-.51,41.7,41.7,0,0,0,1,18.88A42.52,42.52,0,0,0,321.25,381.37ZM356.12,91a41.28,41.28,0,0,1-4.55-4.51,41.28,41.28,0,0,1,4.55-4.51,41.68,41.68,0,0,1,4.55,4.51A41.68,41.68,0,0,1,356.12,91Zm6.16-2.53a41.14,41.14,0,0,1,5.42,9.41,41.12,41.12,0,0,1-9.56-5.31A44.09,44.09,0,0,0,362.27,88.43Zm-8.18,4.1a41,41,0,0,1-9.56,5.31A41.17,41.17,0,0,1,350,88.43,44.08,44.08,0,0,0,354.09,92.53Zm8.18-8.07a44.05,44.05,0,0,0-4.13-4.1,41.1,41.1,0,0,1,9.56-5.31A41,41,0,0,1,362.27,84.47Zm-12.31,0a41,41,0,0,1-5.43-9.41,41.16,41.16,0,0,1,9.56,5.31A43.8,43.8,0,0,0,350,84.47Zm-1.67,2a43.58,43.58,0,0,0-6.85,12.49,40.5,40.5,0,0,1-21,.69,43.67,43.67,0,0,0-7.1-13.18,43.67,43.67,0,0,0,7.1-13.18,40.49,40.49,0,0,1,21,.69A43.58,43.58,0,0,0,348.29,86.45Zm-36.61-2a43.76,43.76,0,0,0-5.27-5.08A41.16,41.16,0,0,1,317.48,74,41,41,0,0,1,311.68,84.47Zm-14.75,0A41.23,41.23,0,0,1,291.12,74a41,41,0,0,1,11.08,5.36A44,44,0,0,0,296.93,84.47Zm-1.67,2a43.57,43.57,0,0,0-7.1,13.18,40.48,40.48,0,0,1-21-.69,43.57,43.57,0,0,0-6.85-12.49A43.62,43.62,0,0,0,267.17,74a40.48,40.48,0,0,1,21-.69A43.57,43.57,0,0,0,295.26,86.45Zm-36.61-2a44,44,0,0,0-4.13-4.1,41.08,41.08,0,0,1,9.56-5.31A41.06,41.06,0,0,1,258.65,84.47Zm-12.31,0a41.13,41.13,0,0,1-5.42-9.41,41.1,41.1,0,0,1,9.55,5.31A44.36,44.36,0,0,0,246.34,84.47Zm-1.67,2a43.64,43.64,0,0,0-6.85,12.49,40.49,40.49,0,0,1-21,.69,43.58,43.58,0,0,0-7.11-13.18,43.63,43.63,0,0,0,7.11-13.18,40.49,40.49,0,0,1,21,.69A43.59,43.59,0,0,0,244.67,86.45Zm-36.61-2a43.78,43.78,0,0,0-5.27-5.08A41,41,0,0,1,213.86,74,41.14,41.14,0,0,1,208.06,84.47Zm-9.48-5.08a44.1,44.1,0,0,0-5.27,5.08A41.05,41.05,0,0,1,187.51,74,41.11,41.11,0,0,1,198.58,79.39Zm-6.94,7.06a43.62,43.62,0,0,0-7.1,13.18,40.5,40.5,0,0,1-21-.69,43.58,43.58,0,0,0-6.85-12.49A43.64,43.64,0,0,0,163.55,74a40.49,40.49,0,0,1,21-.69A43.67,43.67,0,0,0,191.64,86.45Zm-44.79,6.08a41.12,41.12,0,0,1-9.56,5.31,41.08,41.08,0,0,1,5.43-9.41A43.82,43.82,0,0,0,146.85,92.53Zm-2.53-6.08a41.77,41.77,0,0,1,4.55-4.52,41.4,41.4,0,0,1,4.55,4.52A41.34,41.34,0,0,1,148.87,91,41.7,41.7,0,0,1,144.32,86.45Zm6.58,6.08a43.76,43.76,0,0,0,4.13-4.1,40.93,40.93,0,0,1,5.43,9.41A41.2,41.2,0,0,1,150.9,92.53ZM155,84.47a44.07,44.07,0,0,0-4.13-4.1,41.13,41.13,0,0,1,9.56-5.31A41.09,41.09,0,0,1,155,84.47Zm-12.31,0a41.15,41.15,0,0,1-5.43-9.41,41.13,41.13,0,0,1,9.56,5.31A44.35,44.35,0,0,0,142.72,84.47Zm6.16,308.34a41.57,41.57,0,0,1,4.55,4.51,41.09,41.09,0,0,1-4.55,4.52,41.09,41.09,0,0,1-4.55-4.52A41.57,41.57,0,0,1,148.87,392.8Zm-6.16,2.53a41,41,0,0,1-5.43-9.41,41.1,41.1,0,0,1,9.56,5.31A44,44,0,0,0,142.72,395.33Zm8.18-4.1a41.14,41.14,0,0,1,9.56-5.31,41,41,0,0,1-5.43,9.41A44.08,44.08,0,0,0,150.9,391.23Zm-8.18,8.07a44,44,0,0,0,4.13,4.1,41.08,41.08,0,0,1-9.56,5.31A41.15,41.15,0,0,1,142.72,399.3Zm12.31,0a41.24,41.24,0,0,1,5.43,9.41,41.07,41.07,0,0,1-9.56-5.31A44.08,44.08,0,0,0,155,399.3Zm1.67-2a43.58,43.58,0,0,0,6.85-12.49,40.5,40.5,0,0,1,21-.69,43.61,43.61,0,0,0,7.1,13.18,43.62,43.62,0,0,0-7.1,13.18,40.5,40.5,0,0,1-21-.7A43.54,43.54,0,0,0,156.7,397.31Zm36.61,2a43.76,43.76,0,0,0,5.27,5.07,41,41,0,0,1-11.07,5.36A41.2,41.2,0,0,1,193.31,399.3Zm14.76,0a41.1,41.1,0,0,1,5.8,10.43,41,41,0,0,1-11.07-5.36A44,44,0,0,0,208.06,399.3Zm1.67-2a43.61,43.61,0,0,0,7.1-13.18,40.5,40.5,0,0,1,21,.69,43.56,43.56,0,0,0,6.85,12.49,43.63,43.63,0,0,0-6.85,12.49,40.5,40.5,0,0,1-21,.7A43.61,43.61,0,0,0,209.73,397.31Zm36.61,2a44,44,0,0,0,4.13,4.09,40.91,40.91,0,0,1-9.55,5.31A41.08,41.08,0,0,1,246.34,399.3Zm12.31,0a41.13,41.13,0,0,1,5.43,9.4,41,41,0,0,1-9.56-5.31A44.49,44.49,0,0,0,258.65,399.3Zm1.67-2a43.56,43.56,0,0,0,6.85-12.49,40.48,40.48,0,0,1,21-.69,43.57,43.57,0,0,0,7.1,13.18,43.57,43.57,0,0,0-7.1,13.18,40.48,40.48,0,0,1-21-.7A43.63,43.63,0,0,0,260.32,397.31Zm36.61,2a44.06,44.06,0,0,0,5.27,5.07,41,41,0,0,1-11.07,5.36A41.14,41.14,0,0,1,296.93,399.3Zm14.76,0a41.09,41.09,0,0,1,5.8,10.43,41,41,0,0,1-11.07-5.36A44.21,44.21,0,0,0,311.68,399.3Zm1.67-2a43.62,43.62,0,0,0,7.1-13.18,40.5,40.5,0,0,1,21,.69,43.56,43.56,0,0,0,6.85,12.49,43.64,43.64,0,0,0-6.85,12.49,40.5,40.5,0,0,1-21,.7A43.68,43.68,0,0,0,313.35,397.31Zm36.61,2a43.82,43.82,0,0,0,4.13,4.1,41.11,41.11,0,0,1-9.56,5.31A41,41,0,0,1,350,399.3Zm8.18,4.09a44.18,44.18,0,0,0,4.13-4.1,41.05,41.05,0,0,1,5.42,9.41A41,41,0,0,1,358.14,403.4Zm5.8-6.08a43.56,43.56,0,0,0,6.85-12.49,40.54,40.54,0,0,1,21-.7,43.6,43.6,0,0,0,7.11,13.18,43.6,43.6,0,0,0-7.1,13.19,40.54,40.54,0,0,1-21-.7A43.63,43.63,0,0,0,363.94,397.31ZM410,390.25a41,41,0,0,1,11.07-5.36,41,41,0,0,1-5.8,10.43A44,44,0,0,0,410,390.25Zm3.66,7.06a41.13,41.13,0,0,1-5.77,5.48,41.16,41.16,0,0,1-5.77-5.48,41.47,41.47,0,0,1,5.77-5.48A41.43,41.43,0,0,1,413.7,397.31Zm-13.15-2a41.14,41.14,0,0,1-5.8-10.43,41,41,0,0,1,11.08,5.36A43.81,43.81,0,0,0,400.54,395.33Zm0,4a44.13,44.13,0,0,0,5.27,5.08,41,41,0,0,1-11.08,5.35A41.19,41.19,0,0,1,400.54,399.3Zm14.76,0a41.11,41.11,0,0,1,5.8,10.43A41.11,41.11,0,0,1,410,404.38,44.29,44.29,0,0,0,415.31,399.3ZM390.1,52.76A41.34,41.34,0,0,0,391,70.5a42.48,42.48,0,0,0-19.3.63,41.75,41.75,0,0,0,1-18.88,43.43,43.43,0,0,0,10,1.2A43.64,43.64,0,0,0,390.1,52.76ZM321.25,70.5a41.22,41.22,0,0,0,.88-17.74,41.58,41.58,0,0,0,17.47-.51,41.75,41.75,0,0,0,1,18.88A42.52,42.52,0,0,0,321.25,70.5ZM286.48,52.76a41.33,41.33,0,0,0,.87,17.74,42.49,42.49,0,0,0-19.3.63,41.75,41.75,0,0,0,1-18.88,43.39,43.39,0,0,0,10,1.2A43.23,43.23,0,0,0,286.48,52.76ZM217.63,70.5a41.22,41.22,0,0,0,.87-17.74,43.28,43.28,0,0,0,7.47.69,43.42,43.42,0,0,0,10-1.2,41.8,41.8,0,0,0,1,18.88A42.52,42.52,0,0,0,217.63,70.5ZM182.87,52.76a41.28,41.28,0,0,0,.88,17.74,42.52,42.52,0,0,0-19.31.63,41.77,41.77,0,0,0,1-18.88A41.58,41.58,0,0,0,182.87,52.76ZM114,70.5a41.26,41.26,0,0,0,.87-17.74,41.56,41.56,0,0,0,17.47-.51,41.84,41.84,0,0,0,1,18.88A42.49,42.49,0,0,0,114,70.5ZM114.88,431a41.24,41.24,0,0,0-.87-17.74,42.48,42.48,0,0,0,19.3-.63,41.76,41.76,0,0,0-1,18.88A41.74,41.74,0,0,0,114.88,431Zm68.86-17.74a41.29,41.29,0,0,0-.87,17.74,41.76,41.76,0,0,0-17.47.51,41.75,41.75,0,0,0-1-18.88A42.51,42.51,0,0,0,183.74,413.26ZM218.51,431a41.31,41.31,0,0,0-.87-17.74,42.51,42.51,0,0,0,19.3-.63,41.81,41.81,0,0,0-1,18.88A41.75,41.75,0,0,0,218.51,431Zm68.85-17.74a41.31,41.31,0,0,0-.87,17.74,41.73,41.73,0,0,0-17.47.51,41.73,41.73,0,0,0-1-18.88A42.49,42.49,0,0,0,287.36,413.26ZM322.12,431a41.2,41.2,0,0,0-.88-17.74,42.52,42.52,0,0,0,19.31-.63,41.73,41.73,0,0,0-1,18.88A41.76,41.76,0,0,0,322.12,431ZM391,413.26A41.34,41.34,0,0,0,390.1,431a41.73,41.73,0,0,0-17.47.51,41.73,41.73,0,0,0-1-18.88A42.48,42.48,0,0,0,391,413.26ZM425.74,431a41.23,41.23,0,0,0-.87-17.74,42.52,42.52,0,0,0,19.31-.63,41.79,41.79,0,0,0-1,18.88A41.76,41.76,0,0,0,425.74,431Zm45.57-22.3a41.08,41.08,0,0,1-9.56-5.31,44.26,44.26,0,0,0,4.13-4.09A41.11,41.11,0,0,1,471.31,408.71Zm-11.58-6.88a41.31,41.31,0,0,1-4.55-4.51,41.36,41.36,0,0,1,4.55-4.51,41.71,41.71,0,0,1,4.55,4.51A41.66,41.66,0,0,1,459.74,401.82Zm6.15-6.5a43.81,43.81,0,0,0-4.13-4.1,41.13,41.13,0,0,1,9.56-5.31A41.07,41.07,0,0,1,465.89,395.33Zm7.7-32.9a40.83,40.83,0,0,1-1.14,20.39,43.58,43.58,0,0,0-12.72,6.78A43.61,43.61,0,0,0,447,382.81a40.87,40.87,0,0,1-1.14-20.39,43.56,43.56,0,0,0,13.86-7.16A43.55,43.55,0,0,0,473.59,362.43Zm-0.72-2.92a41,41,0,0,1-11.11-5.88,44.21,44.21,0,0,0,5.73-6A41,41,0,0,1,472.87,359.51Zm-13.14-7.45a41.54,41.54,0,0,1-6.2-6.55,41.4,41.4,0,0,1,6.2-6.55,41.45,41.45,0,0,1,6.19,6.55A41.59,41.59,0,0,1,459.74,352.05Zm7.75-8.68a44.21,44.21,0,0,0-5.73-6,41.11,41.11,0,0,1,11.11-5.88A41,41,0,0,1,467.49,343.37Zm5-35.18a40.82,40.82,0,0,1,1.14,20.39,43.55,43.55,0,0,0-13.85,7.16,43.57,43.57,0,0,0-13.86-7.16A40.89,40.89,0,0,1,447,308.19a43.49,43.49,0,0,0,12.72-6.78A43.57,43.57,0,0,0,472.45,308.19Zm-1.14-3.11a40.91,40.91,0,0,1-9.56-5.31,42.94,42.94,0,0,0,4.13-4.09A41.21,41.21,0,0,1,471.31,305.08Zm-11.58-6.88a40.86,40.86,0,0,1-4.55-4.51,41.25,41.25,0,0,1,4.55-4.51,41.6,41.6,0,0,1,4.55,4.51A41.2,41.2,0,0,1,459.74,298.2Zm6.15-6.49a44,44,0,0,0-4.13-4.1,41.06,41.06,0,0,1,9.56-5.31A41.15,41.15,0,0,1,465.89,291.71Zm7.7-32.91a40.82,40.82,0,0,1-1.14,20.39A43.58,43.58,0,0,0,459.74,286,43.62,43.62,0,0,0,447,279.19a40.89,40.89,0,0,1-1.14-20.39,43.64,43.64,0,0,0,13.86-7.16A43.62,43.62,0,0,0,473.59,258.8Zm-0.72-2.92A41,41,0,0,1,461.76,250a43.94,43.94,0,0,0,5.73-6A41,41,0,0,1,472.87,255.89Zm-13.13-7.45a41.63,41.63,0,0,1-6.2-6.55,41.66,41.66,0,0,1,6.2-6.55,41.5,41.5,0,0,1,6.19,6.55A41.47,41.47,0,0,1,459.74,248.43Zm7.75-8.68a44.08,44.08,0,0,0-5.73-6,41.07,41.07,0,0,1,11.11-5.88A41,41,0,0,1,467.49,239.75Zm5-35.18A40.87,40.87,0,0,1,473.59,225a43.54,43.54,0,0,0-13.86,7.16A43.59,43.59,0,0,0,445.88,225,40.84,40.84,0,0,1,447,204.57a43.59,43.59,0,0,0,12.72-6.78A43.57,43.57,0,0,0,472.45,204.57Zm-1.14-3.11a41.14,41.14,0,0,1-9.55-5.31,43.43,43.43,0,0,0,4.13-4.09A41.13,41.13,0,0,1,471.31,201.46Zm-7-11.39a41,41,0,0,1-4.54,4.51,41.21,41.21,0,0,1-4.55-4.51,42,42,0,0,1,4.55-4.51A41.78,41.78,0,0,1,464.28,190.07Zm1.61-2a44.8,44.8,0,0,0-4.13-4.09,41.13,41.13,0,0,1,9.55-5.31A41,41,0,0,1,465.89,188.09Zm7.7-32.91a40.86,40.86,0,0,1-1.14,20.4,43.56,43.56,0,0,0-12.72,6.78A43.48,43.48,0,0,0,447,175.58a40.87,40.87,0,0,1-1.14-20.4A43.56,43.56,0,0,0,459.74,148,43.54,43.54,0,0,0,473.59,155.18Zm-0.72-2.92a41,41,0,0,1-11.11-5.88,44.22,44.22,0,0,0,5.73-6A41.07,41.07,0,0,1,472.87,152.26Zm-13.14-7.45a41.64,41.64,0,0,1-6.2-6.55,41.48,41.48,0,0,1,6.2-6.55,41.44,41.44,0,0,1,6.19,6.55A41.6,41.6,0,0,1,459.74,144.81Zm7.75-8.68a44.06,44.06,0,0,0-5.73-6,41.11,41.11,0,0,1,11.11-5.88A41,41,0,0,1,467.49,136.13Zm5-35.18a40.83,40.83,0,0,1,1.14,20.39,43.54,43.54,0,0,0-13.85,7.16,43.55,43.55,0,0,0-13.86-7.16A40.88,40.88,0,0,1,447,100.95a43.62,43.62,0,0,0,12.72-6.78A43.58,43.58,0,0,0,472.45,100.95Zm-1.14-3.11a41.12,41.12,0,0,1-9.56-5.31,43.77,43.77,0,0,0,4.13-4.1A41.08,41.08,0,0,1,471.31,97.84ZM459.74,91a41.31,41.31,0,0,1-4.55-4.51,41.31,41.31,0,0,1,4.55-4.51,41.66,41.66,0,0,1,4.55,4.51A41.66,41.66,0,0,1,459.74,91Zm6.15-6.49a44.06,44.06,0,0,0-4.13-4.1,41.07,41.07,0,0,1,9.56-5.31A41.14,41.14,0,0,1,465.89,84.47Zm7.7-32.9A40.87,40.87,0,0,1,472.45,72a43.47,43.47,0,0,0-12.72,6.78A43.5,43.5,0,0,0,447,72a40.87,40.87,0,0,1-1.14-20.39,43.58,43.58,0,0,0,13.86-7.16A43.52,43.52,0,0,0,473.59,51.56Zm-27-2.92A41,41,0,0,1,452,36.77a44,44,0,0,0,5.73,6A41,41,0,0,1,446.6,48.64Zm26.28,0a41,41,0,0,1-11.11-5.88,44.23,44.23,0,0,0,5.73-6A40.93,40.93,0,0,1,472.87,48.64Zm-6.94-14a41.6,41.6,0,0,1-6.19,6.55,41.56,41.56,0,0,1-6.2-6.55,41.4,41.4,0,0,1,6.2-6.55A41.44,41.44,0,0,1,465.93,34.64Zm6.94-14a41,41,0,0,1-5.38,11.87,44.11,44.11,0,0,0-5.73-6A41.15,41.15,0,0,1,472.87,20.64Zm-15.16,5.88a44.08,44.08,0,0,0-5.73,6,41,41,0,0,1-5.38-11.87A41.09,41.09,0,0,1,457.71,26.52Zm-24.49-8.16a40.88,40.88,0,0,1,10.55,1.42,43.4,43.4,0,0,0,6.62,14.85,43.44,43.44,0,0,0-6.62,14.86,41.07,41.07,0,0,1-10.55,1.42,40.92,40.92,0,0,1-7.94-.79,43.49,43.49,0,0,0-6.78-15.49,43.37,43.37,0,0,0,6.78-15.49A41.28,41.28,0,0,1,433.22,18.36ZM422.5,19.83a40.88,40.88,0,0,1-5.59,12.68,44,44,0,0,0-6.87-7A40.86,40.86,0,0,1,422.5,19.83Zm-16.68,5.71a43.72,43.72,0,0,0-6.87,7,41,41,0,0,1-5.59-12.68A40.91,40.91,0,0,1,405.82,25.54Zm-23.18-7.18a41.21,41.21,0,0,1,7.93.79,43.48,43.48,0,0,0,6.78,15.49,43.44,43.44,0,0,0-6.78,15.5,41.21,41.21,0,0,1-7.93.78,41.07,41.07,0,0,1-10.55-1.42,43.43,43.43,0,0,0-6.62-14.86,43.4,43.4,0,0,0,6.62-14.85A40.91,40.91,0,0,1,382.64,18.36Zm-13.38,2.28a41,41,0,0,1-5.38,11.87,44.11,44.11,0,0,0-5.73-6A41.06,41.06,0,0,1,369.26,20.64Zm-15.16,5.88a44,44,0,0,0-5.73,6A40.93,40.93,0,0,1,343,20.64,41,41,0,0,1,354.09,26.52ZM329.6,18.36a40.84,40.84,0,0,1,10.55,1.42,43.43,43.43,0,0,0,6.62,14.85,43.44,43.44,0,0,0-6.62,14.86,41,41,0,0,1-10.55,1.42,40.93,40.93,0,0,1-7.94-.79,43.47,43.47,0,0,0-6.79-15.49,43.37,43.37,0,0,0,6.78-15.49A41.35,41.35,0,0,1,329.6,18.36Zm-10.73,1.47a41,41,0,0,1-5.59,12.68,44,44,0,0,0-6.87-7A41,41,0,0,1,318.87,19.83Zm-16.68,5.71a44,44,0,0,0-6.87,7,40.92,40.92,0,0,1-5.59-12.68A40.88,40.88,0,0,1,302.19,25.54ZM279,18.36a41.21,41.21,0,0,1,7.94.79,43.5,43.5,0,0,0,6.78,15.49,43.55,43.55,0,0,0-6.78,15.49,40.88,40.88,0,0,1-7.94.79,41,41,0,0,1-10.55-1.42,43.43,43.43,0,0,0-6.62-14.86,43.4,43.4,0,0,0,6.62-14.85A40.86,40.86,0,0,1,279,18.36Zm-13.38,2.28a40.94,40.94,0,0,1-5.38,11.87,44.07,44.07,0,0,0-5.73-6A41.07,41.07,0,0,1,265.64,20.64Zm-15.16,5.88a44.06,44.06,0,0,0-5.73,6,41,41,0,0,1-5.38-11.87A41,41,0,0,1,250.47,26.52ZM226,18.36a40.88,40.88,0,0,1,10.55,1.42,43.47,43.47,0,0,0,6.62,14.85,43.51,43.51,0,0,0-6.62,14.86A41.07,41.07,0,0,1,226,50.92a40.88,40.88,0,0,1-7.94-.79,43.54,43.54,0,0,0-6.79-15.49A43.37,43.37,0,0,0,218,19.15,41.28,41.28,0,0,1,226,18.36Zm-10.72,1.47a41,41,0,0,1-5.59,12.68,44.11,44.11,0,0,0-6.87-7A40.91,40.91,0,0,1,215.26,19.83Zm-16.68,5.71a44,44,0,0,0-6.87,7,40.91,40.91,0,0,1-5.59-12.68A41.09,41.09,0,0,1,198.58,25.54Zm-23.19-7.18a41.3,41.3,0,0,1,7.94.79,43.41,43.41,0,0,0,6.78,15.49,43.47,43.47,0,0,0-6.79,15.49,40.92,40.92,0,0,1-7.94.79,41,41,0,0,1-10.55-1.42,43.48,43.48,0,0,0-6.62-14.86,43.43,43.43,0,0,0,6.62-14.85A40.88,40.88,0,0,1,175.39,18.36ZM162,20.64a41,41,0,0,1-5.38,11.87,44,44,0,0,0-5.73-6A41,41,0,0,1,162,20.64Zm-15.16,5.88a43.64,43.64,0,0,0-5.73,6,41,41,0,0,1-5.38-11.87A41,41,0,0,1,146.85,26.52Zm-24.49-8.16a40.85,40.85,0,0,1,10.55,1.42,43.44,43.44,0,0,0,6.62,14.85A43.49,43.49,0,0,0,132.9,49.5a41,41,0,0,1-10.54,1.42,40.9,40.9,0,0,1-7.94-.79,43.5,43.5,0,0,0-6.78-15.49,43.41,43.41,0,0,0,6.78-15.49A41.27,41.27,0,0,1,122.36,18.36Zm-10.72,1.47A41,41,0,0,1,106,32.51a43.92,43.92,0,0,0-6.87-7A40.91,40.91,0,0,1,111.64,19.83ZM95,25.54a44.09,44.09,0,0,0-6.87,7,41,41,0,0,1-5.59-12.68A40.88,40.88,0,0,1,95,25.54ZM71.77,18.36a41.23,41.23,0,0,1,7.94.79,43.49,43.49,0,0,0,6.78,15.49,43.46,43.46,0,0,0-6.78,15.49,40.91,40.91,0,0,1-7.94.79A41.07,41.07,0,0,1,61.22,49.5,43.47,43.47,0,0,0,54.6,34.64a43.42,43.42,0,0,0,6.62-14.85A40.9,40.9,0,0,1,71.77,18.36ZM43.23,42.76a41,41,0,0,1-11.11,5.88,41,41,0,0,1,5.39-11.87A44,44,0,0,0,43.23,42.76Zm-4.17-8.12a41.34,41.34,0,0,1,6.19-6.55,41.45,41.45,0,0,1,6.19,6.55,41.61,41.61,0,0,1-6.19,6.55A41.5,41.5,0,0,1,39.06,34.64ZM53,36.77a40.93,40.93,0,0,1,5.38,11.87,41,41,0,0,1-11.11-5.88A44.09,44.09,0,0,0,53,36.77Zm5.38-16.13A41,41,0,0,1,53,32.51a44,44,0,0,0-5.73-6A41.09,41.09,0,0,1,58.39,20.64ZM43.23,26.52a44.09,44.09,0,0,0-5.73,6,41.08,41.08,0,0,1-5.38-11.87A41.1,41.1,0,0,1,43.23,26.52ZM10.81,50.13A43.5,43.5,0,0,0,4,34.64a43.46,43.46,0,0,0,6.79-15.49,41.22,41.22,0,0,1,7.94-.79,40.91,40.91,0,0,1,10.55,1.42,43.42,43.42,0,0,0,6.62,14.85A43.47,43.47,0,0,0,29.29,49.5a41.07,41.07,0,0,1-10.55,1.42A40.89,40.89,0,0,1,10.81,50.13ZM10.4,70.5a43.53,43.53,0,0,0,1.45-11,43.7,43.7,0,0,0-.58-6.76,43.23,43.23,0,0,0,7.47.69,43.43,43.43,0,0,0,10-1.2,41.74,41.74,0,0,0,1,18.88,43.45,43.45,0,0,0-11-1.45A43.7,43.7,0,0,0,10.4,70.5Zm20.22-11a41.12,41.12,0,0,1,.79-8A43.48,43.48,0,0,0,45.26,44.4a43.52,43.52,0,0,0,13.86,7.16,41.3,41.3,0,0,1,.79,8A41,41,0,0,1,58,72a43.45,43.45,0,0,0-12.71,6.78,43.58,43.58,0,0,0-12.72-6.78A41,41,0,0,1,30.61,59.52ZM9.6,99.63a43.53,43.53,0,0,0-7.1-13.18A43.62,43.62,0,0,0,9.6,73.27a40.49,40.49,0,0,1,21,.69,43.63,43.63,0,0,0,6.85,12.49,43.67,43.67,0,0,0-6.85,12.48A40.44,40.44,0,0,1,9.6,99.63Zm1.67,20.51a44,44,0,0,0,.58-6.77,43.57,43.57,0,0,0-1.45-11,43.65,43.65,0,0,0,8.34.82,43.47,43.47,0,0,0,11-1.45,41.7,41.7,0,0,0-1,18.88,43.67,43.67,0,0,0-10-1.2A43.67,43.67,0,0,0,11.27,120.14Zm19.34-6.77a41,41,0,0,1,1.93-12.42,43.58,43.58,0,0,0,12.72-6.78A43.58,43.58,0,0,0,58,100.95a40.92,40.92,0,0,1,1.14,20.39,43.53,43.53,0,0,0-13.85,7.16,43.55,43.55,0,0,0-13.86-7.16A41.16,41.16,0,0,1,30.61,113.37ZM10.8,153.75A43.41,43.41,0,0,0,4,138.26a43.44,43.44,0,0,0,6.78-15.49,41.23,41.23,0,0,1,7.94-.79,40.91,40.91,0,0,1,10.55,1.42,43.45,43.45,0,0,0,6.62,14.86,43.39,43.39,0,0,0-6.62,14.85,40.92,40.92,0,0,1-10.55,1.42A41.25,41.25,0,0,1,10.8,153.75Zm-0.41,20.38a43.47,43.47,0,0,0,1.45-11,44,44,0,0,0-.58-6.77,43.26,43.26,0,0,0,7.47.69,43.42,43.42,0,0,0,10-1.2,41.73,41.73,0,0,0,1,18.89,43.47,43.47,0,0,0-11-1.45A43.71,43.71,0,0,0,10.39,174.13Zm20.22-11a41.16,41.16,0,0,1,.79-8A43.55,43.55,0,0,0,45.26,148a43.54,43.54,0,0,0,13.85,7.16A40.91,40.91,0,0,1,58,175.58a43.54,43.54,0,0,0-12.71,6.78,43.45,43.45,0,0,0-12.72-6.78A41,41,0,0,1,30.61,163.15Zm-21,40.1a43.61,43.61,0,0,0-7.1-13.18A43.5,43.5,0,0,0,9.6,176.9a40.46,40.46,0,0,1,21,.7,43.58,43.58,0,0,0,6.85,12.48,43.61,43.61,0,0,0-6.85,12.48A40.51,40.51,0,0,1,9.6,203.25Zm1.67,20.51a43.63,43.63,0,0,0,.58-6.76,43.45,43.45,0,0,0-1.45-11,43.71,43.71,0,0,0,8.35.82,43.46,43.46,0,0,0,11-1.45,41.76,41.76,0,0,0-1,18.89,43.65,43.65,0,0,0-10-1.2A43.7,43.7,0,0,0,11.27,223.76ZM30.61,217a41,41,0,0,1,1.93-12.43,43.58,43.58,0,0,0,12.71-6.78A43.56,43.56,0,0,0,58,204.57,41,41,0,0,1,59.9,217a41.28,41.28,0,0,1-.79,8,43.54,43.54,0,0,0-13.86,7.16A43.58,43.58,0,0,0,31.4,225,41.1,41.1,0,0,1,30.61,217ZM10.8,257.37A43.45,43.45,0,0,0,4,241.88a43.48,43.48,0,0,0,6.79-15.49,41.18,41.18,0,0,1,7.94-.79A40.89,40.89,0,0,1,29.29,227a43.49,43.49,0,0,0,6.62,14.86,43.51,43.51,0,0,0-6.62,14.85,40.91,40.91,0,0,1-10.55,1.42A40.88,40.88,0,0,1,10.8,257.37ZM10.4,277.75a43.62,43.62,0,0,0,1.45-11,43.81,43.81,0,0,0-.58-6.77,43.69,43.69,0,0,0,7.47.69,43.67,43.67,0,0,0,10-1.2,41.71,41.71,0,0,0,1,18.89,43.46,43.46,0,0,0-11-1.45A43.68,43.68,0,0,0,10.4,277.75Zm20.21-11a41.23,41.23,0,0,1,.79-8,43.55,43.55,0,0,0,13.86-7.16,43.54,43.54,0,0,0,13.85,7.16,41.23,41.23,0,0,1,.79,8A41,41,0,0,1,58,279.19,43.56,43.56,0,0,0,45.26,286a43.58,43.58,0,0,0-12.72-6.78A40.94,40.94,0,0,1,30.61,266.77Zm-21,40.1A43.7,43.7,0,0,0,2.5,293.7a43.58,43.58,0,0,0,7.1-13.18,40.44,40.44,0,0,1,21,.7,43.61,43.61,0,0,0,6.85,12.48,43.61,43.61,0,0,0-6.85,12.48A40.49,40.49,0,0,1,9.6,306.87Zm1.67,20.51a43.7,43.7,0,0,0,.58-6.76,43.52,43.52,0,0,0-1.45-11,43.72,43.72,0,0,0,8.35.82,43.47,43.47,0,0,0,11-1.45,41.74,41.74,0,0,0-1,18.88,43.65,43.65,0,0,0-10-1.2A43.74,43.74,0,0,0,11.27,327.39Zm19.34-6.76a41,41,0,0,1,1.93-12.43,43.48,43.48,0,0,0,12.72-6.78A43.47,43.47,0,0,0,58,308.19a40.9,40.9,0,0,1,1.14,20.39,43.53,43.53,0,0,0-13.85,7.16,43.56,43.56,0,0,0-13.86-7.16A41.14,41.14,0,0,1,30.61,320.62ZM10.8,361A43.45,43.45,0,0,0,4,345.51,43.44,43.44,0,0,0,10.8,330a41.19,41.19,0,0,1,7.94-.79,40.92,40.92,0,0,1,10.55,1.42,43.48,43.48,0,0,0,6.62,14.86,43.43,43.43,0,0,0-6.62,14.85,40.92,40.92,0,0,1-10.55,1.42A40.87,40.87,0,0,1,10.8,361ZM10.4,381.37a43.52,43.52,0,0,0,1.45-11,43.8,43.8,0,0,0-.58-6.77,43.28,43.28,0,0,0,7.47.69,43.39,43.39,0,0,0,10-1.2,41.77,41.77,0,0,0,1,18.88,43.43,43.43,0,0,0-11-1.45A43.67,43.67,0,0,0,10.4,381.37Zm20.22-11a41.16,41.16,0,0,1,.79-8,43.47,43.47,0,0,0,13.86-7.16,43.52,43.52,0,0,0,13.85,7.16,41.18,41.18,0,0,1,.79,8A40.94,40.94,0,0,1,58,382.81a43.56,43.56,0,0,0-12.72,6.78,43.58,43.58,0,0,0-12.72-6.78A41,41,0,0,1,30.61,370.39Zm-21,40.1a43.58,43.58,0,0,0-7.1-13.18,43.52,43.52,0,0,0,7.1-13.18,40.5,40.5,0,0,1,21,.69,43.62,43.62,0,0,0,6.85,12.49,43.58,43.58,0,0,0-6.85,12.49A40.49,40.49,0,0,1,9.6,410.49ZM11.27,431a43.4,43.4,0,0,0,.58-6.76,43.5,43.5,0,0,0-1.45-11,43.72,43.72,0,0,0,8.35.82,43.45,43.45,0,0,0,11-1.45,41.77,41.77,0,0,0-1,18.88,43.67,43.67,0,0,0-10-1.2A43.68,43.68,0,0,0,11.27,431Zm19.34-6.76a41,41,0,0,1,1.93-12.43A43.6,43.6,0,0,0,45.26,405,43.57,43.57,0,0,0,58,411.81a40.89,40.89,0,0,1,1.14,20.39,43.53,43.53,0,0,0-13.85,7.16A43.56,43.56,0,0,0,31.4,432.2,41.29,41.29,0,0,1,30.61,424.24Zm14.64,18.33a41.51,41.51,0,0,1,6.19,6.55,41.36,41.36,0,0,1-6.19,6.55,41.35,41.35,0,0,1-6.19-6.55A41.5,41.5,0,0,1,45.26,442.57ZM37.5,447a41.06,41.06,0,0,1-5.38-11.87A41.11,41.11,0,0,1,43.23,441,43.88,43.88,0,0,0,37.5,447Zm9.78-6a41.13,41.13,0,0,1,11.11-5.88A41,41,0,0,1,53,447,44.1,44.1,0,0,0,47.28,441Zm-28.54,24.4a41.23,41.23,0,0,1-7.94-.79A43.43,43.43,0,0,0,4,449.12a43.43,43.43,0,0,0,6.79-15.5,41.23,41.23,0,0,1,7.94-.79,40.9,40.9,0,0,1,10.55,1.42,43.45,43.45,0,0,0,6.62,14.86A43.44,43.44,0,0,0,29.29,464,40.89,40.89,0,0,1,18.74,465.41Zm13.38-2.28a41,41,0,0,1,5.38-11.87,44.12,44.12,0,0,0,5.73,6A41.12,41.12,0,0,1,32.12,463.13Zm15.16-5.88a44.1,44.1,0,0,0,5.73-6,41,41,0,0,1,5.38,11.87A41,41,0,0,1,47.28,457.25Zm24.49,8.16A40.88,40.88,0,0,1,61.22,464a43.49,43.49,0,0,0-6.62-14.86,43.49,43.49,0,0,0,6.62-14.86,40.06,40.06,0,0,1,18.48-.64,43.47,43.47,0,0,0,6.78,15.5,43.46,43.46,0,0,0-6.78,15.49A41.23,41.23,0,0,1,71.77,465.41Zm10.72-1.47a40.91,40.91,0,0,1,5.59-12.68,44.35,44.35,0,0,0,6.87,7A40.9,40.9,0,0,1,82.49,463.94Zm16.68-5.71a44.08,44.08,0,0,0,6.87-7,40.94,40.94,0,0,1,5.59,12.69A40.9,40.9,0,0,1,99.17,458.22Zm23.19,7.18a41.23,41.23,0,0,1-7.94-.79,43.42,43.42,0,0,0-6.78-15.49,43.43,43.43,0,0,0,6.78-15.5,40.12,40.12,0,0,1,18.48.63,43.49,43.49,0,0,0,6.62,14.86A43.48,43.48,0,0,0,132.9,464,41,41,0,0,1,122.36,465.41Zm13.37-2.28a41,41,0,0,1,5.38-11.88,43.8,43.8,0,0,0,5.73,6A41.05,41.05,0,0,1,135.73,463.13Zm15.17-5.88a43.9,43.9,0,0,0,5.73-6A41,41,0,0,1,162,463.13,41,41,0,0,1,150.9,457.25Zm24.49,8.16A41,41,0,0,1,164.84,464a43.47,43.47,0,0,0-6.62-14.86,43.48,43.48,0,0,0,6.62-14.86,40.14,40.14,0,0,1,18.49-.63,43.43,43.43,0,0,0,6.78,15.5,43.42,43.42,0,0,0-6.78,15.49A41.3,41.3,0,0,1,175.39,465.41Zm10.73-1.47a40.94,40.94,0,0,1,5.59-12.69,44.06,44.06,0,0,0,6.87,7A41.12,41.12,0,0,1,186.11,463.94Zm16.68-5.71a44.16,44.16,0,0,0,6.87-7,41,41,0,0,1,5.59,12.68A40.92,40.92,0,0,1,202.79,458.22ZM226,465.41a41.23,41.23,0,0,1-7.94-.79,43.43,43.43,0,0,0-6.78-15.49,43.43,43.43,0,0,0,6.78-15.5,40.07,40.07,0,0,1,18.49.64,43.5,43.5,0,0,0,6.62,14.86A43.49,43.49,0,0,0,236.53,464,40.88,40.88,0,0,1,226,465.41Zm13.38-2.28a40.82,40.82,0,0,1,5.38-11.87,44.05,44.05,0,0,0,5.73,6A41,41,0,0,1,239.36,463.13Zm15.16-5.88a44,44,0,0,0,5.73-6,41,41,0,0,1,5.39,11.88A41,41,0,0,1,254.52,457.25ZM279,465.41A41,41,0,0,1,268.47,464a43.48,43.48,0,0,0-6.62-14.86,43.48,43.48,0,0,0,6.62-14.86,40.12,40.12,0,0,1,18.48-.63,43.44,43.44,0,0,0,6.78,15.5,43.44,43.44,0,0,0-6.78,15.49A41.22,41.22,0,0,1,279,465.41Zm10.72-1.47a41,41,0,0,1,5.59-12.68,44.15,44.15,0,0,0,6.87,7A40.94,40.94,0,0,1,289.73,463.94Zm16.68-5.71a43.91,43.91,0,0,0,6.87-7,40.94,40.94,0,0,1,5.59,12.69A41,41,0,0,1,306.41,458.22Zm23.19,7.18a41.27,41.27,0,0,1-7.94-.79,43.46,43.46,0,0,0-6.79-15.49,43.47,43.47,0,0,0,6.79-15.5,40.14,40.14,0,0,1,18.49.63,43.45,43.45,0,0,0,6.62,14.86A43.44,43.44,0,0,0,340.15,464,41,41,0,0,1,329.6,465.41ZM343,463.13a41,41,0,0,1,5.39-11.87,44.21,44.21,0,0,0,5.73,6A41,41,0,0,1,343,463.13Zm15.17-5.88a43.86,43.86,0,0,0,5.73-6,41,41,0,0,1,5.39,11.88A41,41,0,0,1,358.14,457.25Zm24.49,8.16A40.9,40.9,0,0,1,372.09,464a43.45,43.45,0,0,0-6.62-14.86,43.45,43.45,0,0,0,6.62-14.86,40.05,40.05,0,0,1,18.48-.64,43.42,43.42,0,0,0,6.78,15.5,43.41,43.41,0,0,0-6.78,15.49A41.21,41.21,0,0,1,382.64,465.41Zm10.71-1.47a41,41,0,0,1,5.59-12.68,44.17,44.17,0,0,0,6.87,7A41,41,0,0,1,393.35,463.94ZM410,458.22a44.26,44.26,0,0,0,6.87-7,41,41,0,0,1,5.59,12.68A40.9,40.9,0,0,1,410,458.22Zm23.19,7.18a41.26,41.26,0,0,1-7.94-.79,43.45,43.45,0,0,0-6.78-15.49,43.46,43.46,0,0,0,6.78-15.5,40.08,40.08,0,0,1,18.49.64,43.49,43.49,0,0,0,6.62,14.86A43.49,43.49,0,0,0,443.77,464,40.89,40.89,0,0,1,433.22,465.41Zm13.38-2.28A41,41,0,0,1,452,451.25a43.75,43.75,0,0,0,5.73,6A41,41,0,0,1,446.6,463.13Zm15.16-5.88a43.87,43.87,0,0,0,5.73-6,41,41,0,0,1,5.38,11.88A41.17,41.17,0,0,1,461.76,457.25Z" transform="translate(0 -1.22)"/></g></g></svg>