<svg id="圖層_1" data-name="圖層 1" xmlns="http://www.w3.org/2000/svg" xmlns:xlink="http://www.w3.org/1999/xlink" viewBox="0 0 775.21 727.25"><defs><style>.cls-1{fill:none;}.cls-2{clip-path:url(#clip-path);}.cls-3,.cls-4{fill:#fff;}.cls-3,.cls-5,.cls-6,.cls-7,.cls-8,.cls-9{fill-rule:evenodd;}.cls-5,.cls-6,.cls-7,.cls-8{fill:#0b9e9e;}.cls-5{opacity:0.42;}.cls-6{opacity:0.41;}.cls-7{opacity:0.5;}.cls-8{opacity:0.24;}.cls-9{fill:#1799aa;opacity:0.32;}</style><clipPath id="clip-path" transform="translate(338.39 -32.95)"><circle class="cls-1" cx="239.41" cy="241.26" r="233.38"/></clipPath></defs><title>logo</title><g class="cls-2"><path class="cls-3" d="M436.82,371.72C386,317.32,332.42,279,283.91,244.59c-31.38-22.28,2.27-58.72,12-84.71-18.15-5.34-8.54-19.21-22.42-33.09s-43.77,0-43.77,0a46.7,46.7,0,0,0-13.88-13.88c-13.88,3.2-24.55,20.07-20.44,31.81a24.79,24.79,0,0,0,19.66,16.75c-2.36,1.18-2.69,10.23-2.26,19.62,1.11,24,18.92,26,2,55.65C202,259.15,188,282.71,186.62,351c-4.84,233.87-441.41,289.16-525,19.58L-338,760.2H436.82V371.72Z" transform="translate(338.39 -32.95)"/><path class="cls-4" d="M215.71,136.54c-0.4-1.27-.85-2.62-1.32-4.05v-5.78c0.73,2.14,1.43,4.19,2.08,6.13,0.55-2.26,1.15-4.63,1.77-7.06,3.17-12.51,6.83-27,6.83-37.84,0-9.2-2.67-15.79-10.68-16.21V69.86c9.41,0.4,12.54,7.78,12.54,18.09,0,11.1-3.69,25.67-6.89,38.29-0.92,3.64-1.81,7.12-2.53,10.25A0.93,0.93,0,0,1,215.71,136.54Zm-1.32-4.05c-0.66-2-1.39-4.09-2.14-6.28-4.65-13.54-10.4-30.31-10.4-41.93,0-8.59,3.05-14.44,11.72-14.44l0.82,0v1.87l-0.83,0c-7.28,0-9.85,5.1-9.85,12.58,0,11.31,5.7,27.91,10.3,41.32l0.38,1.1v5.78Z" transform="translate(338.39 -32.95)"/><path class="cls-4" d="M309.85,142.2c6.3-7,12.08-14.29,15-20.63,3.15-6.79,3-12.49-3.63-15.56-4.55-2.12-8.28-1.36-11.39,1.33v-2.45c3.36-2.35,7.35-2.81,12.18-.57,7.86,3.65,8.16,10.24,4.54,18-3.26,7-9.79,15-16.72,22.62V142.2Zm-17,18c1.62-1.72,3.41-3.58,5.28-5.53,3.75-3.9,7.84-8.16,11.73-12.5V145c-3.48,3.83-7.07,7.56-10.39,11-2.73,2.84-5.28,5.49-7.5,7.92h0a0.93,0.93,0,0,1-1.6-.81c0.67-3.21,1.34-6.7,2-10.36,2.42-12.8,5.21-27.57,9.89-37.63,2.11-4.53,4.59-8.12,7.58-10.22v2.45a25.31,25.31,0,0,0-5.89,8.55c-4.59,9.87-7.36,24.51-9.75,37.19C293.74,155.55,293.28,158,292.83,160.22Z" transform="translate(338.39 -32.95)"/><path class="cls-5" d="M249.08,242.09c25.33,13.44,31-10.36,13-17a61.24,61.24,0,0,0-13-3v3a61.57,61.57,0,0,1,11,2.47c13.87,4.7,8.48,21-11,11v3.48Zm-22.73-18c8.78,8.93,16.37,14.65,22.73,18v-3.48c-5.25-2.7-11.52-7.31-18.72-14.6a131.79,131.79,0,0,1,18.72,1.12v-3a139.64,139.64,0,0,0-21.49-.92l-3.92.15Z" transform="translate(338.39 -32.95)"/><path class="cls-3" d="M223,224.65c-9.55,12.73-18.06,20.81-25.28,25.55V245.8c5.93-3.82,12.91-10.33,20.66-20.6a155.47,155.47,0,0,0-20.66,4v-3.59a165.59,165.59,0,0,1,23.41-4.06l4.54-.44ZM197.73,250.2C172.07,267,162.81,241.5,182,231.35a73.38,73.38,0,0,1,15.73-5.76v3.59a72.78,72.78,0,0,0-13,4.72c-14.91,7.37-6.89,24.7,13,11.9v4.39Z" transform="translate(338.39 -32.95)"/><path class="cls-6" d="M222.67,224.16c-1.8,2.51-3.44,4.93-4.92,7.25v5.81c1.62-2.76,3.51-5.68,5.73-8.79,2.24,12.64,3,24,1.66,32.43-0.93,5.94-4.14,9.24-7.39,9.83v5.23c4.61-1.25,9.07-5.77,10.45-13.29,1.73-9.42.75-22.84-2.22-37.67l-0.88-4.17Zm-4.92,7.25c-21.42,33.58-10.35,47.31,0,44.51v-5.23c-6.89,1.25-14-9.66,0-33.46v-5.81Z" transform="translate(338.39 -32.95)"/><path class="cls-7" d="M237.67,231.43c24.57,22.32,10.25,34.72,0,27.31V255c7.12,6.52,17.34-3.28,0-20.25v-3.3Zm-10-8a112.7,112.7,0,0,1,10,8v3.3a83.89,83.89,0,0,0-9.55-7.93c1.51,10,3.83,18.72,6.93,24.68a12.58,12.58,0,0,0,2.62,3.5v3.76a15.73,15.73,0,0,1-4.46-5.17c-3.67-6.61-6.32-16.9-7.84-28.75L225,221.48Z" transform="translate(338.39 -32.95)"/><path class="cls-8" d="M336,552.83c72.9-150.52-48.85-275.6-111.47-331C306,280.24,423.38,404.27,336,552.83Z" transform="translate(338.39 -32.95)"/><path class="cls-4" d="M275.82,39.84a1.54,1.54,0,0,1-2.95-.91,8.49,8.49,0,0,1,6.41-5.82,8.49,8.49,0,0,1,7.5,14.52,8.55,8.55,0,0,1-3.87,2.07l-0.2,0h0c-0.5.11-1.81,0.38-2.13,1.41l-2.92,9.45a1.54,1.54,0,1,1-2.95-.91l2.92-9.45a5.34,5.34,0,0,1,4.44-3.53h0l0.12,0a5.43,5.43,0,0,0,2.46-1.31,5.4,5.4,0,0,0-4.77-9.25,5.45,5.45,0,0,0-2.42,1.18,5.36,5.36,0,0,0-1,1.14A5.42,5.42,0,0,0,275.82,39.84Z" transform="translate(338.39 -32.95)"/><path class="cls-4" d="M281.42,108.15v-3.29c4.69,1.76,9.44,3.62,14,5.41C310,116,323,121,326.8,120.47c0,0,.1.39,0.08,0.23-0.76-5.34-18.41-20.85-29.7-30.75-2.38-2.09-4.48-3.93-6.07-5.37-4.09-3.7-6.77-8.4-9.17-12.85l-0.52.33v-7.6c0.42,0.69.83,1.41,1.24,2.14A5.45,5.45,0,0,0,283,66a3.4,3.4,0,0,0,.28-1.64,2.72,2.72,0,0,0-1.82-2.09V58.95h0c3.18,1,4.62,2.88,4.86,5a6.44,6.44,0,0,1-.5,3.13,9.43,9.43,0,0,1-1.52,2.47c2.38,4.41,5,9.14,8.89,12.68,1.62,1.47,3.69,3.28,6,5.34,11.63,10.2,29.82,26.17,30.73,32.65,0.27,1.94-.7,3-2.72,3.26-4.61.65-17.9-4.54-32.88-10.38C290.11,111.49,285.75,109.79,281.42,108.15Zm0-49.21v3.29a7,7,0,0,0-.86-0.33,7.84,7.84,0,0,0-1-.23c0.64,0.87,1.25,1.8,1.84,2.78v7.6a10.6,10.6,0,0,1-2,.94V69.67a8,8,0,0,0,1.06-.66c-0.33-.6-0.66-1.2-1-1.78a4.75,4.75,0,0,1-.07.63V58.53a11.26,11.26,0,0,1,2,.42h0Zm0,45.91v3.29l-2-.76v-3.29ZM275.5,68.59l0.25-.22h0a2.19,2.19,0,0,0,.53-0.79,1.51,1.51,0,0,0,.09-0.75,1.66,1.66,0,0,0-.87-1.14V62.36l0.06,0a7.61,7.61,0,0,1,.91.34q-0.38-.47-0.78-0.89l-0.19,0V57.62a13,13,0,0,1,1.2.91,12.43,12.43,0,0,1,2.7,0v9.33a4.8,4.8,0,0,1-.22.78,5.22,5.22,0,0,1-.85,1.47,7.09,7.09,0,0,0,1.07-.45V73a8.37,8.37,0,0,1-3.9.41V68.59h0Zm3.9,35.52v3.29L275.5,106v-3.28Zm-4.74-38.78-0.47-.12V56.86a11.73,11.73,0,0,1,1.31.76v4.25q-0.48.11-1,.26a7.56,7.56,0,0,1,1,.22v3.33a3.79,3.79,0,0,0-.84-0.37h0Zm-0.47,3.85a3.33,3.33,0,0,0,1.31-.59V73.4a7.14,7.14,0,0,1-1.09-.24l-0.23-.07v-3.9h0Zm1.31,33.5V106l-1.31-.48v-3.27ZM274.18,65.2a1.88,1.88,0,0,0-1.8.39,1.51,1.51,0,0,0-.35.67,2.18,2.18,0,0,0,0,1,3.48,3.48,0,0,0,1.4,2.05,4.34,4.34,0,0,0,.75-0.1v3.9a9.61,9.61,0,0,1-1.7-.74,9.74,9.74,0,0,1-2-.41,7.36,7.36,0,0,1-1.75-.81v-4.2l0.22,0.3a5.23,5.23,0,0,1,.13-1.71,4.69,4.69,0,0,1,.59-1.39l-0.95.47V61.14a38.62,38.62,0,0,1,3.86-1.63,7.78,7.78,0,0,0-.94-0.36,4,4,0,0,0-2.92,0V55.87a7.88,7.88,0,0,1,3.83.33,11.28,11.28,0,0,1,1.66.66V65.2h0Zm0,37v3.27q-2.79-1-5.49-1.92v-3.25C270.49,100.91,272.32,101.54,274.18,102.21Zm-5.49-46.33v3.25a2,2,0,0,0-.63.49,3.38,3.38,0,0,0-.68,1.51,5.64,5.64,0,0,0-.1.72l1.42-.7v3.44l-0.95.48a7.91,7.91,0,0,0,.95,1.86v4.2A9.72,9.72,0,0,1,265,66.49c-4.47,2.32-9.32,4.69-14.8,5.45-2.08.29-4.87,0.63-8,1-14.91,1.82-38.25,4.67-41.89,8.66-0.11.12,0.18-.17,0.2-0.14,2.85,2.6,16.39,5.73,31.63,9.25,10.88,2.51,22.62,5.22,32.15,8.17q2.15,0.66,4.41,1.42v3.25c-1.82-.61-3.59-1.19-5.31-1.73-9.48-2.93-21.14-5.62-31.95-8.11-15.67-3.62-29.57-6.83-33-10-1.5-1.37-1.72-2.77-.4-4.22,4.41-4.83,28.44-7.76,43.79-9.63,3.07-.37,5.78-0.7,8-1,5.21-.72,10-3.17,14.44-5.47a9.56,9.56,0,0,1,.13-2.94,6.39,6.39,0,0,1,1.35-2.86A5.13,5.13,0,0,1,268.69,55.87Z" transform="translate(338.39 -32.95)"/><path class="cls-4" d="M322.5,106.67a13.77,13.77,0,0,0-1.25-.66c-7.85-3.65-13.27,1.25-17.28,9.87-0.74,1.6-1.44,3.33-2.1,5.15h-2c0.74-2.11,1.53-4.1,2.38-5.93,4.47-9.61,10.64-15,19.75-10.78l0.47,0.23v2.12Z" transform="translate(338.39 -32.95)"/><path class="cls-9" d="M224.27,224.23c-31.75,92.44,53,231.53-101.82,397.14,171.31-149.86,78.17-305.77,103.66-397.14h-1.84Z" transform="translate(338.39 -32.95)"/></g></svg>