<?xml version="1.0" encoding="utf-8"?>
<!-- Generator: Adobe Illustrator 19.2.0, SVG Export Plug-In . SVG Version: 6.00 Build 0)  -->
<svg version="1.1" id="圖層_1" xmlns="http://www.w3.org/2000/svg" xmlns:xlink="http://www.w3.org/1999/xlink" x="0px" y="0px"
	 viewBox="0 0 775.2 727.3" style="enable-background:new 0 0 775.2 727.3;" xml:space="preserve">
<style type="text/css">
	.st0{fill:none;}
	.st1{fill:#38A197;}
	.st2{opacity:0.42;fill:#FAFCFC;enable-background:new    ;}
	.st3{fill:#FFFFFF;}
	.st4{opacity:0.41;fill:#FAFCFC;enable-background:new    ;}
	.st5{opacity:0.5;fill:#FAFCFC;enable-background:new    ;}
	.st6{opacity:0.24;fill:#FAFCFC;enable-background:new    ;}
	.st7{opacity:0.32;fill:#FFFFFF;enable-background:new    ;}
</style>
<title>logo</title>
<circle class="st0" cx="577.8" cy="208.3" r="233.4"/>
<g>
	<path class="st1" d="M775.2,338.8c-50.8-54.4-104.4-92.7-152.9-127.1c-31.4-22.3,2.3-58.7,12-84.7c-18.2-5.3-8.5-19.2-22.4-33.1
		s-43.8,0-43.8,0c-3.6-5.6-8.3-10.3-13.9-13.9c-13.9,3.2-24.5,20.1-20.4,31.8c2.9,8.8,10.5,15.3,19.7,16.8
		c-2.4,1.2-2.7,10.2-2.3,19.6c1.1,24,18.9,26,2,55.7c-12.8,22.4-26.8,46-28.2,114.3C520.2,551.9,83.6,607.2,0,337.6l0.4,389.6h774.8
		V338.8z"/>
	<path class="st1" d="M554.1,103.6c-0.4-1.3-0.9-2.6-1.3-4.1v-5.8c0.7,2.1,1.4,4.2,2.1,6.1c0.6-2.3,1.2-4.6,1.8-7.1
		c3.2-12.5,6.8-27,6.8-37.8c0-9.2-2.7-15.8-10.7-16.2v-1.9c9.4,0.4,12.5,7.8,12.5,18.1c0,11.1-3.7,25.7-6.9,38.3
		c-0.9,3.6-1.8,7.1-2.5,10.3c-0.1,0.5-0.6,0.8-1.1,0.7C554.5,104.2,554.2,103.9,554.1,103.6z M552.8,99.5c-0.7-2-1.4-4.1-2.1-6.3
		c-4.7-13.5-10.4-30.3-10.4-41.9c0-8.6,3.1-14.4,11.7-14.4h0.8v1.9H552c-7.3,0-9.8,5.1-9.8,12.6c0,11.3,5.7,27.9,10.3,41.3l0.4,1.1
		V99.5L552.8,99.5z"/>
	<path class="st1" d="M648.2,109.3c6.3-7,12.1-14.3,15-20.6c3.2-6.8,3-12.5-3.6-15.6c-4.5-2.1-8.3-1.4-11.4,1.3v-2.4
		c3.4-2.3,7.4-2.8,12.2-0.6c7.9,3.6,8.2,10.2,4.5,18c-3.3,7-9.8,15-16.7,22.6L648.2,109.3L648.2,109.3z M631.2,127.3
		c1.6-1.7,3.4-3.6,5.3-5.5c3.8-3.9,7.8-8.2,11.7-12.5v2.8c-3.5,3.8-7.1,7.6-10.4,11c-2.7,2.8-5.3,5.5-7.5,7.9l0,0
		c-0.3,0.4-0.9,0.4-1.3,0.1c-0.2-0.2-0.4-0.6-0.3-0.9c0.7-3.2,1.3-6.7,2-10.4c2.4-12.8,5.2-27.6,9.9-37.6c2.1-4.5,4.6-8.1,7.6-10.2
		v2.4c-2.5,2.4-4.5,5.3-5.9,8.6c-4.6,9.9-7.4,24.5-9.8,37.2C632.1,122.6,631.7,125.1,631.2,127.3L631.2,127.3z"/>
	<path class="st2" d="M587.5,209.1c25.3,13.4,31-10.4,13-17c-4.2-1.5-8.6-2.5-13-3v3c3.7,0.5,7.4,1.3,11,2.5c13.9,4.7,8.5,21-11,11
		V209.1L587.5,209.1z M564.7,191.1c8.8,8.9,16.4,14.6,22.7,18v-3.5c-5.3-2.7-11.5-7.3-18.7-14.6c6.3-0.1,12.5,0.3,18.7,1.1v-3
		c-7.1-0.9-14.3-1.2-21.5-0.9l-3.9,0.1L564.7,191.1z"/>
	<path class="st3" d="M561.4,191.7c-9.5,12.7-18.1,20.8-25.3,25.6v-4.4c5.9-3.8,12.9-10.3,20.7-20.6c-7,0.9-13.9,2.2-20.7,4v-3.6
		c7.7-1.9,15.5-3.3,23.4-4.1l4.5-0.4L561.4,191.7z M536.1,217.3c-25.7,16.8-34.9-8.7-15.7-18.8c5-2.5,10.3-4.4,15.7-5.8v3.6
		c-4.5,1.2-8.8,2.7-13,4.7c-14.9,7.4-6.9,24.7,13,11.9V217.3L536.1,217.3z"/>
	<path class="st4" d="M561.1,191.2c-1.8,2.5-3.4,4.9-4.9,7.3v5.8c1.6-2.8,3.5-5.7,5.7-8.8c2.2,12.6,3,24,1.7,32.4
		c-0.9,5.9-4.1,9.2-7.4,9.8v5.2c4.6-1.3,9.1-5.8,10.5-13.3c1.7-9.4,0.8-22.8-2.2-37.7l-0.9-4.2L561.1,191.2z M556.1,198.5
		c-21.4,33.6-10.3,47.3,0,44.5v-5.2c-6.9,1.3-14-9.7,0-33.5V198.5L556.1,198.5z"/>
	<path class="st5" d="M576.1,198.5c24.6,22.3,10.3,34.7,0,27.3v-3.7c7.1,6.5,17.3-3.3,0-20.3V198.5L576.1,198.5z M566.1,190.5
		c3.5,2.5,6.8,5.1,10,8v3.3c-3-2.9-6.2-5.5-9.5-7.9c1.5,10,3.8,18.7,6.9,24.7c0.7,1.3,1.5,2.5,2.6,3.5v3.8c-1.8-1.4-3.4-3.1-4.5-5.2
		c-3.7-6.6-6.3-16.9-7.8-28.8l-0.4-3.3L566.1,190.5z"/>
	<path class="st6" d="M674.4,519.9c72.9-150.5-48.8-275.6-111.5-331C644.4,247.3,761.8,371.3,674.4,519.9z"/>
	<path class="st1" d="M614.2,6.9c-0.3,0.8-1.1,1.3-1.9,1c-0.8-0.3-1.3-1.1-1-1.9c0.9-3,3.4-5.2,6.4-5.8c4.6-0.9,9.1,2,10,6.6
		c0.6,2.9-0.4,5.9-2.5,7.9c-1.1,1-2.4,1.7-3.9,2.1h-0.2l0,0c-0.5,0.1-1.8,0.4-2.1,1.4l-2.9,9.5c-0.3,0.8-1.1,1.3-1.9,1
		c-0.8-0.3-1.3-1.1-1-1.9l2.9-9.5c0.7-1.9,2.4-3.3,4.4-3.5l0,0h0.1c0.9-0.2,1.8-0.7,2.5-1.3c2.2-2,2.3-5.4,0.3-7.6
		c-1.3-1.4-3.2-2-5.1-1.6c-0.9,0.2-1.7,0.6-2.4,1.2c-0.4,0.3-0.7,0.7-1,1.1C614.6,5.9,614.4,6.4,614.2,6.9z"/>
	<path class="st1" d="M619.8,75.2v-3.3c4.7,1.8,9.4,3.6,14,5.4c14.6,5.7,27.6,10.7,31.4,10.2c0,0,0.1,0.4,0.1,0.2
		c-0.8-5.3-18.4-20.8-29.7-30.7c-2.4-2.1-4.5-3.9-6.1-5.4c-4.1-3.7-6.8-8.4-9.2-12.8l-0.5,0.3v-7.6c0.4,0.7,0.8,1.4,1.2,2.1
		c0.1-0.2,0.2-0.4,0.3-0.6c0.2-0.5,0.3-1.1,0.3-1.6c-0.2-1-0.9-1.8-1.8-2.1V26l0,0c3.2,1,4.6,2.9,4.9,5c0.1,1.1-0.1,2.1-0.5,3.1
		c-0.4,0.9-0.9,1.7-1.5,2.5c2.4,4.4,5,9.1,8.9,12.7c1.6,1.5,3.7,3.3,6,5.3c11.6,10.2,29.8,26.2,30.7,32.6c0.3,1.9-0.7,3-2.7,3.3
		c-4.6,0.6-17.9-4.5-32.9-10.4C628.5,78.5,624.1,76.8,619.8,75.2z M619.8,26v3.3c-0.3-0.1-0.6-0.2-0.9-0.3c-0.3-0.1-0.7-0.2-1-0.2
		c0.6,0.9,1.3,1.8,1.8,2.8v7.6c-0.6,0.4-1.3,0.7-2,0.9v-3.3c0.4-0.2,0.7-0.4,1.1-0.7c-0.3-0.6-0.7-1.2-1-1.8c0,0.2,0,0.4-0.1,0.6
		v-9.3C618.5,25.7,619.1,25.8,619.8,26L619.8,26L619.8,26z M619.8,71.9v3.3l-2-0.8v-3.3L619.8,71.9z M613.9,35.6l0.3-0.2l0,0
		c0.2-0.2,0.4-0.5,0.5-0.8c0.1-0.2,0.1-0.5,0.1-0.8c-0.1-0.5-0.4-0.9-0.9-1.1v-3.3h0.1c0.3,0.1,0.6,0.2,0.9,0.3
		c-0.3-0.3-0.5-0.6-0.8-0.9h-0.2v-4.2c0.4,0.3,0.8,0.6,1.2,0.9c0.9-0.1,1.8-0.1,2.7,0v9.3c-0.1,0.3-0.1,0.5-0.2,0.8
		c-0.2,0.5-0.5,1-0.9,1.5c0.4-0.1,0.7-0.3,1.1-0.4V40c-1.2,0.4-2.6,0.6-3.9,0.4V35.6L613.9,35.6L613.9,35.6z M617.8,71.2v3.3
		l-3.9-1.4v-3.3L617.8,71.2z M613.1,32.4l-0.5-0.1v-8.3c0.5,0.2,0.9,0.5,1.3,0.8v4.3c-0.3,0.1-0.7,0.2-1,0.3c0.3,0.1,0.7,0.1,1,0.2
		v3.3C613.6,32.6,613.3,32.4,613.1,32.4L613.1,32.4L613.1,32.4z M612.6,36.2c0.5-0.1,0.9-0.3,1.3-0.6v4.8c-0.4-0.1-0.7-0.1-1.1-0.2
		l-0.2-0.1L612.6,36.2L612.6,36.2L612.6,36.2z M613.9,69.7v3.3l-1.3-0.5v-3.3L613.9,69.7z M612.6,32.2c-0.6-0.2-1.3,0-1.8,0.4
		c-0.2,0.2-0.3,0.4-0.3,0.7c-0.1,0.3-0.1,0.7,0,1c0.2,0.8,0.7,1.6,1.4,2.1c0.3,0,0.5,0,0.8-0.1v3.9c-0.6-0.2-1.2-0.4-1.7-0.7
		c-0.7-0.1-1.3-0.2-2-0.4c-0.6-0.2-1.2-0.5-1.8-0.8V34l0.2,0.3c-0.1-0.6,0-1.2,0.1-1.7c0.1-0.5,0.3-1,0.6-1.4l-1,0.5v-3.5
		c1.3-0.6,2.5-1.2,3.9-1.6c-0.3-0.1-0.6-0.3-0.9-0.4c-0.9-0.4-2-0.4-2.9,0v-3.3c1.3-0.2,2.6-0.1,3.8,0.3c0.6,0.2,1.1,0.4,1.7,0.7
		L612.6,32.2L612.6,32.2L612.6,32.2z M612.6,69.3v3.3c-1.9-0.7-3.7-1.3-5.5-1.9v-3.3C608.9,68,610.7,68.6,612.6,69.3L612.6,69.3z
		 M607.1,22.9v3.3c-0.2,0.1-0.5,0.3-0.6,0.5c-0.3,0.4-0.6,1-0.7,1.5c0,0.2-0.1,0.5-0.1,0.7l1.4-0.7v3.4l-1,0.5
		c0.2,0.7,0.6,1.3,1,1.9v4.2c-1.7-1.1-3-2.7-3.7-4.6c-4.5,2.3-9.3,4.7-14.8,5.4c-2.1,0.3-4.9,0.6-8,1c-14.9,1.8-38.3,4.7-41.9,8.7
		c-0.1,0.1,0.2-0.2,0.2-0.1c2.8,2.6,16.4,5.7,31.6,9.3c10.9,2.5,22.6,5.2,32.2,8.2c1.4,0.4,2.9,0.9,4.4,1.4v3.3
		c-1.8-0.6-3.6-1.2-5.3-1.7c-9.5-2.9-21.1-5.6-32-8.1c-15.7-3.6-29.6-6.8-33-10c-1.5-1.4-1.7-2.8-0.4-4.2c4.4-4.8,28.4-7.8,43.8-9.6
		c3.1-0.4,5.8-0.7,8-1c5.2-0.7,10-3.2,14.4-5.5c-0.1-1-0.1-2,0.1-2.9c0.2-1.1,0.7-2,1.3-2.9C604.9,23.7,605.9,23.1,607.1,22.9z"/>
	<path class="st3" d="M660.9,73.7c-0.4-0.2-0.8-0.5-1.3-0.7c-7.8-3.7-13.3,1.3-17.3,9.9c-0.7,1.6-1.4,3.3-2.1,5.2h-2
		c0.7-2.1,1.5-4.1,2.4-5.9c4.5-9.6,10.6-15,19.8-10.8l0.5,0.2L660.9,73.7L660.9,73.7z"/>
	<path class="st7" d="M562.7,191.3c-31.8,92.4,53,231.5-101.8,397.1C632.2,438.6,539,282.6,564.5,191.3L562.7,191.3L562.7,191.3z"/>
</g>
</svg>
