<svg id="Objects" xmlns="http://www.w3.org/2000/svg" xmlns:xlink="http://www.w3.org/1999/xlink" viewBox="0 0 673.48 397.53"><defs><style>.cls-1{fill:none;}.cls-2{opacity:0.26;fill:url(#Sfumatura_senza_nome_97);}.cls-3{clip-path:url(#clip-path);}.cls-4{clip-path:url(#clip-path-2);}.cls-5{fill:#0c2646;}.cls-6{fill:#6d6e71;}.cls-7{fill:#f47a9a;}</style><radialGradient id="Sfumatura_senza_nome_97" cx="278.86" cy="334.22" r="100.12" gradientTransform="translate(-479.09 200.39) scale(3.04 0.45)" gradientUnits="userSpaceOnUse"><stop offset="0"/><stop offset="1" stop-color="#fff" stop-opacity="0"/></radialGradient><clipPath id="clip-path" transform="translate(51 -60.23)"><path class="cls-1" d="M317.36,72.07l-84.3,50.67L236.41,211l11.21,8,64.32,38s6,1,16-4a109.6,109.6,0,0,0,15.35-9c6.66-2,48.07-28,48.07-28V125l-74-52.93"/></clipPath><clipPath id="clip-path-2" transform="translate(51 -60.23)"><rect class="cls-1" x="229.53" y="106.19" width="170.42" height="161.38"/></clipPath></defs><title>notfound</title><ellipse class="cls-2" cx="369" cy="352.09" rx="304.48" ry="45.44"/><g class="cls-3"><g class="cls-4"><path class="cls-5" d="M307.4,133l-29.92,21.78V130.52h7.19V119.81H296.9v-9.3c0-2.35,8.36-4.33,18.7-4.33s18.7,2,18.7,4.33v9.3h12.23v10.72h7.19v24.21L323.8,133a14.88,14.88,0,0,0-16.4,0h0Zm-42,49.21a14.86,14.86,0,0,1,5.09-15.59l7-5.08,29.92-21.78a13.28,13.28,0,0,1,6.06-2.14v72.58a2.14,2.14,0,1,0,4.28,0V137.63a12.79,12.79,0,0,1,6.06,2.14l29.92,21.73,7,5.08c4.5,3.32,6.81,10.34,5.09,15.63L348.59,226a11.08,11.08,0,0,1-4.45,1c-5.8-.09-9.62-3.45-12.68-10.89a2.05,2.05,0,0,0-.13-0.3,0.46,0.46,0,0,0-.09-0.2,1.62,1.62,0,0,0-1.3-.75,1.54,1.54,0,0,0-1.22.75,1.69,1.69,0,0,0-.26.59c-3.07,7.48-7,10.83-12.9,10.83h0c-6,0-9.88-3.36-13-10.92a2.08,2.08,0,0,0-.13-0.3c0-.08,0-0.12-0.08-0.2a1.72,1.72,0,0,0-1.27-.75,1.58,1.58,0,0,0-1.26.75,3.14,3.14,0,0,0-.25.59c-3,7.31-6.85,10.63-12.57,10.8a12.49,12.49,0,0,1-4.37-1Zm59-17.23a3.38,3.38,0,1,0,3.41-3.37,3.39,3.39,0,0,0-3.41,3.37h0Zm-24.12,0a3.41,3.41,0,1,0,3.41-3.37,3.42,3.42,0,0,0-3.41,3.37h0Zm101.41,70.48h-0.21v30H229.66v-30h-0.13c5.93,0,9.83-3.37,12.94-10.85a2.42,2.42,0,0,1,.22-0.59,1.51,1.51,0,0,1,1.26-.75,1.45,1.45,0,0,1,1.26.75h0a0.22,0.22,0,0,0,.09.17c0,0.12.09,0.2,0.12,0.29,3.12,7.61,7,11,13,11s9.87-3.37,12.94-10.85a2.4,2.4,0,0,1,.2-0.59h0a1.42,1.42,0,0,1,1.26-.75,1.51,1.51,0,0,1,1.26.75,0.64,0.64,0,0,0,.09.17,2.57,2.57,0,0,0,.13.29c3.07,7.43,6.85,10.76,12.61,10.93,5.71-.17,9.54-3.5,12.57-10.8l0.25-.59a1.48,1.48,0,0,1,1.26-.75,1.6,1.6,0,0,1,1.27.75,1.57,1.57,0,0,0,.08.17c0,0.12.13,0.2,0.17,0.33,3.07,7.56,7,10.93,12.94,10.93h0c5.93,0,9.83-3.37,12.9-10.85,0.09-.22.17-0.38,0.26-0.59a1.45,1.45,0,0,1,1.26-.75,1.51,1.51,0,0,1,1.26.75,0.61,0.61,0,0,1,.09.17,1,1,0,0,1,.13.33c3.07,7.43,6.89,10.8,12.73,10.89,5.76-.09,9.59-3.45,12.65-10.8a2.09,2.09,0,0,1,.21-0.55,1.51,1.51,0,0,1,1.26-.75,1.45,1.45,0,0,1,1.26.75h0a0.32,0.32,0,0,0,.09.17,1.62,1.62,0,0,1,.12.29c3.08,7.56,7,10.93,12.94,10.93h0c5.93,0,9.83-3.37,13-10.85a1.76,1.76,0,0,1,.2-0.55,1.51,1.51,0,0,1,1.26-.75,1.45,1.45,0,0,1,1.26.75h0a0.33,0.33,0,0,0,.09.17,1.51,1.51,0,0,1,.13.29c3.07,7.56,7,10.93,12.94,10.93h0Zm0,0" transform="translate(51 -60.23)"/></g></g><path class="cls-5" d="M399.41,102.59L332.83,64.15a32.48,32.48,0,0,0-30.93,0l-66.59,38.44a32.31,32.31,0,0,0-15.46,26.79v76.88A32.31,32.31,0,0,0,235.31,233l66.58,38.44a32.49,32.49,0,0,0,30.93,0L399.41,233a32.3,32.3,0,0,0,15.46-26.79V129.38A32.3,32.3,0,0,0,399.41,102.59ZM231.68,129.38a20.52,20.52,0,0,1,9.55-16.54l9.58-5.53,57-32.91a20.73,20.73,0,0,1,19.1,0l57.23,33,9.35,5.4A20.52,20.52,0,0,1,403,129.38v76.88a19.53,19.53,0,0,1-2.93,9.77,19.18,19.18,0,0,1-6.62,6.77l-66.58,38.45a20.7,20.7,0,0,1-19.1,0L241.23,222.8a20.55,20.55,0,0,1-9.55-16.54V129.38Z" transform="translate(51 -60.23)"/><path class="cls-6" d="M198.82,359.73l1.75-12.21h0.2l5,10,4.92-10h0.2l1.76,12.21h-1.2L210.2,351l-4.32,8.73h-0.31l-4.37-8.8-1.2,8.8h-1.18Z" transform="translate(51 -60.23)"/><path class="cls-6" d="M223.81,350.7v9h-1.15v-1.55a5,5,0,0,1-1.64,1.34,4.58,4.58,0,0,1-5.26-.94,4.66,4.66,0,0,1-1.36-3.38,4.58,4.58,0,0,1,1.37-3.34,4.46,4.46,0,0,1,3.3-1.39,4.26,4.26,0,0,1,2,.47,4.58,4.58,0,0,1,1.58,1.42V350.7h1.15Zm-4.64.89a3.5,3.5,0,0,0-3.1,1.82,3.66,3.66,0,0,0,0,3.65,3.56,3.56,0,0,0,1.31,1.36,3.44,3.44,0,0,0,1.77.49,3.62,3.62,0,0,0,1.81-.48,3.36,3.36,0,0,0,1.31-1.3,3.71,3.71,0,0,0,.46-1.85,3.59,3.59,0,0,0-1-2.62A3.42,3.42,0,0,0,219.16,351.59Z" transform="translate(51 -60.23)"/><path class="cls-6" d="M226,350.7h1.19V352a4.17,4.17,0,0,1,1.12-1.17,2.21,2.21,0,0,1,1.23-.39,2.12,2.12,0,0,1,1,.31l-0.61,1a1.61,1.61,0,0,0-.61-0.16,1.68,1.68,0,0,0-1.12.48,3,3,0,0,0-.82,1.48,14.2,14.2,0,0,0-.22,3.12v3.05H226v-9Z" transform="translate(51 -60.23)"/><path class="cls-6" d="M231.94,347a1,1,0,1,1-.67.28A0.92,0.92,0,0,1,231.94,347Zm-0.58,3.72h1.16v9h-1.16v-9Z" transform="translate(51 -60.23)"/><path class="cls-6" d="M236,347.35h1.16v3.35H239v1h-1.84v8H236v-8h-1.59v-1H236v-3.35Z" transform="translate(51 -60.23)"/><path class="cls-6" d="M241.1,347a1,1,0,1,1-.67.28A0.92,0.92,0,0,1,241.1,347Zm-0.58,3.72h1.16v9h-1.16v-9Z" transform="translate(51 -60.23)"/><path class="cls-6" d="M244.1,350.7h1.16v1.56A4.5,4.5,0,0,1,246.5,351a3.54,3.54,0,0,1,1.85-.53,3.08,3.08,0,0,1,1.25.26,2.66,2.66,0,0,1,1,.68,3.67,3.67,0,0,1,.65,1.22,4.29,4.29,0,0,1,1.45-1.62,3.43,3.43,0,0,1,1.87-.55,2.93,2.93,0,0,1,1.65.47,2.82,2.82,0,0,1,1.06,1.32,7,7,0,0,1,.35,2.54v4.93h-1.19V354.8a6.43,6.43,0,0,0-.21-2,1.8,1.8,0,0,0-.71-0.88,2.12,2.12,0,0,0-1.2-.33,2.6,2.6,0,0,0-1.54.5,2.87,2.87,0,0,0-1,1.33,8.41,8.41,0,0,0-.32,2.77v3.54h-1.16v-4.62a7.92,7.92,0,0,0-.2-2.22,1.86,1.86,0,0,0-.71-0.94,2.06,2.06,0,0,0-1.2-.35,2.6,2.6,0,0,0-1.51.49,2.88,2.88,0,0,0-1,1.31,7,7,0,0,0-.34,2.52v3.83H244.1v-9Z" transform="translate(51 -60.23)"/><path class="cls-6" d="M267.65,356.74l1,0.51a5.35,5.35,0,0,1-1.11,1.53,4.43,4.43,0,0,1-1.42.88,5,5,0,0,1-1.79.3,4.32,4.32,0,0,1-3.46-1.45,4.89,4.89,0,0,1-1.25-3.27,4.83,4.83,0,0,1,1.06-3.06,4.31,4.31,0,0,1,3.58-1.71,4.45,4.45,0,0,1,3.69,1.75,4.89,4.89,0,0,1,1,3.09h-8.13a3.68,3.68,0,0,0,1,2.58,3.21,3.21,0,0,0,2.4,1,3.85,3.85,0,0,0,1.34-.24,3.51,3.51,0,0,0,1.11-.64A5.4,5.4,0,0,0,267.65,356.74Zm0-2.43a3.86,3.86,0,0,0-.68-1.49,3.2,3.2,0,0,0-1.18-.9,3.59,3.59,0,0,0-1.54-.34,3.31,3.31,0,0,0-2.29.86,3.86,3.86,0,0,0-1.06,1.87h6.73Z" transform="translate(51 -60.23)"/><path class="cls-6" d="M276,359.73V347.52h2.53a12.94,12.94,0,0,1,4,.44,5.32,5.32,0,0,1,2.78,2.16,6.56,6.56,0,0,1,1,3.66,6.42,6.42,0,0,1-.79,3.23,5.08,5.08,0,0,1-2.06,2.06,7.74,7.74,0,0,1-3.55.66H276Zm1.17-1.15h1.41a13.15,13.15,0,0,0,3.51-.32,4,4,0,0,0,2.17-1.61,5,5,0,0,0,.79-2.85,5.22,5.22,0,0,0-.86-3,4.31,4.31,0,0,0-2.38-1.72,14.44,14.44,0,0,0-3.78-.35h-0.86v9.86Z" transform="translate(51 -60.23)"/><path class="cls-6" d="M292.73,350.47a4.47,4.47,0,0,1,3.46,1.51,4.85,4.85,0,0,1-.07,6.57,4.77,4.77,0,0,1-6.79,0,4.84,4.84,0,0,1-.07-6.56A4.47,4.47,0,0,1,292.73,350.47Zm0,1.14a3.35,3.35,0,0,0-2.49,1.07,3.58,3.58,0,0,0-1,2.59,3.67,3.67,0,0,0,.47,1.83A3.37,3.37,0,0,0,291,358.4a3.64,3.64,0,0,0,3.55,0,3.37,3.37,0,0,0,1.28-1.31,3.67,3.67,0,0,0,.47-1.83,3.57,3.57,0,0,0-1-2.59A3.36,3.36,0,0,0,292.73,351.61Z" transform="translate(51 -60.23)"/><path class="cls-6" d="M299.58,350.7h1.16v1.56A4.5,4.5,0,0,1,302,351a3.54,3.54,0,0,1,1.85-.53,3.08,3.08,0,0,1,1.25.26,2.66,2.66,0,0,1,1,.68,3.67,3.67,0,0,1,.65,1.22,4.29,4.29,0,0,1,1.45-1.62,3.43,3.43,0,0,1,1.87-.55,2.93,2.93,0,0,1,1.65.47,2.82,2.82,0,0,1,1.06,1.32,7,7,0,0,1,.35,2.54v4.93H311.9V354.8a6.43,6.43,0,0,0-.21-2,1.8,1.8,0,0,0-.71-0.88,2.12,2.12,0,0,0-1.2-.33,2.6,2.6,0,0,0-1.54.5,2.87,2.87,0,0,0-1,1.33,8.41,8.41,0,0,0-.32,2.77v3.54h-1.16v-4.62a7.92,7.92,0,0,0-.2-2.22,1.86,1.86,0,0,0-.71-0.94,2.06,2.06,0,0,0-1.2-.35,2.6,2.6,0,0,0-1.51.49,2.88,2.88,0,0,0-1,1.31,7,7,0,0,0-.34,2.52v3.83h-1.16v-9Z" transform="translate(51 -60.23)"/><path class="cls-6" d="M324.53,350.7v9h-1.15v-1.55a5,5,0,0,1-1.64,1.34,4.58,4.58,0,0,1-5.26-.94,4.66,4.66,0,0,1-1.36-3.38,4.58,4.58,0,0,1,1.37-3.34,4.46,4.46,0,0,1,3.29-1.39,4.26,4.26,0,0,1,2,.47,4.58,4.58,0,0,1,1.58,1.42V350.7h1.15Zm-4.64.89a3.5,3.5,0,0,0-3.1,1.82,3.66,3.66,0,0,0,0,3.65,3.57,3.57,0,0,0,1.31,1.36,3.43,3.43,0,0,0,1.77.49,3.62,3.62,0,0,0,1.81-.48,3.35,3.35,0,0,0,1.31-1.3,3.72,3.72,0,0,0,.46-1.85,3.59,3.59,0,0,0-1-2.62A3.42,3.42,0,0,0,319.89,351.59Z" transform="translate(51 -60.23)"/><path class="cls-6" d="M327.55,347a1,1,0,0,1,0,1.92,1,1,0,0,1-1-1,0.93,0.93,0,0,1,.28-0.68A0.91,0.91,0,0,1,327.55,347ZM327,350.7h1.16v9H327v-9Z" transform="translate(51 -60.23)"/><path class="cls-6" d="M330.55,350.7h1.16v1.62a4.85,4.85,0,0,1,1.54-1.39,3.79,3.79,0,0,1,1.84-.46,3.2,3.2,0,0,1,1.8.51,3.07,3.07,0,0,1,1.16,1.39,7.33,7.33,0,0,1,.37,2.71v4.65h-1.16v-4.31a10.65,10.65,0,0,0-.13-2.08,2.29,2.29,0,0,0-.77-1.35,2.34,2.34,0,0,0-1.49-.45,2.87,2.87,0,0,0-1.89.7,3.27,3.27,0,0,0-1.1,1.73,12,12,0,0,0-.17,2.46v3.31h-1.16v-9Z" transform="translate(51 -60.23)"/><path class="cls-6" d="M350.8,347.52l5.69,12.21h-1.32l-1.92-4H348l-1.9,4h-1.36l5.77-12.21h0.3Zm-0.15,2.59-2.09,4.42h4.17Z" transform="translate(51 -60.23)"/><path class="cls-6" d="M357,350.7h1.2l2.77,6.56,2.88-6.56H364l2.9,6.56,2.82-6.56H371l-3.92,9h-0.22l-2.89-6.47-2.89,6.47h-0.22Z" transform="translate(51 -60.23)"/><path class="cls-6" d="M381.33,350.7v9h-1.15v-1.55a5,5,0,0,1-1.64,1.34,4.58,4.58,0,0,1-5.26-.94,4.66,4.66,0,0,1-1.36-3.38,4.58,4.58,0,0,1,1.37-3.34,4.46,4.46,0,0,1,3.29-1.39,4.26,4.26,0,0,1,2,.47,4.58,4.58,0,0,1,1.58,1.42V350.7h1.15Zm-4.64.89a3.5,3.5,0,0,0-3.1,1.82,3.66,3.66,0,0,0,0,3.65,3.57,3.57,0,0,0,1.31,1.36,3.43,3.43,0,0,0,1.77.49,3.62,3.62,0,0,0,1.81-.48,3.35,3.35,0,0,0,1.31-1.3,3.72,3.72,0,0,0,.46-1.85,3.59,3.59,0,0,0-1-2.62A3.42,3.42,0,0,0,376.68,351.59Z" transform="translate(51 -60.23)"/><path class="cls-6" d="M383.5,350.7h1.19V352a4.18,4.18,0,0,1,1.12-1.17,2.22,2.22,0,0,1,1.23-.39,2.12,2.12,0,0,1,1,.31l-0.61,1a1.61,1.61,0,0,0-.61-0.16,1.68,1.68,0,0,0-1.12.48,3,3,0,0,0-.82,1.48,14.23,14.23,0,0,0-.22,3.12v3.05H383.5v-9Z" transform="translate(51 -60.23)"/><path class="cls-6" d="M396.66,356.74l1,0.51a5.35,5.35,0,0,1-1.11,1.53,4.43,4.43,0,0,1-1.42.88,5,5,0,0,1-1.79.3,4.31,4.31,0,0,1-3.46-1.45,4.89,4.89,0,0,1-1.25-3.27,4.83,4.83,0,0,1,1.05-3.06,4.31,4.31,0,0,1,3.58-1.71,4.45,4.45,0,0,1,3.69,1.75,4.89,4.89,0,0,1,1,3.09h-8.13a3.67,3.67,0,0,0,1,2.58,3.21,3.21,0,0,0,2.4,1,3.85,3.85,0,0,0,1.34-.24,3.52,3.52,0,0,0,1.11-.64A5.41,5.41,0,0,0,396.66,356.74Zm0-2.43a3.85,3.85,0,0,0-.68-1.49,3.19,3.19,0,0,0-1.18-.9,3.59,3.59,0,0,0-1.54-.34,3.31,3.31,0,0,0-2.29.86,3.87,3.87,0,0,0-1.06,1.87h6.73Z" transform="translate(51 -60.23)"/><path class="cls-6" d="M400.1,350.7h1.16v1.62a4.85,4.85,0,0,1,1.54-1.39,3.79,3.79,0,0,1,1.84-.46,3.2,3.2,0,0,1,1.8.51,3.07,3.07,0,0,1,1.16,1.39,7.33,7.33,0,0,1,.37,2.71v4.65h-1.16v-4.31a10.64,10.64,0,0,0-.13-2.08,2.29,2.29,0,0,0-.77-1.35,2.34,2.34,0,0,0-1.49-.45,2.87,2.87,0,0,0-1.89.7,3.27,3.27,0,0,0-1.1,1.73,12,12,0,0,0-.17,2.46v3.31H400.1v-9Z" transform="translate(51 -60.23)"/><path class="cls-6" d="M418.07,356.74l1,0.51a5.35,5.35,0,0,1-1.11,1.53,4.43,4.43,0,0,1-1.42.88,5,5,0,0,1-1.79.3,4.31,4.31,0,0,1-3.46-1.45,4.89,4.89,0,0,1-1.25-3.27,4.83,4.83,0,0,1,1.05-3.06,4.31,4.31,0,0,1,3.58-1.71,4.45,4.45,0,0,1,3.69,1.75,4.89,4.89,0,0,1,1,3.09h-8.13a3.67,3.67,0,0,0,1,2.58,3.21,3.21,0,0,0,2.4,1,3.85,3.85,0,0,0,1.34-.24,3.52,3.52,0,0,0,1.11-.64A5.41,5.41,0,0,0,418.07,356.74Zm0-2.43a3.85,3.85,0,0,0-.68-1.49,3.2,3.2,0,0,0-1.18-.9,3.59,3.59,0,0,0-1.54-.34,3.31,3.31,0,0,0-2.29.86,3.87,3.87,0,0,0-1.06,1.87h6.73Z" transform="translate(51 -60.23)"/><path class="cls-6" d="M426.06,351.69l-0.75.77a2.69,2.69,0,0,0-1.82-.9,1.38,1.38,0,0,0-1,.37,1.16,1.16,0,0,0-.4.87,1.29,1.29,0,0,0,.33.84,4.66,4.66,0,0,0,1.4,1,5.22,5.22,0,0,1,1.76,1.29,2.36,2.36,0,0,1,.46,1.42,2.55,2.55,0,0,1-.78,1.88,2.67,2.67,0,0,1-2,.77,3.42,3.42,0,0,1-1.49-.34,3.25,3.25,0,0,1-1.18-.94l0.73-.83a2.54,2.54,0,0,0,1.89,1,1.7,1.7,0,0,0,1.19-.45,1.39,1.39,0,0,0,.49-1.05,1.35,1.35,0,0,0-.33-0.89,5.19,5.19,0,0,0-1.46-1,4.7,4.7,0,0,1-1.66-1.25,2.35,2.35,0,0,1-.44-1.4,2.28,2.28,0,0,1,.7-1.71,2.45,2.45,0,0,1,1.78-.68A3.68,3.68,0,0,1,426.06,351.69Z" transform="translate(51 -60.23)"/><path class="cls-6" d="M432.66,351.69l-0.75.77a2.69,2.69,0,0,0-1.82-.9,1.38,1.38,0,0,0-1,.37,1.16,1.16,0,0,0-.4.87,1.29,1.29,0,0,0,.33.84,4.67,4.67,0,0,0,1.4,1,5.22,5.22,0,0,1,1.76,1.29,2.36,2.36,0,0,1,.46,1.42,2.55,2.55,0,0,1-.78,1.88,2.67,2.67,0,0,1-2,.77,3.42,3.42,0,0,1-1.49-.34,3.25,3.25,0,0,1-1.18-.94l0.73-.83a2.54,2.54,0,0,0,1.89,1,1.7,1.7,0,0,0,1.19-.45,1.39,1.39,0,0,0,.49-1.05,1.35,1.35,0,0,0-.33-0.89,5.19,5.19,0,0,0-1.46-1,4.7,4.7,0,0,1-1.66-1.25,2.35,2.35,0,0,1-.44-1.4,2.28,2.28,0,0,1,.7-1.71,2.45,2.45,0,0,1,1.78-.68A3.68,3.68,0,0,1,432.66,351.69Z" transform="translate(51 -60.23)"/><text x="51" y="-60.23"/><path class="cls-7" d="M188.13,297.51L213.41,324V298.89H217v33.88l-25.28-26.44v25h-3.61v-33.8Z" transform="translate(51 -60.23)"/><path class="cls-7" d="M255.94,315.14A16.9,16.9,0,1,1,239,298.33,16.81,16.81,0,0,1,255.94,315.14Zm-30.19,0A13.29,13.29,0,1,0,239,301.68,13.41,13.41,0,0,0,225.75,315.1Z" transform="translate(51 -60.23)"/><path class="cls-7" d="M269.44,331.31h-3.61V302.24H258v-3.35h19.35v3.35h-7.91v29.07Z" transform="translate(51 -60.23)"/><path class="cls-7" d="M311.15,302.24v9.63h10.79v3.35H311.15v16.08h-3.61V298.89h14.75v3.35H311.15Z" transform="translate(51 -60.23)"/><path class="cls-7" d="M360.26,315.14a16.9,16.9,0,1,1-16.9-16.81A16.81,16.81,0,0,1,360.26,315.14Zm-30.18,0a13.29,13.29,0,1,0,13.29-13.42A13.41,13.41,0,0,0,330.07,315.1Z" transform="translate(51 -60.23)"/><path class="cls-7" d="M368.68,318.19c0,2.41-.09,5.16,1.42,7.22a8.36,8.36,0,0,0,6.54,3.1,8.58,8.58,0,0,0,6.36-2.88c1.72-2.06,1.59-4.9,1.59-7.44V298.89h3.61v20.3c0,3.53-.26,6.32-2.84,9a11.92,11.92,0,0,1-8.73,3.7,12.13,12.13,0,0,1-8.38-3.31c-2.84-2.71-3.18-5.68-3.18-9.37v-20.3h3.61v19.31Z" transform="translate(51 -60.23)"/><path class="cls-7" d="M394.83,297.51L420.11,324V298.89h3.61v33.88l-25.28-26.44v25h-3.61v-33.8Z" transform="translate(51 -60.23)"/><path class="cls-7" d="M430.47,298.89h6.11c4.86,0,8.81.65,12.64,3.91a16.65,16.65,0,0,1,.09,24.42c-3.87,3.44-7.74,4.08-12.81,4.08h-6V298.89ZM436.71,328c4,0,7.27-.56,10.23-3.35a13.25,13.25,0,0,0-.17-19.22c-3-2.62-6.24-3.14-10.06-3.14h-2.62V328h2.62Z" transform="translate(51 -60.23)"/></svg>